<?xml version="1.0" encoding="UTF-8"?>
<svg id="Lag_1" data-name="Lag 1" xmlns="http://www.w3.org/2000/svg" viewBox="0 0 801.45 427.88">
  <defs>
    <style>
      .cls-1 {
        fill: #0e372c;
      }
    </style>
  </defs>
  <path class="cls-1" d="M801.45,427.88H0V23.02l14.33-6.69c29.66-13.86,64.85-7.19,87.39,16.55l8.19,8.63c14.19,14.95,36.44,18.99,54.98,9.98l15.48-7.53c27.86-13.54,59.53-17.06,89.68-9.97l76.53,18.01c16.07,3.78,32.98,1,47-7.72l2.96-1.84c20.69-12.87,43.16-22.64,66.68-28.98l30.4-8.2c29.32-7.91,60.34-6.87,89.07,2.98l21.93,7.52c14.11,4.84,27.85,10.69,41.12,17.51l17.77,9.14c31.09,15.99,67.97,16.1,99.16.28l38.79-19.67v404.86Z"/>
</svg>