<?xml version="1.0" encoding="UTF-8"?>
<svg id="Lag_1" data-name="Lag 1" xmlns="http://www.w3.org/2000/svg" viewBox="0 0 801.45 131.84">
  <defs>
    <style>
      .cls-1 {
        fill: #0e372c;
      }
    </style>
  </defs>
  <path class="cls-1" d="M801.45,131.84H0V7.09l14.33-2.06C43.98.76,79.18,2.81,101.72,10.13l8.19,2.66c14.19,4.61,36.44,5.85,54.98,3.07l15.48-2.32c27.86-4.17,59.53-5.26,89.68-3.07l76.53,5.55c16.07,1.17,32.98.31,47-2.38l2.96-.57c20.69-3.97,43.16-6.98,66.68-8.93l30.4-2.53c29.32-2.44,60.34-2.12,89.07.92l21.93,2.32c14.11,1.49,27.85,3.29,41.12,5.4l17.77,2.82c31.09,4.93,67.97,4.96,99.16.09l38.79-6.06v124.75Z"/>
</svg>