<?xml version="1.0" encoding="UTF-8"?>
<svg id="Lag_1" data-name="Lag 1" xmlns="http://www.w3.org/2000/svg" width="152.13mm" height="152.13mm" viewBox="0 0 431.24 431.24">
  <rect x="3.5" y="3.5" width="424.24" height="424.24" rx="66.26" ry="66.26" style="fill: #60857b; stroke: #f38f1a; stroke-miterlimit: 10; stroke-width: 7px;"/>
  <path d="M292.3,87.26c-6.89-8.76-9.09-20.23-9.39-31.11-.04-1.35-.05-2.7-.03-4.06,0-.54.24-1.53.04-2.02-.04-.09-.01-.28-.02-.29-.45.22-.5.33-.17.33.13.03.26.05.38.08,2.5.52,4.96,1.32,7.32,2.29,4.65,1.93,9,4.69,12.75,8.04,4.37,3.91,7.92,8.59,10.49,13.87,1.06,2.17,4.29.27,3.24-1.89-5.15-10.58-14.29-18.98-25.13-23.49-2.61-1.08-5.39-2.08-8.19-2.54-1.49-.24-3.08,0-3.92,1.42-.76,1.31-.53,3.15-.54,4.6-.05,6.24.43,12.54,1.82,18.63,1.55,6.83,4.37,13.27,8.71,18.78.63.8,1.99.65,2.65,0,.79-.78.62-1.86,0-2.65h0Z" style="fill: #fff;"/>
  <path d="M310.02,65.27c5.92,1.47,11.79.16,17.71-.57,4.96-.61,10.34-.72,14.6,2.27,1.98,1.39,3.86-1.86,1.89-3.24-4.43-3.11-10.07-3.44-15.29-2.92-5.92.6-11.98,2.31-17.91.84-2.34-.58-3.34,3.03-1,3.62h0Z" style="fill: #fff;"/>
  <path d="M336.72,73.87c5.53-.26,10.08-3.73,13.36-7.97,3.58-4.62,5.94-10.25,10.32-14.22,1.85-1.68,4.11-3.05,6.61-3.45.4-.06,1.21-.26,1.61-.08-.39-.17-.1-.12-.08.14.02.24.15.53.21.76.45,1.67.81,3.38,1.1,5.08,1.09,6.39,1.13,12.92,1.16,19.38.03,5.79.29,13.69-5.86,16.65-2.17,1.05-.27,4.28,1.89,3.24,5.88-2.83,7.53-9.67,7.7-15.64.2-6.99.1-14.14-.77-21.09-.21-1.65-.45-3.3-.77-4.94s-.62-3.62-1.36-5.21c-1.37-2.96-5.24-2.31-7.78-1.41-6.02,2.13-9.76,7.41-13.01,12.6-3.28,5.23-7.4,12.07-14.35,12.4-2.4.11-2.42,3.86,0,3.75h0Z" style="fill: #fff;"/>
  <path d="M297.4,82.24c-3.89,1.31-6.95,4.25-8.73,7.93-2.08,4.29-2.38,9.02-1.74,13.69.7,5.08,2.15,10.27,4.08,15.03,1.71,4.23,4.15,8.05,7.72,10.94,3.84,3.12,8.34,5.02,13.24,5.63,1.01.13,1.88-.95,1.88-1.88,0-1.12-.87-1.75-1.88-1.88-7.44-.94-13.69-5.92-16.82-12.62-1.86-3.98-3.05-8.43-3.98-12.71s-1.29-8.38-.02-12.4c1.12-3.56,3.6-6.9,7.24-8.12,2.28-.77,1.3-4.39-1-3.62h0Z" style="fill: #fff;"/>
  <path d="M310.46,128.51c-.95,4.88-1.69,10.95,2.7,14.48,3.12,2.51,7.88,2.05,10.72-.68.65-.62,1.18-1.37,1.55-2.19s.35-1.81,1.39-1.46,1.93,1.47,2.84,2.11,2.03,1.16,3.15,1.44c4.55,1.14,9.39-1.05,11.37-5.34,1.01-2.19,1.33-4.76.42-7.04s-2.92-3.7-4.97-4.88c-2.16-1.24-4.54-2.34-7.03-1.36-2.16.85-3.54,2.77-4.8,4.61-.87,1.27-2.55,3.77-4.37,2.71-.78-.45-1.49-1.32-1.98-2.07.04.06-.27-.55-.31-.58l-.04-.19-.13.43c.48.15,1.65-.21,2.16-.26,1.48-.14,2.97-.22,4.45-.26,1.24-.03,2.67.2,3.86-.23,2.93-1.05,1.37-5.03.8-7.15-.79-2.98-1.85-5.88-3.1-8.69-.56-1.27-1.09-2.8-2.27-3.63s-2.65-.71-3.62.32c-.9.95-1.21,2.49-1.63,3.69-.53,1.53-1.05,3.06-1.54,4.6-1.01,3.16-1.93,6.34-2.78,9.55-.61,2.34,3,3.33,3.62,1,.76-2.89,1.59-5.77,2.48-8.63.44-1.39.89-2.77,1.36-4.15.23-.69.47-1.38.72-2.06.11-.3.21-.61.33-.91.25-.69.21-.46.18-.45l-.95.26c-.37.02-.24-.18-.12.23.09.28.28.56.4.83.3.62.58,1.25.85,1.88.51,1.2.97,2.42,1.39,3.65.4,1.16.75,2.34,1.07,3.53s.85,2.61.8,3.83l.26-.95.68-.28c-.27,0-.53,0-.8,0-.5,0-.99,0-1.49.01-.99.02-1.98.06-2.97.12-1.82.11-4.24,0-5.91.84-3.61,1.84-1.07,5.96.98,7.9,2.67,2.52,6.07,2.21,8.67-.25,1.03-.98,1.79-2.19,2.61-3.34.69-.99,1.66-2.38,2.97-2.56,1.46-.19,3.15,1.1,4.31,1.84,1.42.9,2.57,1.96,2.66,3.74.13,2.74-1.87,5.37-4.5,6.06-1.33.35-2.78.24-4.05-.29-1.51-.64-2.52-2.02-3.95-2.79-1.34-.72-3.09-.97-4.48-.24-1.62.85-1.7,2.4-2.63,3.76-1.26,1.86-4.25,2.55-6.11,1.21-3.27-2.36-2.25-7.41-1.6-10.72.46-2.36-3.15-3.37-3.62-1h0Z" style="fill: #fff;"/>
  <path d="M321.86,144.77c2.46,1.59,5.14,3.2,8.16,3.24,2.64.04,5.44-1.17,6.7-3.59.47-.9.23-2.04-.67-2.57-.84-.49-2.1-.23-2.57.67-.05.1-.1.2-.16.29-.02.04-.28.4-.13.21.13-.16-.09.09-.11.12-.08.08-.15.15-.23.23-.06.06-.35.27-.06.06-.09.06-.18.12-.27.18-.19.12-.38.22-.58.31.32-.16-.29.09-.41.13-.22.06-.44.09-.66.15s.27-.01-.09.01c-.11,0-.22.02-.34.02-.25.01-.51,0-.76,0-.04,0-.39-.03-.17,0s-.19-.03-.23-.04c-.31-.06-.62-.13-.92-.23-.59-.18-.95-.33-1.41-.55-1.12-.55-2.17-1.22-3.21-1.89-.85-.55-2.07-.17-2.57.67-.53.91-.18,2.01.67,2.57h0Z" style="fill: #fff;"/>
  <path d="M314.64,131.25c-.02-.27-.02-.53.01-.8l-.07.5c.05-.35.14-.69.28-1.02l-.19.45c.15-.35.34-.67.57-.97l-.29.38c.25-.32.53-.6.85-.85l-.38.29c.32-.25.66-.45,1.03-.61l-.45.19c.33-.13.67-.23,1.02-.28l-.5.07c.33-.04.66-.04.99,0,.44.06,1.03-.25,1.33-.55.33-.33.57-.86.55-1.33s-.18-.99-.55-1.33l-.38-.29c-.29-.17-.61-.25-.95-.26-1.72-.23-3.5.57-4.72,1.74s-2.04,2.94-1.9,4.66c.04.51.18.96.55,1.33.33.33.86.57,1.33.55s.99-.18,1.33-.55c.32-.35.59-.84.55-1.33h0Z" style="fill: #fff;"/>
  <path d="M344.24,135.44c7.19,1.05,15.53,1.93,21.58-2.99,3.05-2.48,4.74-6.2,5.65-9.95,1.03-4.24,1.38-8.7,1.65-13.05.35-5.46.32-10.93-.05-16.38-.16-2.39-3.72-2.44-3.75,0-.1,6.89,1.09,13.69,2.04,20.49s1.67,13.44.35,20.03c-1.33,6.63-5.13,12.46-6.17,19.17-1.1,7.05-.17,14.26-.2,21.36-.08,14.55-2.16,28.92-5.85,42.97-3.69,14.05-8.49,27.77-12.19,41.82-4.16,15.81-7.05,31.95-8.71,48.21-.1,1.01.94,1.88,1.88,1.88,1.1,0,1.77-.86,1.88-1.88,1.48-14.49,3.99-28.86,7.5-42.99,3.5-14.1,8.22-27.84,12.13-41.83,3.91-14.01,6.48-28.31,7.01-42.87.13-3.62.15-7.25.05-10.87s-.34-7.09-.22-10.63.69-6.66,1.82-9.88,2.61-6.31,3.68-9.56c4.88-14.92-1.45-30.28-1.24-45.41h-3.75c.58,8.53.46,17.3-.94,25.75-.54,3.24-1.36,6.67-3.48,9.27s-5.11,3.79-8.29,4.23c-3.76.51-7.65.05-11.38-.49-1.01-.15-2,.25-2.31,1.31-.25.88.31,2.16,1.31,2.31h0Z" style="fill: #fff;"/>
  <path d="M270.82,207.66c-7.32-16.13-21.94-32.95-16.01-51.86,1.98-6.32,5.98-11.8,10.26-16.76,4.53-5.26,9.51-10.11,13.98-15.43,4.94-5.87,9.29-12.37,11.14-19.91.58-2.34-3.04-3.34-3.62-1-3.36,13.68-14.98,23.13-23.83,33.32-4.51,5.19-8.66,10.8-11.04,17.32-3.12,8.54-2.18,17.74.84,26.17,3.79,10.6,10.42,19.84,15.05,30.05.42.93,1.75,1.14,2.57.67.95-.54,1.09-1.65.67-2.57h0Z" style="fill: #fff;"/>
  <path d="M261.49,140.65c2.41,0,2.42-3.75,0-3.75s-2.42,3.75,0,3.75h0Z" style="fill: #fff;"/>
  <path d="M260.95,136.86c-16.01,3.84-31.24,10.83-44.72,20.28s-25.34,21.34-34.71,34.96c-10.1,14.7-16.9,31.28-20.56,48.71-4.27,20.33-4.69,41.22-4.3,61.92.1,5.21.32,10.41.4,15.62.03,2.1.01,4.37-.99,6.27-.9,1.71-2.57,2.77-4.33,3.48-2.17.87-4.49,1.38-6.75,1.98-2.7.73-5.41,1.45-8.11,2.18-5.25,1.41-10.49,2.82-15.74,4.23s-10.69,2.97-16.09,4.26c-5.11,1.22-10.35,2.12-15.62,1.73s-10-2.41-14.78-4.3-9.48-3.38-14.44-4.34c-9.75-1.87-20.33-2.11-30.01.28-3.85.95-7.85,2.72-10.02,6.22s-1.76,7.69.35,11.05c4.89,7.81,15.04,10.78,23.45,12.86,9.81,2.42,19.96,3.27,30.04,3.21,21.41-.12,42.47-4.41,63.74-6.21,5.53-.47,11.08-.77,16.63-.78,4.37,0,8.75.29,13.11,0,4.05-.27,8.22-1.02,11.72-3.19s5.31-5.24,7.2-8.59c1.48-2.61,3.05-5.69,6.25-6.35l-1.44-3.43c-2.79,2.08-5,4.64-5.89,8.07-.79,3.02-.56,6.29.41,9.23,2.19,6.59,7.6,11.15,14.3,12.73,16.79,3.96,30.89-8.42,45.3-14.61,7.69-3.3,15.94-5.51,24.26-6.5,4.15-.49,8.33-.7,12.51-.62,3.76.08,7.62.24,11.3,1.09,4.88,1.13,11.85,4,11.56,10.05-.15,3.19-2.7,5.76-5.36,7.18-3.69,1.96-8.16,1.85-12.21,1.6-9.2-.57-18.39-1.42-27.58-2.14s-18.67-1.46-28.01-2.19c-2.31-.18-4.63-.36-6.94-.54s-2.39,3.56,0,3.75c18.75,1.46,37.51,2.93,56.26,4.39,7.98.62,17.27,1.96,23.67-4.02,2.51-2.34,4.16-5.7,3.89-9.17-.24-3.04-1.77-5.76-4.07-7.73-5.22-4.47-12.31-5.49-18.93-5.89-8.43-.51-16.94.19-25.19,1.98s-16.38,4.83-23.93,8.81-14.46,8.55-22.6,10.55c-6.71,1.65-15.1,1.57-20.49-3.38-4.08-3.75-6.52-10.55-3.71-15.74.81-1.49,1.99-2.68,3.34-3.69,1.67-1.25.74-3.88-1.44-3.43-7.57,1.57-8.1,11.01-13.77,14.94-3.14,2.17-7.02,2.85-10.77,3.08-4.41.27-8.82-.04-13.23-.02-21.41.1-42.48,4.43-63.75,6.22-9.95.84-19.97,1.13-29.93.22-4.84-.44-9.64-1.19-14.37-2.31-4.61-1.09-9.39-2.4-13.66-4.48-3.52-1.71-7.09-4.2-8.93-7.76-1.67-3.24-.45-6.79,2.55-8.71,3.48-2.23,7.92-2.81,11.94-3.26,5.03-.56,10.11-.58,15.14-.1s9.98,1.54,14.78,3.07,9.25,3.71,14.02,5.16c10.27,3.12,20.6.66,30.66-2.04s20.99-5.64,31.48-8.46c4.15-1.11,8.99-1.85,12.52-4.47,3.85-2.86,4.53-7.36,4.44-11.87-.44-20.42-1.15-40.84,1.31-61.17,2.21-18.27,7.16-36.19,16.15-52.32,7.84-14.07,18.3-26.6,30.61-36.97,12.3-10.36,26.53-18.54,41.76-23.74,3.71-1.27,7.49-2.35,11.3-3.27,2.35-.56,1.35-4.18-1-3.62h0Z" style="fill: #fff;"/>
  <path d="M298.72,346.65c1.19-16.46,2.34-33.74-3.66-49.47-2.77-7.27-7.34-14.46-7.25-22.47.09-7.55,4.22-14.38,4.92-21.85.85-9.06-4.89-15.96-10.76-22.12-1.67-1.75-4.32.9-2.65,2.65,4.91,5.16,10.08,10.86,9.73,18.47-.35,7.37-4.36,14.04-4.93,21.41-.62,7.98,3.25,15.22,6.28,22.33s4.77,15.29,5.28,23.33c.59,9.24-.05,18.51-.71,27.73-.17,2.41,3.58,2.4,3.75,0h0Z" style="fill: #fff;"/>
  <path d="M296.55,323.11c2.41,0,2.42-3.75,0-3.75s-2.42,3.75,0,3.75h0Z" style="fill: #fff;"/>
  <path d="M320.05,111.92c-.59-5.16-3.16-10.58-8.08-12.9-4.42-2.09-10.37-1.5-13.55,2.51-.63.79-.77,1.88,0,2.65.65.65,2.02.8,2.65,0,2.16-2.72,6.16-3.35,9.23-1.81,3.54,1.78,5.56,5.73,5.99,9.55.11,1.01.78,1.88,1.88,1.88.92,0,1.99-.86,1.88-1.88h0Z" style="fill: #fff;"/>
  <path d="M336.52,110.56c-.31-1.96.12-4.05.89-5.86.71-1.65,1.76-3.44,3.32-4.41,3.06-1.89,7.15-.8,10.38.02,2.34.6,3.34-3.02,1-3.62-4.37-1.12-9.71-2.18-13.7.64-4.31,3.05-6.31,9.14-5.51,14.22.16,1,1.41,1.56,2.31,1.31,1.07-.29,1.47-1.3,1.31-2.31h0Z" style="fill: #fff;"/>
  <path d="M347.27,77.88c3.49-.2,6.88-.32,9.87,1.75,1.28.88,2.37,2.05,3.42,3.18,1.17,1.26,2.37,2.5,3.22,4,1.18,2.1,4.43.21,3.24-1.89-.98-1.74-2.36-3.2-3.71-4.65s-2.69-2.76-4.28-3.87c-3.5-2.44-7.66-2.5-11.76-2.26-2.4.14-2.41,3.89,0,3.75h0Z" style="fill: #fff;"/>
  <path d="M356.83,77.76c3.02-3.5,5.88-7.33,7.17-11.83.6-2.08.68-4.23.97-6.36.12-.9.29-1.82.6-2.67.21-.58.71-1.78,1.36-1.88h-1l.1.05-.67-.67.15.24-.26-.95v.28c.08,2.41,3.83,2.42,3.76,0-.05-1.62-1.42-2.9-3.08-2.57-1.29.25-2.2,1.26-2.92,2.3-1.46,2.12-1.7,4.8-1.96,7.28s-.81,4.95-2,7.24c-1.31,2.52-3.04,4.76-4.89,6.9-1.57,1.82,1.07,4.48,2.65,2.65h0Z" style="fill: #fff;"/>
  <path d="M312.5,73.07c-1.69.34-3.32.9-5,1.3-.39.09-.78.18-1.18.25-.12.02-.24.04-.36.06.2-.02.18-.02-.04,0-.18.02-.36.03-.54.05-.42.02-.84.01-1.26-.01-.56-.03.33.08-.22-.03-.24-.05-.48-.1-.71-.17-.94-.26-2.08.32-2.31,1.31s.3,2.03,1.31,2.31c3.88,1.07,7.55-.71,11.3-1.45.96-.19,1.61-1.39,1.31-2.31-.33-1.02-1.27-1.51-2.31-1.31h0Z" style="fill: #fff;"/>
  <path d="M304.36,75.68c-1.74-4.5-3.73-8.91-6.03-13.16-.96-1.78-2.15-3.61-4.05-4.48-2.25-1.03-4.66-.52-6.92.17s-1.32,4.32,1,3.62c1.42-.43,3.32-1.15,4.68-.2,1.26.88,1.95,2.57,2.64,3.89,1.9,3.62,3.59,7.35,5.07,11.17.36.94,1.26,1.6,2.31,1.31.9-.25,1.68-1.36,1.31-2.31h0Z" style="fill: #fff;"/>
  <path d="M330.86,249.09c-5.85,30.4-6.96,61.67-3.11,92.4.72,5.76,1.06,14.38,8.78,14.48,1.51.02,3.06-.36,4.56-.13,1.26.19,2.34.85,3.22,1.74,1.82,1.85,2.8,4.44,3.47,6.89s1.53,5.73-1.49,6.93c-1.21.48-2.54.6-3.82.69-1.9.14-3.8.19-5.71.18-3.8-.03-7.6-.33-11.34-.96-3.34-.56-7-1.14-10.08-2.62-1.68-.81-2.97-1.93-3.86-3.58s-1.29-3.34-1.77-5.06c-1.21-4.29-2.41-8.58-3.62-12.87-2.41-8.58-4.82-17.16-7.24-25.74-.65-2.32-4.27-1.33-3.62,1,2.23,7.95,4.47,15.89,6.7,23.84,1.12,3.97,2.23,7.95,3.35,11.92.96,3.43,1.67,7.26,3.83,10.18s5.24,4.18,8.5,5.07c3.78,1.04,7.66,1.71,11.55,2.14s7.92.55,11.88.35c3.08-.16,6.57-.33,9-2.48,2.74-2.42,2.32-6.13,1.52-9.33-.69-2.77-1.74-5.56-3.47-7.85s-3.99-3.85-6.84-4.17-6.61,1.27-8.17-2.16c-.54-1.19-.78-2.54-.97-3.83-.31-2.01-.56-4.04-.8-6.06-.48-4-.88-8.01-1.19-12.03-.63-8.03-.93-16.09-.89-24.15.08-18.05,1.83-36.07,5.24-53.79.45-2.36-3.16-3.37-3.62-1h0Z" style="fill: #fff;"/>
  <path d="M324.35,358.95c3.9-1.41,7.9-2.55,11.96-3.4.96-.2,1.61-1.38,1.31-2.31-.33-1.02-1.28-1.53-2.31-1.31-4.06.86-8.05,1.99-11.96,3.4-.92.33-1.64,1.29-1.31,2.31.29.9,1.32,1.67,2.31,1.31h0Z" style="fill: #fff;"/>
  <path d="M337.11,349.41c2.88.52,5.68.2,8.57,0,2.2-.16,4.63-.23,6.66.76s3.09,3.07,3.78,5.14c.86,2.55,1.1,5.18.83,7.86l1.88-1.88c-3.54-.13-7.04.78-10.06,2.62-2.06,1.25-.18,4.5,1.89,3.24,2.49-1.52,5.26-2.22,8.17-2.11,1.09.04,1.77-.9,1.88-1.88.3-2.97-.01-6.02-.96-8.85s-2.26-5.27-4.66-6.89c-5.19-3.49-11.35-.6-16.97-1.62-1-.18-2.02.27-2.31,1.31-.25.91.31,2.12,1.31,2.31h0Z" style="fill: #fff;"/>
  <path d="M345.59,346.05c-3.37-14.2-4.97-28.76-4.76-43.36.03-2.41-3.72-2.42-3.75,0-.21,14.92,1.45,29.84,4.9,44.35.56,2.35,4.17,1.35,3.62-1h0Z" style="fill: #fff;"/>
  <path d="M334.04,257.28c9.2-4.18,14.64-13.27,18.32-22.26,2.14-5.24,3.83-10.65,5.98-15.88,2.02-4.91,4.45-9.63,6.5-14.53,2.29-5.49,4.02-11.23,4.06-17.23.02-2.41-3.73-2.42-3.75,0-.07,10.18-5.43,19.22-9.38,28.29s-6.45,19.87-12.34,28.48c-2.88,4.21-6.61,7.77-11.28,9.89-.93.42-1.14,1.75-.67,2.57.54.95,1.65,1.09,2.57.67h0Z" style="fill: #fff;"/>
  <path d="M323.83,133.68v2.48c0,.48.21.99.55,1.33.17.18.37.31.6.39.22.12.46.17.72.16.48-.02.99-.18,1.33-.55s.55-.82.55-1.33v-2.48c0-.48-.21-.99-.55-1.33-.17-.18-.37-.31-.6-.39-.22-.12-.46-.17-.72-.16-.48.02-.99.18-1.33.55s-.55.82-.55,1.33h0Z" style="fill: #fff;"/>
  <path d="M287.29,359.76c.57-.04,1.14-.05,1.71,0,.14.01.27.03.4.04-.44-.05.09.02.15.03.27.05.53.11.79.17s.52.15.78.23c.15.05.31.11.46.17.33.12-.12-.06.08.03.52.24,1.03.5,1.51.8.23.14.45.3.68.46.42.3-.15-.14.07.05.1.09.21.17.31.26.43.37.84.78,1.21,1.21.09.1.17.21.26.31-.26-.31.07.11.1.14.16.22.31.45.44.68s.27.47.39.71c.07.15.14.29.21.44-.13-.3.01.04.05.16.34.92,1.28,1.64,2.31,1.31.9-.29,1.68-1.32,1.31-2.31-1.99-5.33-7.48-9.12-13.24-8.66-.98.08-1.92.81-1.88,1.88.04.95.83,1.96,1.88,1.88h0Z" style="fill: #fff;"/>
  <path d="M334.8,366.19c.28,0,.55,0,.83.03h.12c.21.04.16.03-.15,0,.07.05.26.05.35.06.23.05.46.11.68.17.13.04.26.08.39.13.08.03.41.22.16.05-.27-.17.14.07.21.1.11.05.21.1.32.16.21.11.41.23.61.36.12.07.23.15.34.23.05.03.1.07.14.1.13.1.13.09,0,0-.13-.1-.13-.1,0,0,.06.05.12.1.18.15.09.08.18.16.26.24.17.16.34.33.5.51.08.09.16.18.23.27.05.06.1.12.15.18-.16-.21-.2-.26-.11-.14.28.4.55.81.78,1.25.05.11.1.21.15.32.16.34-.15-.4.01.04.09.24.17.48.24.73.06.23.11.46.15.69.08.39-.03-.4,0-.03.01.16.03.32.03.47.05.98.83,1.92,1.88,1.88.98-.04,1.93-.83,1.88-1.88-.26-5.32-4.96-9.9-10.33-9.83-.98.01-1.92.85-1.88,1.88s.82,1.89,1.88,1.88h0Z" style="fill: #fff;"/>
  <path d="M348.78,356.26c.3.06.59.15.88.25.24.08-.16-.07-.19-.09.06.04.14.06.21.09.14.07.27.14.4.21.12.07.23.14.35.22.04.03.17.15.22.16-.03,0-.36-.29-.16-.12.23.2.46.4.67.63.09.1.18.21.27.31.14.17-.27-.38-.1-.12.04.06.09.12.13.19.16.24.31.49.44.75.03.07.06.14.1.21.1.2-.17-.44-.07-.15.05.14.11.29.15.43.09.29.15.59.2.89l-.07-.5c.06.46.07.91.02,1.37s.24,1.02.55,1.33c.33.33.86.57,1.33.55s.99-.18,1.33-.55c.36-.39.49-.8.55-1.33.4-3.76-2.51-7.63-6.2-8.36-.5-.1-.99-.07-1.44.19-.39.23-.76.67-.86,1.12-.21.93.28,2.1,1.31,2.31h0Z" style="fill: #fff;"/>
  <path d="M297.26,355.92c.09.06.17.12.26.18.11.08.26.28-.03-.03.13.13.3.24.44.36.3.26.59.53.86.82s.53.59.78.9c.16.19-.27-.37-.02-.03.05.07.1.13.15.2.12.17.24.34.35.52.2.32.39.64.57.98.1.18.19.37.28.56.04.08.07.15.1.23.18.38-.11-.28-.02-.04.29.77.54,1.54.7,2.34.19.96,1.39,1.61,2.31,1.31,1.02-.33,1.52-1.27,1.31-2.31-.75-3.75-3.03-7.04-6.14-9.23-.8-.57-2.12-.17-2.57.67-.51.96-.19,1.96.67,2.57h0Z" style="fill: #fff;"/>
</svg>