<?xml version="1.0" encoding="UTF-8"?>
<svg id="Lag_1" data-name="Lag 1" xmlns="http://www.w3.org/2000/svg" width="152.13mm" height="152.13mm" viewBox="0 0 431.24 431.24">
  <rect x="3.5" y="3.5" width="424.24" height="424.24" rx="66.26" ry="66.26" style="fill: #60857b; stroke: #f38f1a; stroke-miterlimit: 10; stroke-width: 7px;"/>
  <path d="M290.84,78.54c3.02,9.62,10.23,17.92,19.51,21.98,4.43,1.94,9.77,3.37,14.37,1.09,5.37-2.66,5.31-8.89,4.3-13.96-1.26-6.3-2.64-12.58-3.96-18.86-.67-3.21-1.35-6.42-2.02-9.63-.19-.92-.3-1.81-.95-2.55-.31-.35-.68-.65-1.04-.94-1.16-.92-2.47-1.6-3.89-2.02-5.14-1.52-10.47.38-14.58,3.51-4.6,3.5-8.55,7.99-12.5,12.19s-7.84,8.7-11.17,13.51-6,10.17-8.16,15.68c-4.2,10.74-6.53,22.08-10.44,32.92s-10.47,21.46-17.14,31.36c-7.13,10.58-14.32,21.12-21.54,31.64-3.48,5.08-7.04,10.11-11.02,14.82s-8.21,8.88-12.63,13.01c-9.46,8.84-19.16,17.42-28.75,26.12-2.39,2.17-4.78,4.33-7.17,6.5s1.16,5.69,3.54,3.54c6.86-6.22,13.73-12.44,20.59-18.66,6.67-6.04,13.46-11.98,19.86-18.3,12.74-12.58,22.21-27.89,32.23-42.61,9.75-14.32,20.26-28.48,26.39-44.84,5.7-15.23,7.99-31.88,16.72-45.86,4.42-7.07,10.13-13.2,15.93-19.14,4.44-4.55,10.22-12.04,17.48-10.79,1.46.25,2.72.85,3.75,1.92l-.64-1.1c1.3,6.18,2.6,12.36,3.9,18.54.66,3.13,1.32,6.26,1.97,9.39.47,2.24,1.17,4.68.81,6.99-.69,4.44-5.7,4.19-9.06,3.19-4.34-1.29-8.37-3.8-11.64-6.91-3.78-3.59-6.64-8.06-8.21-13.04-.96-3.06-5.79-1.75-4.82,1.33h0Z" style="fill: #f7f6f5;"/>
  <path d="M325.72,114.02c.83,3.25,2.87,5.56,6.26,6.07,1.4.21,2.99.23,4.29.4,1.62.21,3.21.91,4.77,1.63,4.17,1.95,8.59,3.22,13.09,4.19,4.2.91,8.73,2.14,13.06,2.01s8.93-2.27,10.24-6.71c1.19-4.05-1.19-7.87-5.04-9.17-4.14-1.41-8.11.63-12.12,1.44-3.71.75-7.78.12-11.17-1.52-.84-.41-1.66-.87-2.45-1.38-.64-.42-1.35-.93-1.61-1.36.09.14.03-.13.03-.12,0-.43-.07.32,0-.09.02-.12.07-.25.11-.37-.04.13.04-.04.2-.17-.11.08.12-.06.31-.1-.33.07.45-.02.41-.02.33-.01.66-.03.98-.05.57-.03,1.15-.06,1.72-.09,1.31-.07,2.62-.13,3.94-.2,2.46-.13,4.92-.25,7.38-.38,4.78-.24,9.71-.22,14.39-1.36,3.89-.95,7.44-2.95,10.24-5.81s4.67-6.16,5.98-9.79c.64-1.77,1.09-3.61,1.36-5.48.3-2.09.65-4.41-.09-6.44-1.51-4.11-6.68-4.9-10.46-5.51-4.16-.67-8.37-.89-12.54-1.48s-7.97-1.53-11.41-3.73-6.02-5.25-8.98-7.89c-6.29-5.62-14.48-8.72-22.97-7.8-2.07.22-4.09.62-6.06,1.27-3.04,1-1.74,5.83,1.33,4.82,6.96-2.29,14.69-1.35,20.85,2.65,3.24,2.1,5.82,5.05,8.66,7.62,3.02,2.73,6.29,4.91,10.15,6.25,7.43,2.58,15.48,1.94,23.06,3.79,1.08.26,3.2.54,3.68,1.73.53,1.31-.03,3.47-.29,4.82-.66,3.37-1.95,6.57-3.93,9.39-1.8,2.56-4.33,4.74-7.25,5.92-3.95,1.61-8.34,1.64-12.53,1.86-4.67.24-9.35.48-14.02.71-2.05.1-4.44-.12-6.3.9-1.39.76-2.42,2.17-2.78,3.71-.94,4.09,2.64,6.57,5.81,8.21,3.54,1.83,7.53,2.85,11.52,2.76,2.08-.05,4.14-.42,6.14-1,1.82-.53,3.69-1.26,5.62-1.23,1.05.02,2.23.28,2.91,1.07s.65,2.16-.06,3.17c-1.99,2.82-6.37,2.27-9.28,1.76-4.19-.73-8.39-1.54-12.49-2.69-2.03-.57-4.06-1.23-6-2.07-1.75-.76-3.4-1.73-5.26-2.21-1.52-.39-3.11-.52-4.67-.63-.31-.02-.62-.04-.93-.07-.13-.01-.25-.02-.38-.04-.43-.04.34.06-.07,0-.27-.04-.54-.1-.8-.16-.11-.03-.22-.06-.32-.1-.38-.11.49.26-.12-.04-.13-.06-.56-.35-.23-.1-.11-.08-.24-.21-.33-.32.03.04.19.27.01.02-.43-.6-.56-1.13-.74-1.84-.79-3.12-5.62-1.8-4.82,1.33h0Z" style="fill: #f7f6f5;"/>
  <path d="M386.6,78.4c-1.54-1.32-3.37-1.72-5.35-1.35-1.66.31-3.2,1.41-4.08,2.84-1.14,1.85-.95,4.18.02,6.05s2.73,3.14,4.65,3.85c2.15.8,4.55.71,6.81.59,1-.06,2.23-.73,2.41-1.84.3-1.82.59-3.64.89-5.46.11-.68.11-1.31-.25-1.93-.3-.52-.9-1.01-1.49-1.15-1.2-.27-2.85.37-3.08,1.75-.3,1.82-.59,3.64-.89,5.46l2.41-1.84c-1.01.06-2.02.11-3.03.07-.25-.01-.5-.04-.75-.05-.53-.03.49.1-.08,0-.49-.09-.97-.19-1.45-.35-.12-.04-.24-.08-.35-.13.33.14.37.16.14.05-.18-.11-.37-.2-.55-.31-.07-.04-.13-.09-.2-.13-.15-.11-.09-.06.19.15,0,.01-.44-.39-.48-.43-.04-.04-.39-.48-.42-.47.23.3.27.34.11.13-.06-.09-.11-.18-.16-.27-.05-.09-.1-.18-.15-.27-.11-.24-.09-.18.07.17.03-.07-.13-.42-.15-.51-.14-.6-.02.48,0,0,0-.1,0-.2,0-.3.02-.27,0-.2-.04.21.07-.13.09-.36.13-.5.11-.39-.32.6,0,.06s-.33.32-.04.03c.08-.09.16-.17.25-.26.46-.43-.39.23-.04.02.14-.08.27-.17.42-.25.57-.29-.44.13-.04.02.16-.04.31-.1.47-.13.52-.11-.11-.06-.19.01.06-.06.4-.02.48-.02.64.02-.48-.13-.07-.03.15.04.3.08.46.12.39.11-.6-.32-.06,0s-.34-.31-.02-.04c.99.85,2.57,1.05,3.54,0,.86-.93,1.06-2.63,0-3.54h0Z" style="fill: #f7f6f5;"/>
  <path d="M350.65,108.91c6.16,4.28,13.21,7.18,20.58,8.55,1.91.36,3.84.65,5.77.92,2.14.29,4.15-.19,5.37-2.1,2.14-3.33-.02-6.93-2.67-9.12-1.21-1-2.46-2.02-3.85-2.77s-2.91-1.3-4.38-1.91c-1.25-.52-2.75.56-3.08,1.75-.4,1.44.49,2.55,1.75,3.08,2.29.96,4.35,1.96,6.33,3.65.57.49,1.25,1.02,1.59,1.71.22.44.08.57.15.83.17.6-.59-.03.16,0-.4-.02-.79-.05-1.19-.11-1-.15-2-.3-3-.47-7.6-1.27-14.65-3.92-21-8.33-1.11-.77-2.78-.2-3.42.9-.73,1.24-.22,2.65.9,3.42h0Z" style="fill: #f7f6f5;"/>
  <path d="M331.95,116.46c-5.3,9.05-8.53,19.1-9.62,29.52l4.27-1.77c-6.52-8.1-13.04-16.2-19.56-24.31-1.64-2.04-4.77.19-4.18,2.43,1.67,6.34,6.4,10.96,10.98,15.34,2.34,2.24,4.68,4.5,6.67,7.07s3.74,5.45,5.24,8.37c3.1,6.03,5.21,12.51,7.06,19.01.98,3.44,1.9,6.9,2.78,10.37.97,3.84,1.86,7.73,2.03,11.7.34,7.72-2.67,14.7-6.06,21.45-3.58,7.13-7.34,14.17-10.29,21.59-5.68,14.26-8.54,29.68-8.42,45.03.07,9.04,1.35,18,2.73,26.92s2.86,18.37,4.29,27.55c.21,1.34,1.88,2.07,3.08,1.75,1.42-.39,1.95-1.74,1.75-3.08-1.28-8.21-2.56-16.43-3.84-24.64s-2.5-15.88-2.88-23.91c-.72-15.23,1.62-30.52,6.81-44.85,2.67-7.37,6.26-14.33,9.82-21.31,3.51-6.89,7.05-13.92,7.89-21.72.85-7.92-1.52-15.83-3.54-23.4-1.8-6.72-3.76-13.4-6.47-19.81-2.98-7.03-6.96-13.54-12.37-18.98-4.66-4.69-10.66-9.09-12.43-15.79l-4.18,2.43c6.52,8.1,13.04,16.2,19.56,24.31.61.76,1.91.88,2.73.52.98-.43,1.43-1.25,1.54-2.28.99-9.52,4.1-18.75,8.93-27,1.63-2.78-2.69-5.3-4.32-2.52h0Z" style="fill: #f7f6f5;"/>
  <path d="M290.32,225.08c-4.73,16.45-.88,33.52,2.44,49.83,1.72,8.41,3.19,16.82,3.77,25.4s.45,17.61-.42,26.36c-.44,4.43-.93,9.11.81,13.34,1.52,3.71,4.65,7.1,8.8,7.66,1.34.18,2.68-.32,3.08-1.75.32-1.16-.4-2.89-1.75-3.08-7.58-1.02-6.44-11.03-5.91-16.41.83-8.44.99-16.94.45-25.4s-1.81-16.53-3.44-24.69-3.37-15.65-4.34-23.58c-1.08-8.82-1.13-17.77,1.34-26.36.89-3.1-3.93-4.42-4.82-1.33h0Z" style="fill: #f7f6f5;"/>
  <path d="M303.07,345.89c2.61,7.52,5.39,14.98,8.35,22.37.69,1.73,1.32,3.48,2.55,4.92,1.14,1.33,2.74,2.08,4.34,2.7,3.28,1.28,6.86,1.89,10.37,1.89s6.82-.56,10-1.71c2.91-1.05,7.17-2.55,7.81-6.01.75-4.03-3.29-6.62-6.05-8.66-3.15-2.34-6.31-4.67-9.46-7.01-1.4-1.03-2.9-2.08-3.79-3.61s-1.17-3.23-1.42-4.9c-.65-4.35-1.12-8.73-1.67-13.1-.17-1.34-1.03-2.5-2.5-2.5-1.22,0-2.67,1.15-2.5,2.5.47,3.71.94,7.43,1.41,11.14.4,3.19.7,6.54,2.36,9.38s4.57,4.65,7.16,6.57c2.89,2.14,5.78,4.28,8.68,6.42.62.46,2.87,1.81,2.84,2.74,0,.12.06-.1.01.11-.09.36-1.42.85-1.77,1.04-2.59,1.32-5.52,2.18-8.42,2.46s-6.05.1-8.98-.68c-1.21-.32-2.46-.69-3.57-1.28-1.35-.72-1.85-1.93-2.4-3.29-3.03-7.53-5.87-15.15-8.53-22.82-.44-1.28-1.71-2.12-3.08-1.75-1.24.34-2.19,1.79-1.75,3.08h0Z" style="fill: #f7f6f5;"/>
  <path d="M260.73,299.56c8.41-8.97,19.66-14.78,31.82-16.56,1.34-.2,2.07-1.89,1.75-3.08-.39-1.43-1.73-1.94-3.08-1.75-12.93,1.89-25.1,8.32-34.03,17.85-2.2,2.35,1.33,5.89,3.54,3.54h0Z" style="fill: #f7f6f5;"/>
  <path d="M138.28,323.34c1.19-19.51,5.9-39.75,18.53-55.19,3.24-3.96,6.93-7.58,11.06-10.6,1.09-.8,1.63-2.17.9-3.42-.63-1.07-2.32-1.7-3.42-.9-16.69,12.2-26.04,31.5-29.82,51.44-1.17,6.16-1.87,12.41-2.25,18.67-.2,3.21,4.8,3.2,5,0h0Z" style="fill: #f7f6f5;"/>
  <path d="M141.62,341.12c3.39,2.12,6.53,4.56,9.39,7.36s5.04,5.69,7.45,8.67c2.16,2.67,4.57,5.37,7.61,7.05,3.29,1.81,7.04,2.11,10.5.6s5.87-4.38,8.35-7.02c2.62-2.79,5.52-5.27,8.67-7.44,6.51-4.49,13.72-7.83,20.93-11.01,13.95-6.15,28.91-12.29,38.55-24.69,8.05-10.35,11.27-26.52,3.44-37.94-4.32-6.3-11.3-9.8-18.66-11.23-8.57-1.67-17.28-.8-25.93-1.39-2.19-.15-4.34-.41-6.49-.85l-.66,4.91c9.79.59,19.57,1.18,29.36,1.77,1.08.07,2.13-.82,2.41-1.84.32-1.16-.25-2.14-1.15-2.82-5.18-3.94-10.81-7.22-16.79-9.78-1.15-.49-2.42-.44-3.23.64-.75,1.01-.68,2.36.2,3.28,4.1,4.35,10.06,5.68,15.69,6.82,5.24,1.06,10.79,1.96,14.17,6.27.83,1.06,2.66.87,3.54,0,1.05-1.05.84-2.47,0-3.54-3.64-4.65-9.6-6.17-15.11-7.3-5.22-1.07-11.03-1.84-14.75-5.79l-3.03,3.93c5.98,2.56,11.61,5.84,16.79,9.78l1.26-4.66c-9.79-.59-19.57-1.18-29.36-1.77-2.79-.17-3.44,4.35-.66,4.91,8.64,1.75,17.4.9,26.13,1.46,6.77.44,14.14,1.94,19.28,6.68,9.09,8.37,7.59,23.1,1.5,32.75-7.69,12.18-21.95,18.59-34.63,24.15-6.93,3.03-13.91,6.01-20.44,9.84-3.32,1.94-6.5,4.12-9.48,6.57-2.8,2.3-5.16,4.97-7.7,7.54-2.03,2.05-4.55,4.12-7.57,3.75s-5.2-2.62-7.05-4.64c-2.32-2.53-4.26-5.36-6.52-7.94-2.63-3.01-5.58-5.69-8.75-8.12-1.53-1.17-3.11-2.26-4.74-3.27-2.74-1.71-5.25,2.62-2.52,4.32h0Z" style="fill: #f7f6f5;"/>
  <path d="M261.53,293.53c.74,10.12.04,20.3-2.21,30.19-.56,2.47-1.21,4.91-1.95,7.33s-1.06,4.69.89,6.54c1.29,1.22,3.18,1.41,4.5,2.46,1.17.94,1.63,2.44,1.91,3.91.4,2.02.3,4.11.25,6.16-.07,3.03-.13,6.05-.2,9.08-.07,3.22,4.93,3.22,5,0,.1-4.64.56-9.42.12-14.05-.37-3.88-1.65-8.02-5.39-9.9-.74-.37-1.54-.61-2.27-.99-.11-.06-.55-.43-.49-.25-.01-.04.16-.58.22-.76.71-2.42,1.42-4.82,2-7.28,1.18-4.98,1.98-10.06,2.45-15.16.53-5.75.56-11.53.15-17.29-.1-1.35-1.08-2.5-2.5-2.5-1.28,0-2.6,1.15-2.5,2.5h0Z" style="fill: #f7f6f5;"/>
  <path d="M294.66,354.91c-3.43-1.03-7.56-2.23-9.84-5.21-1.32-1.73-1.44-3.86-1.43-5.95,0-2.76.09-5.52.17-8.27.34-11.35,1.1-22.68,2.26-33.98.65-6.32,1.44-12.64,2.35-18.93.19-1.33-.33-2.69-1.75-3.08-1.18-.32-2.88.4-3.08,1.75-1.76,12.11-3.09,24.28-3.92,36.49-.41,5.99-.7,11.99-.88,17.99-.09,2.96-.22,5.93-.16,8.89.05,2.55.49,5.15,1.92,7.32,2.91,4.43,8.17,6.34,13.02,7.79,3.09.93,4.41-3.9,1.33-4.82h0Z" style="fill: #f7f6f5;"/>
  <path d="M337.21,75.62c2.76-2.38,5.52-4.75,8.28-7.13l-4.18-1.1c.09.39.17.77.23,1.16l-.09-.66c.15,1.08.14,2.17,0,3.25l.09-.66c-.12.83-.33,1.65-.62,2.44-.21.58-.05,1.41.25,1.93s.9,1.01,1.49,1.15c1.41.32,2.59-.43,3.08-1.75.95-2.61,1.04-5.5.39-8.19-.2-.84-.93-1.52-1.75-1.75-.91-.25-1.74.05-2.43.64-2.76,2.38-5.52,4.75-8.28,7.13-.99.86-.94,2.67,0,3.54,1.06.97,2.47.91,3.54,0h0Z" style="fill: #f7f6f5;"/>
  <path d="M274.98,373.83c4.65.01,9.3.03,13.95.04,3.47,0,7.27.33,10.45-1.33,3.66-1.92,4.25-6.14,2.8-9.7s-4.13-6.69-7.5-8.76c-2.75-1.69-5.27,2.64-2.52,4.32,2.33,1.43,4.27,3.54,5.32,6.08.37.88.8,2.28.27,3.04-.49.73-1.49.96-2.4,1.15-2.83.58-6.03.2-8.92.19l-11.46-.03c-3.22,0-3.22,4.99,0,5h0Z" style="fill: #f7f6f5;"/>
  <path d="M184.08,353.79c-.03.73-.21,1.35-.63,2.06-.45.76-.91,1.26-1.75,2.03-1.63,1.51-3.23,2.55-5.04,3.99s-3.49,3.03-4.52,5.06c-1.43,2.83-1.72,6.52,1.14,8.56,2.63,1.88,6.56,1.42,9.61,1.54,3.97.15,7.95.29,11.92.42,7.78.25,15.57.46,23.36.64,15.41.34,30.82.52,46.23.55,3.47,0,7.52.26,9.14-3.53.61-1.44.71-3.02.85-4.56s.25-3.2.11-4.8c-.27-3.14-1.31-6.21-3.69-8.39-2.15-1.97-4.95-3.04-7.79-3.5-3.43-.55-6.88-.45-10.34-.39-4.31.07-8.63.15-12.94.22-8.79.15-17.58.3-26.37.44l2.41,1.84c-.46-2.17,1.08-4.33,2.4-5.89,1.94-2.3,4.07-4.46,6.12-6.66,4.3-4.63,8.6-9.26,12.9-13.9,2.19-2.36-1.34-5.9-3.54-3.54-4.75,5.12-9.51,10.24-14.26,15.36-4.05,4.36-9.87,9.33-8.45,15.96.22,1.05,1.36,1.85,2.41,1.84,14.33-.24,28.66-.61,42.99-.72,4.16-.03,9.92.02,12.25,4.16,1.32,2.35,1.02,5.41.78,7.98-.06.69,0,2.15-.44,2.7-.66.81-2.93.39-3.81.39-28.67-.04-57.34-.62-85.99-1.75-.63-.02-2.69.13-3.09-.55-.2-.33.05-.95.15-1.28.18-.57.13-.46.49-1.06.85-1.45,2.72-3.02,4.1-4.07,3.81-2.9,8.07-5.88,8.26-11.14.12-3.22-4.88-3.21-5,0h0Z" style="fill: #f7f6f5;"/>
  <path d="M142,344.05l4.14,11.67c.16.46.29.96.5,1.4.19.39.06.54.22.16-.28.64-1.08,1.31-1.51,1.88-1.11,1.44-2.06,2.99-2.6,4.73-.97,3.15-.19,6.94,2.53,8.97,1.55,1.15,3.43,1.43,5.31,1.53,2.03.11,4.06.18,6.09.26,4.7.2,9.39.4,14.09.61,3.22.14,3.21-4.86,0-5-4.94-.21-9.89-.42-14.83-.64-2.18-.09-4.57.07-6.71-.38-1.27-.26-1.84-1.23-1.88-2.48-.11-4.07,5.21-6.09,4.33-10.24-.48-2.29-1.59-4.59-2.37-6.8l-2.48-7c-.45-1.27-1.71-2.12-3.08-1.75-1.23.34-2.2,1.8-1.75,3.08h0Z" style="fill: #f7f6f5;"/>
  <path d="M55.03,233.96c-4.1,11.38-6.41,23.47-7.55,35.49-1.3,13.76-.94,28.12,3.08,41.44,1.79,5.91,4.26,12.15,8.32,16.89s9.47,7.97,14.94,10.51c13.47,6.26,29.15,9.11,43.93,7.32,4.6-.56,9.4-1.48,12.33-5.4,1.13-1.51,1.85-3.26,2.57-4.99.2-.47.39-.94.59-1.4.05-.11.27-.63.11-.27.15-.34.29-.68.44-1.02.53-1.21,1.09-2.4,1.69-3.57.76-1.48,1.58-2.93,2.45-4.36,1.68-2.75-2.64-5.27-4.32-2.52-1.54,2.51-2.9,5.12-4.08,7.81-.48,1.1-.94,2.21-1.41,3.32-.07.16-.31.73-.12.28-.08.18-.16.37-.24.55-.19.43-.38.86-.59,1.29-.35.72-.75,1.38-1.18,2.05-.26.41.1-.1,0,0-.12.14-.24.28-.36.41-.25.27-.53.52-.81.76.53-.45-.38.23-.6.36-.16.09-.31.17-.47.25-.19.09-.76.33-.27.14-.99.39-2.02.67-3.06.88-6.41,1.34-13.53,1.17-20.14.41-7-.81-13.96-2.57-20.52-5.14-5.47-2.15-10.98-5.04-15.25-9.01-2.01-1.87-3.17-3.41-4.5-5.79-1.46-2.61-2.68-5.33-3.67-8.15-4.39-12.41-5.07-25.9-4.2-38.93.79-11.8,2.92-23.63,6.55-34.9.37-1.14.75-2.26,1.16-3.39.46-1.27-.52-2.74-1.75-3.08-1.39-.38-2.62.47-3.08,1.75h0Z" style="fill: #f7f6f5;"/>
  <path d="M55.68,232.86c-.47.43-.83,1.12-1.17,1.66-.61.99-1.19,1.99-1.77,2.99-1.81,3.13-3.56,6.29-5.27,9.47-4.02,7.45-7.95,14.99-11.11,22.85-1.62,4.04-3.17,7.87-3.71,12.21-.22,1.78-.39,3.55-.33,5.34.16,5.16,1.34,10.32,2.63,15.3,1.14,4.38,2.47,8.7,3.89,12.99,1.7,5.12,3.28,10.45,5.67,15.29,1.92,3.89,4.69,7.3,7.8,10.3,1.99,1.91,4.11,3.69,6.26,5.4,1.49,1.18,2.96,2.44,4.6,3.42,5.51,3.29,12.05,5.15,18.19,6.83,7.83,2.14,15.83,3.74,23.9,4.65,3.39.38,6.82.64,10.23.55,2.64-.07,5.44-.27,7.93-1.21,1.87-.71,3.6-1.79,5.33-2.76,1.83-1.02,3.66-2.09,5.37-3.3,3.31-2.34,6.18-5.22,8.03-8.87,1.07-2.11,1.84-4.35,2.4-6.63.77-3.12-4.05-4.46-4.82-1.33-.95,3.82-2.49,7.32-5.16,10s-6.11,4.59-9.56,6.48c-.92.5-1.83,1-2.75,1.49-.59.32.17-.02-.1.06s-.52.19-.78.27c-.5.16-1.02.28-1.53.38-.27.05-.54.09-.8.14-.15.03-.6.08,0,0-.19.02-.39.05-.58.07-3.02.32-6.09.23-9.12.02-7.46-.53-14.78-1.9-22.22-3.71-3.62-.88-7.21-1.87-10.74-3.02-1.52-.49-3.04-1.02-4.53-1.59-.68-.26-1.35-.53-2.02-.8-.4-.16.53.23-.1-.04-.13-.06-.26-.11-.39-.17-.37-.16-.74-.33-1.11-.51-2.93-1.38-5.35-3.3-7.85-5.36-3.36-2.77-6.78-5.82-9.23-9.35-2.62-3.77-3.97-7.86-5.49-12.17-1.67-4.75-3.25-9.53-4.66-14.37-.97-3.33-1.85-6.68-2.56-10.08-.27-1.29-.51-2.58-.71-3.88-.04-.25-.07-.51-.11-.76-.09-.62.05.5-.03-.21-.06-.49-.11-.97-.16-1.46-.39-4.31.02-8.44,1.45-12.48,2.72-7.74,6.26-14.89,10.15-22.34,3.09-5.92,6.25-11.86,9.75-17.55.16-.26.33-.52.49-.78.35-.57.01,0-.08.08,2.39-2.17-1.16-5.7-3.54-3.54h0Z" style="fill: #f7f6f5;"/>
  <path d="M315.57,114.19c-.23,10.23,2.99,20.48,9.13,28.67.81,1.08,2.16,1.63,3.42.9,1.06-.62,1.71-2.33.9-3.42-5.66-7.55-8.66-16.71-8.45-26.15.07-3.22-4.93-3.22-5,0h0Z" style="fill: #f7f6f5;"/>
  <path d="M295.95,78.85c-1.51-1-3.41-2.37-3.84-3.92-.1-.35-.1-.55-.04-.87.09-.46.33-.85.57-1.25.59-.98,1.28-1.87,2.05-2.71,3.25-3.55,7.5-5.93,11.64-8.27,2.8-1.58.28-5.9-2.52-4.32-5.08,2.87-10.3,5.92-13.95,10.59-1.92,2.46-3.56,5.37-2.44,8.56,1.01,2.89,3.54,4.87,6,6.51,1.13.75,2.77.22,3.42-.9.72-1.22.23-2.67-.9-3.42h0Z" style="fill: #f7f6f5;"/>
  <path d="M288.64,364.9c1.02-.04,2.08-.15,3.1-.02l-.66-.09c.19.03.36.08.54.15l-.6-.25c.12.05.23.12.34.18.16.11.14.1-.05-.04-.18-.15-.2-.15-.06-.03.09.1.18.19.27.28.12.14.36.52-.06-.1.3.44.63.85.94,1.29.63.9,1.22,1.83,1.65,2.83l-.25-.6c.26.63.46,1.28.56,1.96l-.09-.66c.03.23.05.46.05.69.05,1.31,1.12,2.56,2.5,2.5s2.55-1.1,2.5-2.5c-.1-2.71-1.37-5.06-2.93-7.2-.96-1.31-1.86-2.6-3.45-3.17-1.32-.48-2.92-.27-4.3-.22-1.31.05-2.56,1.11-2.5,2.5.06,1.31,1.1,2.55,2.5,2.5h0Z" style="fill: #f7f6f5;"/>
  <path d="M331.29,367.18l.13-.02-.66.09c.44-.05.88-.04,1.33.01l-.66-.09c.37.05.74.14,1.1.26.08.03.17.06.25.09.29.1-.49-.24-.23-.09.16.08.32.16.48.25.18.1.35.21.52.32.05.04.19.1.22.16-.02-.04-.45-.37-.19-.14.29.26.56.52.81.81.06.07.26.33.02.01s-.04-.04.01.03c.11.16.21.32.31.48s.19.33.27.5c.05.11.1.21.15.32.15.32-.04-.15-.09-.2.1.11.15.39.19.54.06.18.11.36.16.55.11.42.19.84.25,1.27l-.09-.66c.08.62.12,1.24.12,1.86,0,1.31,1.16,2.56,2.5,2.5s2.49-1.1,2.5-2.5c.02-2.97-.82-5.88-2.74-8.18-.82-.98-1.91-1.8-3.08-2.31-.7-.31-1.38-.56-2.14-.68-.99-.15-1.8-.13-2.79,0-.57.08-1.22.68-1.49,1.15-.31.54-.45,1.33-.25,1.93s.57,1.19,1.15,1.49c.64.34,1.22.35,1.93.25h0Z" style="fill: #f7f6f5;"/>
  <path d="M258.09,365.98c.17.02.43,0,.6.06l-.27-.03c.13.02.26.04.4.07.33.06.66.13.98.22.39.1.77.22,1.15.36.06.02.59.23.26.09s.19.09.25.12c.36.17.71.36,1.05.57.14.09.28.18.42.27.21.14.32.23.06.02.3.24.59.49.86.77.11.11.22.23.33.35.05.05.46.53.23.26s.1.15.14.21c.11.16.21.32.31.48.18.3.33.61.49.92.14.27-.15-.43,0,.02.06.18.12.36.18.54s.1.37.14.55c.02.08.11.62.05.23s0,.15.01.23c.01.2,0,.39,0,.59,0,.51.14-.4-.04.12l.1-.26c-.12.19-.12.19,0,.03.27-.34-.1.13-.15.12.26-.19.31-.23.16-.13-.07.05-.15.1-.22.14-.3.18-.63.34-.95.48-1.19.55-1.58,2.36-.9,3.42.79,1.23,2.15,1.49,3.42.9.88-.41,1.74-.91,2.38-1.65.87-1.01,1.24-2.26,1.2-3.58-.07-2.03-.74-4.09-1.92-5.76-2.51-3.57-6.46-5.34-10.72-5.72-1.31-.12-2.56,1.23-2.5,2.5.07,1.45,1.1,2.38,2.5,2.5h0Z" style="fill: #f7f6f5;"/>
  <path d="M306.51,54.99c-1.89,1.12-3.24,3.03-4.54,4.75s-2.46,3.82-2.91,6.04-.4,4.62.25,6.87c.59,2.03,1.68,3.99,1.59,6.15-.06,1.35,1.19,2.5,2.5,2.5,1.41,0,2.44-1.15,2.5-2.5.18-3.93-2.63-7.3-2.09-11.24.23-1.69.97-3.16,1.94-4.54.88-1.25,1.97-2.92,3.29-3.7,2.77-1.64.25-5.96-2.52-4.32h0Z" style="fill: #f7f6f5;"/>
</svg>