<?xml version="1.0" encoding="UTF-8"?>
<svg id="Lag_1" data-name="Lag 1" xmlns="http://www.w3.org/2000/svg" width="152.13mm" height="152.13mm" viewBox="0 0 431.24 431.24">
  <rect x="3.5" y="3.5" width="424.24" height="424.24" rx="66.26" ry="66.26" style="fill: #60857b; stroke: #f38f1a; stroke-miterlimit: 10; stroke-width: 7px;"/>
  <path d="M49.24,348.37c-7.68-16.07-3.74-35.37,3.22-50.96,1.81-4.05,3.94-8.02,7.13-11.17,2.78-2.75,6.22-4.84,9.93-6.07,7.54-2.5,15.61-1.32,22.21,3.07,7.13,4.74,10.58,12.51,11.86,20.74.68,4.41.85,9.04.47,13.48s-1.6,8.66-4.17,12.23c-2.16,3-5.27,5.18-8.92,5.88-4.22.81-8.65-.43-12.76-1.28-2.34-.49-4.69-.92-7.08-1.11-2.15-.17-4.38.29-6.51.01-3.78-.51-6.01-5.19-6.54-8.52-1.11-7.03,4.97-14.81,12.47-13.94,1.59.18,3.15.92,3.87,2.4.67,1.38.39,2.56-.77,3.56-1.54,1.33-3.45,2.56-5.3,3.39-1.51.68-3.3,1.12-4.85.34-1.1-.55-2.11-1.61-1.83-2.76.25-.98-.14-2.36-1.15-2.82-2.68-1.22-5.06.27-6.06,2.88-.93,2.44-.18,5.33.55,7.73.96,3.16,3.75,9.15.19,11.76-1.3.95-3.18,1.28-4.74,1.84-2.04.73-3.99,1.74-5.2,3.62-2.8,4.37.29,9.89,4.59,11.77,4.82,2.1,10.74,1.12,15.79.45,5.3-.7,10.54-1.8,15.66-3.36,10.07-3.07,19.47-7.81,28.1-13.82,8.12-5.66,15.8-12.1,24.72-16.52,2.14-1.06,4.33-1.97,6.6-2.7,2.46-.8,4.99-1.39,7.39-2.38,5.16-2.12,8.6-6.17,12.2-10.25,7.21-8.17,14.37-16.48,20.25-25.68s9.45-19.05,17.14-26.59c3.89-3.81,8.19-7.19,12.21-10.87s7.97-7.62,11.71-11.67c1.87-2.02,3.7-4.09,5.48-6.19s3.96-4.18,4.11-7.07c.13-2.59-.91-5.41-1.73-7.83-.87-2.55-1.92-5.05-3.15-7.44s-2.58-4.58-4.11-6.71c-.79-1.1-2.18-1.62-3.42-.9-1.08.63-1.69,2.32-.9,3.42,2.85,3.98,5.18,8.32,6.75,12.96.37,1.1.71,2.22,1.01,3.35.26.97.8,2.31.49,3.31-.27.86-1.13,1.65-1.7,2.32-.89,1.06-1.78,2.1-2.69,3.14-6.8,7.79-14.24,14.9-22.08,21.64-3.93,3.38-7.7,6.86-10.8,11.03-2.94,3.95-5.21,8.34-7.52,12.67-4.8,9-10.63,17.2-17.19,25-3.29,3.91-6.66,7.76-10.07,11.57-1.58,1.77-3.23,3.56-5.25,4.84s-4.29,1.96-6.57,2.63c-4.54,1.33-8.89,3.03-13.05,5.31s-7.96,4.89-11.75,7.62c-7.73,5.57-15.25,11.36-23.84,15.59s-18.46,7.29-28.24,8.61c-2.38.32-4.78.54-7.19.66-2.18.11-4.6.2-6.61-.81-1.28-.64-2.5-2.03-2.41-3.53.08-1.29,1.29-1.91,2.43-2.33,1.81-.66,3.71-1.1,5.42-2.02,1.98-1.06,3.39-2.77,4.16-4.86,1.67-4.51-.27-9.03-1.52-13.34-.33-1.14-.64-2.31-.66-3.5,0-.36.12-.54.13-.84,0-.08.14-.38.16-.27h0c-.36.29-.8.31-1.33.07l-1.15-2.82c-1.29,5.17,3.65,9.67,8.63,9.5,2.66-.09,5.17-1.16,7.41-2.54s4.73-2.86,5.97-5.1c2.59-4.68-.6-10.12-5.22-11.83s-10.03-.11-13.81,2.77-6.41,7.39-6.84,12.34,1.45,10.2,5.02,13.64c2,1.92,4.45,3.03,7.23,3.11,2.55.07,5.01-.22,7.55.15,5.3.75,10.5,2.57,15.91,2.43,10.76-.28,17.97-9.26,19.78-19.26.98-5.43.88-11.06.21-16.52s-1.92-10.52-4.47-15.25c-4.58-8.48-13.31-14.39-22.84-15.66s-19.75,2.42-26.3,9.58c-3.75,4.1-6.14,9.12-8.26,14.2-1.98,4.77-3.62,9.68-4.79,14.71-2.35,10.14-2.91,20.95.04,31.03.73,2.5,1.69,4.92,2.81,7.27.58,1.22,2.32,1.54,3.42.9,1.25-.73,1.48-2.2.9-3.42h0Z" style="fill: #fff;"/>
  <path d="M223.12,196.97c.88-7.02-6.34-11.84-11.46-15.08-3.09-1.96-6.5-3.73-10.16-4.26s-7.16.25-10.22,2.31c-2.66,1.78-4.84,4.2-7.56,5.88-3.02,1.86-6.51,2.7-9.94,3.46-7.06,1.56-14.14,3.05-21.16,4.78-13.86,3.42-27.64,7.72-40.27,14.49-6.62,3.55-12.76,7.85-18.52,12.68-2.98,2.5-5.85,5.11-8.68,7.77s-5.4,5.15-7.73,8.06c-5.55,6.9-8.75,15.44-12.46,23.4-3.9,8.39-7.81,16.79-11.71,25.18-.57,1.22-.34,2.69.9,3.42,1.08.63,2.85.33,3.42-.9,3.35-7.19,6.69-14.39,10.04-21.58,1.67-3.6,3.35-7.19,5.02-10.79,1.58-3.39,3.09-6.82,4.93-10.08,3.56-6.3,8.91-11.19,14.21-16.02s10.99-9.52,17.17-13.38c11.66-7.28,24.66-11.96,37.87-15.57,6.57-1.79,13.2-3.33,19.85-4.79,6.64-1.46,14.14-2.26,19.95-6.03,2.88-1.87,5.17-4.53,8.15-6.24s6.52-1.37,9.71,0c3.35,1.43,6.67,3.6,9.47,5.92,2.3,1.9,4.59,4.21,4.19,7.41-.17,1.34,1.27,2.5,2.5,2.5,1.49,0,2.33-1.15,2.5-2.5h0Z" style="fill: #fff;"/>
  <path d="M143.75,319.72c26.17-5.43,53.3,2.08,79.35-4.66,9.87-2.55,26.27-8.45,23.27-21.64-1.29-5.65-5.86-10.1-10.8-12.77-5.5-2.97-11.62-4.53-16.93-7.91-2.96-1.89-5.79-3.93-9.03-5.32s-6.47-2.18-9.91-2.56c-6.66-.72-13.49.66-19.39,3.81-2.84,1.52-.32,5.83,2.52,4.32,4.74-2.53,10.1-3.58,15.45-3.25,5.63.36,10.55,2.49,15.19,5.57,2.48,1.65,4.95,3.24,7.67,4.48s5.35,2.2,8.01,3.33c4.71,2,9.43,4.66,11.68,9.49.93,1.99,1.22,4.22.48,6.31s-2.44,3.73-4.22,4.95c-4.59,3.16-10.16,5.05-15.52,6.42-11.47,2.93-23.42,3.02-35.18,2.74-14.68-.34-29.47-1.15-43.95,1.86-1.32.27-2.09,1.83-1.75,3.08.38,1.37,1.75,2.02,3.08,1.75h0Z" style="fill: #fff;"/>
  <path d="M197.67,257.17c3.87-.97,7.89,1.07,11.47,2.32,4.08,1.43,8.23,2.63,12.44,3.61,7.6,1.77,15.63,2.84,23.33,1.1,3.61-.82,7.47-2.27,10.19-4.86s3.74-6.85,1.33-10.13c-1.13-1.54-2.68-2.7-4.41-3.49s-3.78-1.35-5.51-2.34c-2.95-1.69-4.88-4.73-7.22-7.11-5.77-5.86-14.64-8.11-22.51-5.71-3.07.94-1.76,5.76,1.33,4.82,5.74-1.75,12.34-.48,16.81,3.62,2.29,2.09,4.05,4.7,6.39,6.74,1.3,1.13,2.69,2.05,4.27,2.73,1.71.74,3.56,1.24,5.17,2.21.88.53,1.91,1.35,2.12,2.42.25,1.29-.94,2.49-1.87,3.2-2.43,1.86-5.68,2.78-8.64,3.32-6.75,1.23-13.8.02-20.38-1.57-4.36-1.05-8.65-2.35-12.87-3.87s-8.34-2.94-12.77-1.84c-3.12.78-1.8,5.6,1.33,4.82h0Z" style="fill: #fff;"/>
  <path d="M79,240.82c-5.32-18.06-15.01-34.39-21.28-52.09-3.18-8.98-5.85-18.68-5.31-28.29.29-5.18,1.8-10.24,3.03-15.26.64-2.63,1.29-5.25,1.93-7.88.43-1.75.64-4.13,2.24-5.24s3.89-1.32,5.76-1.53c2.47-.28,4.97-.33,7.45-.21,4.88.23,9.69,1.13,14.46,2.18s9.79,2.35,14.72,3.35,10.27,1.66,15.49,2.01c9.26.62,19.21.93,27.08,6.49,1.76,1.24,3.15,2.87,4.67,4.37,1.76,1.73,3.7,3.01,6.02,3.87,4.12,1.52,8.62,1.59,12.77,3.05,3.92,1.38,7.6,3.6,10.66,6.4s5.99,5.99,5.31,10.4c-1.18,7.74-8.35,14.13-15.52,16.42-1.8.57-3.63.94-5.51,1.05-3.2.2-3.22,5.2,0,5,8.99-.56,17.32-5.36,22.33-12.85,2.66-3.97,4.48-8.95,3.54-13.76s-4.88-8.53-8.45-11.35c-3.75-2.97-7.97-5.25-12.56-6.63-4.2-1.27-9.19-1.06-13-3.43-2.01-1.25-3.44-3.26-5.18-4.82s-3.76-2.95-5.88-4.03c-4.35-2.22-9.1-3.45-13.92-4.11-5.57-.77-11.18-.89-16.77-1.41-5.29-.49-10.49-1.59-15.66-2.79-10.17-2.37-20.61-5.23-31.16-4.29-5.02.45-10.54,1.35-12.62,6.59-.98,2.46-1.42,5.19-2.05,7.76-.66,2.71-1.33,5.41-1.99,8.12-1.32,5.38-2.43,10.76-2.26,16.33s1.14,10.61,2.44,15.75c4.91,19.31,15.41,36.51,22.08,55.17.82,2.31,1.59,4.64,2.28,6.99.91,3.08,5.73,1.77,4.82-1.33h0Z" style="fill: #fff;"/>
  <path d="M202.15,178.61c1.49-10.18,9.31-18.01,15.53-25.67,7.07-8.7,13.99-17.51,20.9-26.33,13.91-17.76,27.74-35.59,42.44-52.71,3.7-4.3,7.45-8.56,11.27-12.76,3.61-3.96,7.19-8.02,11.16-11.63,1.78-1.62,3.66-3.1,5.74-4.32,1.67-.98,3.86-2.14,5.69-2.23.71-.04,1.25.11,1.52.21.19.07.03.02.03.16-.02.62-.25,1.26-.41,1.87-.69,2.66-1.48,5.29-2.33,7.9-3.47,10.61-8,20.84-11.58,31.41-1.78,5.25-3.23,10.57-4.37,15.99s-2.25,10.44-4.57,15.31c-4.07,8.57-10.44,17.3-9.32,27.29.32,2.82,1.28,5.5,1.66,8.3s-.5,5.32.14,7.96c1.19,4.89,6.79,7.83,10.85,10.03,2.44,1.32,4.97,2.44,7.55,3.44,1.26.48,2.74-.54,3.08-1.75.39-1.41-.48-2.59-1.75-3.08-2.6-1-5.12-2.21-7.54-3.59-2.06-1.18-4.26-2.41-5.95-4.09-.65-.65-1.22-1.38-1.42-2.29-.28-1.28.03-2.69.12-3.97.18-2.84-.57-5.61-1.21-8.35-1.13-4.83-.45-9.27,1.38-13.84s4.37-8.64,6.48-12.99c2.47-5.1,3.93-10.37,5.09-15.9,1.16-5.51,2.54-10.93,4.32-16.28,3.57-10.74,8.18-21.1,11.73-31.84.86-2.61,1.66-5.24,2.36-7.9s1.3-5.54-1.04-7.53c-3.8-3.24-9.58-.61-13.2,1.55-4.4,2.63-8.08,6.29-11.58,9.99-3.94,4.17-7.8,8.41-11.6,12.71-15.2,17.19-29.38,35.25-43.51,53.32-7.05,9.01-14.09,18.03-21.25,26.95-3.51,4.37-7.1,8.68-10.61,13.05-3.24,4.04-6.4,8.24-8.47,13.02-1.01,2.34-1.77,4.73-2.14,7.25-.2,1.33.33,2.69,1.75,3.08,1.18.32,2.88-.4,3.08-1.75h0Z" style="fill: #fff;"/>
  <path d="M229.15,222.8c5.41-.46,10.81.13,16.18.81,4.96.63,9.91,1.23,14.89,1.66,9.78.85,19.61,1.21,29.43.87,19.49-.67,38.94-4.14,56.91-11.88,9.23-3.98,17.62-9.76,27.13-13.08s20.06-4.82,29.14-9.55c4.19-2.19,8.16-6.25,7.86-11.34-.26-4.31-3.36-7.35-7.14-8.99-4.29-1.85-9.07-2.46-13.66-3.14-5.42-.81-10.88-1.37-16.36-1.66-10.69-.56-21.33.04-31.93,1.42-10,1.31-20.39,3.15-30.47,1.51-2.47-.4-4.89-1.01-7.25-1.83-1.28-.44-2.73.51-3.08,1.75-.38,1.38.47,2.63,1.75,3.08,9.52,3.31,19.72,2.89,29.59,1.73,10.17-1.19,20.21-2.71,30.47-2.85s20.76.67,30.97,2.51c3.44.62,7.66,1.15,10.4,3.5,2.88,2.47,1.61,6.25-1.19,8.46-1.71,1.36-3.83,2.24-5.85,3.03-2.28.89-4.61,1.66-6.95,2.37-4.77,1.44-9.61,2.63-14.37,4.11s-9.52,3.42-14.03,5.74-8.6,4.71-13.02,6.84c-16.8,8.07-35.38,11.93-53.9,13.04-9.43.56-18.9.45-28.33-.16-4.75-.31-9.48-.74-14.21-1.28-5.09-.58-10.15-1.4-15.27-1.71-2.58-.16-5.16-.16-7.73.06-1.35.11-2.5,1.07-2.5,2.5,0,1.26,1.15,2.61,2.5,2.5h0Z" style="fill: #fff;"/>
  <path d="M216.66,188.25c-1.69-9.08,4.02-18.3,9.34-25.17s12.42-13.28,19.52-18.89c4.02-3.17,8.17-6.19,12.31-9.2,1.09-.79,1.63-2.17.9-3.42-.63-1.08-2.32-1.7-3.42-.9-7.89,5.74-15.81,11.52-22.96,18.19-7.05,6.59-13.67,14.27-17.72,23.11-2.55,5.56-3.92,11.5-2.79,17.6.25,1.33,1.85,2.08,3.08,1.75,1.39-.38,1.99-1.74,1.75-3.08h0Z" style="fill: #fff;"/>
  <path d="M219.43,190.16c9.03-.09,17.67-3.13,24.88-8.54,3.53-2.64,6.76-5.63,9.97-8.65,3.57-3.36,7.14-6.72,10.71-10.08,2.35-2.21-1.19-5.74-3.54-3.54-3.33,3.14-6.66,6.27-10,9.41-3.02,2.84-6.02,5.74-9.31,8.27-6.59,5.07-14.36,8.04-22.71,8.12-3.22.03-3.22,5.03,0,5h0Z" style="fill: #fff;"/>
  <path d="M219.91,197c11.52,5.43,23.84,8.8,36.42,10.63,6.2.9,12.45,1.49,18.71,1.8s12.59.47,18.86.01c7.12-.52,14.08-1.9,20.6-4.86,1.23-.56,1.53-2.34.9-3.42-.74-1.26-2.19-1.46-3.42-.9-10.83,4.92-23.26,4.73-34.9,4.25s-24.11-1.92-35.79-5.03c-6.47-1.72-12.8-3.95-18.86-6.8-1.22-.58-2.7-.34-3.42.9-.64,1.09-.33,2.84.9,3.42h0Z" style="fill: #fff;"/>
  <path d="M86.93,227.72c-1.57-8.63-3.1-17.26-4.7-25.88-1.3-7-4.2-15.48-12.23-16.99-1.33-.25-2.7.37-3.08,1.75-.33,1.22.41,2.83,1.75,3.08,6.89,1.29,8.05,9.7,9.08,15.36,1.45,8.01,2.91,16.01,4.36,24.02.24,1.33,1.86,2.08,3.08,1.75,1.4-.38,1.99-1.74,1.75-3.08h0Z" style="fill: #fff;"/>
  <path d="M102.37,217.89c5.91-16.51,7.14-35.08-.64-51.2-2.01-4.17-4.65-8.02-7.78-11.43-2.18-2.38-5.71,1.17-3.54,3.54,10.72,11.68,13.53,28.46,10.9,43.7-.83,4.79-2.13,9.49-3.77,14.06-.45,1.27.51,2.74,1.75,3.08,1.39.38,2.62-.47,3.08-1.75h0Z" style="fill: #fff;"/>
  <path d="M124.55,205.26c3.45-1.1,5.69-3.97,7.97-6.61s4.58-5.46,6.47-8.46,3.43-6.3,4.16-9.77c.85-4.06.59-8.15,0-12.22-.68-4.59-1.66-9.15-2.61-13.69-.28-1.32-1.83-2.09-3.08-1.75-1.37.38-2.02,1.75-1.75,3.08.98,4.69,2.05,9.42,2.68,14.17.57,4.31.44,8.51-1.1,12.61-1.34,3.57-3.64,6.83-6.02,9.77-1.31,1.62-2.68,3.2-4.06,4.77-1.13,1.27-2.31,2.76-3.98,3.29-3.06.97-1.75,5.8,1.33,4.82h0Z" style="fill: #fff;"/>
  <path d="M208.85,247.05c.24-.21.7-.31,1.07-.3.66.02,1.14.15,1.72.46,1.64.87,2.98,2.23,4.46,3.33,3.11,2.33,6.85,3.87,10.68,4.48,1.33.21,2.69-.34,3.08-1.75.33-1.19-.4-2.86-1.75-3.08-4.15-.66-7.61-2.44-10.83-5.08-1.64-1.35-3.41-2.72-5.54-3.16-2.34-.49-4.62-.05-6.43,1.55-1.01.9-.91,2.62,0,3.54,1,1,2.52.9,3.54,0h0Z" style="fill: #fff;"/>
  <path d="M166.93,302.77c7.34-2.75,15.29-3.39,22.95-1.66,3.99.9,7.88,2.19,11.87,3.11,4.15.95,8.36,1.63,12.6,2.09,1.34.15,2.5-1.25,2.5-2.5,0-1.47-1.15-2.35-2.5-2.5-4.27-.47-8.51-1.22-12.68-2.25-3.96-.97-7.83-2.28-11.83-3.06-8.08-1.58-16.52-.94-24.24,1.95-1.26.47-2.13,1.69-1.75,3.08.33,1.21,1.8,2.22,3.08,1.75h0Z" style="fill: #fff;"/>
  <path d="M178.01,290.51c8.92-3.52,19.11-3.45,27.87.58,1.23.56,2.69.35,3.42-.9.63-1.08.34-2.85-.9-3.42-9.93-4.57-21.5-5.11-31.72-1.08-1.26.5-2.13,1.67-1.75,3.08.33,1.2,1.81,2.24,3.08,1.75h0Z" style="fill: #fff;"/>
</svg>