<?xml version="1.0" encoding="UTF-8"?>
<svg id="Lag_1" data-name="Lag 1" xmlns="http://www.w3.org/2000/svg" width="152.13mm" height="152.13mm" viewBox="0 0 431.24 431.24">
  <rect x="3.5" y="3.5" width="424.24" height="424.24" rx="66.26" ry="66.26" style="fill: #60857b; stroke: #f38f1a; stroke-miterlimit: 10; stroke-width: 7px;"/>
  <path d="M200.67,79.55c-1.95,3.75-1.98,8.15-.09,11.94s5.63,6.03,9.66,6.54c3.76.47,9.72-.83,9.73-5.61,0-4.19-4.53-7.93-7.85-9.81-1.74-.98-3.59-1.58-5.49-2.15-.67-.2-1.33-.41-1.95-.74-.24-.13-.63-.36-.74-.46-.1-.09-.16-.23-.16-.24.24.2-.06.28.16.26.12-.01.56-.47.68-.56,1.03-.79,2.13-1.51,3.2-2.26,2-1.41,3.99-2.83,5.99-4.24,1.85-1.31,3.69-2.88,5.72-3.9.32-.16.71-.33,1.07-.39.34-.05.66.01.77.03.52.11.75.29,1.17.72,2.2,2.26,2.54,6.59,3.03,9.64.74,4.64,1.22,9.82-.71,14.25-1.53,3.51-4.34,6.34-8.22,6.92l3.16,2.41c.42-4.97-.98-10.11-3.75-14.26-1.43-2.14-3.16-4.01-5.21-5.57-1.89-1.44-3.99-2.39-6.09-3.46-1.63-.83-3.62-1.8-4.36-3.56-.33-.78-.33-1.19-.26-2.04.05-.59.37-1.68.67-2.49,1.39-3.72,4.21-7.39,3.67-11.66-.16-1.28-.57-2.9-1.63-3.72-1.27-.98-3.48-1.19-5.02-1.35-3.36-.35-6.7.38-9.72,1.84-1.04.51-1.35,1.79-1.15,2.82,1.36,7.04,7.97,12.21,14.82,13.39,4.25.74,8.61.26,12.72-1.02,2.07-.64,4.09-1.48,6.05-2.42,1.81-.87,3.96-1.77,5.28-3.33,3.18-3.75-.73-7.77-3.58-10.17-2.54-2.14-5.33-3.96-8.36-5.33-6.07-2.75-12.75-3.99-19.41-3.74-14.1.51-27.06,7.25-35.82,18.27-9.21,11.58-13.77,26.33-14.21,41.02-.12,4-.16,8.4,3.97,10.43,3.61,1.77,8.18,2.15,12.14,2.2,8.65.1,17.06-2.46,24.92-5.87,3.98-1.73,7.84-3.72,11.63-5.83.92-.51,1.84-1.03,2.75-1.56.47-.27,1.37-1.02,1.94-.98-.23-.02-.12-.08-.05.16.12.43.31.84.44,1.27.28.89.5,1.81.66,2.73,1.19,7.01-1.44,14.25-3.35,20.88-2.1,7.26-3.91,14.77-2.39,22.33,1.37,6.82,5.28,12.79,9.41,18.26s8.8,10.85,12.04,17.03c3.76,7.18,5.04,15.35,8.46,22.69,3.07,6.59,8.16,11.76,13.55,16.5,5.07,4.46,10.63,8.72,14.6,14.26,9.38,13.09,5.07,29.77,5.91,44.7.22,3.95.77,7.91,1.88,11.71.61,2.09,3.43,2.43,4.57.6,4.24-6.82,6.65-14.67,7.1-22.68.47-8.22-1.46-16.01-4.69-23.52s-7.34-14.75-8.78-22.95c-.77-4.42-.88-8.94-1.11-13.41s-.7-9.22-1.47-13.79c-1.47-8.79-3.77-17.47-6.1-26.06-2.2-8.11-4.95-16.19-9.77-23.15-4.41-6.36-10.03-11.7-16.13-16.42-3.14-2.44-6.39-4.74-9.69-6.96-1.58-1.07-3.18-2.12-4.78-3.17-1.72-1.13-3.49-2.42-5.55-2.83-3.65-.71-6.7,1.41-8.13,4.67-1.53,3.48-1.57,7.4-1.79,11.13-.51,8.38-.04,16.69,3.19,24.54,5.64,13.7,16.69,24.05,26.59,34.71,10.63,11.46,19.34,24.3,25.54,38.68,3.11,7.21,5.52,14.75,7.26,22.41.85,3.72,1.54,7.48,2.05,11.26.56,4.16.72,8.36,1.29,12.52.61,4.45,2.15,8.39,4.73,12.06,2.38,3.38,4.95,6.62,7.31,10.01,4.78,6.89,9.16,14.06,13.1,21.46s7.34,14.77,10.33,22.45c1.52,3.91,2.93,7.86,4.21,11.85.51,1.57,1.5,3.59,1.01,5.27-.19.63-.78,1.13-1.56,1.37-2.4.76-5.15.31-7.68-.44-1.71-.5-2.98.85-3.16,2.41-1.19,10.31-.93,20.68.64,30.93l1.15-2.82c-2.99,2.01-6.66,1.31-9.61-.46-3.59-2.15-5.7-5.93-7.42-9.62-1.91-4.1-3.47-8.32-5.69-12.27s-4.91-7.7-7.9-11.13c-3.36-3.85-7.19-7.24-11.33-10.23-1.1-.79-2.78-.19-3.42.9-.74,1.26-.2,2.63.9,3.42,7.48,5.39,13.67,12.52,18.03,20.63s6.35,18.33,14.95,22.97c4.32,2.33,9.79,2.95,14.03.1,1.02-.69,1.33-1.65,1.15-2.82-1.49-9.79-1.59-19.77-.46-29.61l-3.16,2.41c5.23,1.54,14.28,1.97,15.55-5.12.39-2.2-.24-4.31-.9-6.39-.62-1.96-1.28-3.92-1.96-5.86-1.36-3.89-2.84-7.74-4.42-11.54-6.37-15.28-14.4-29.84-24.07-43.28-2.4-3.34-5.19-6.51-7.18-10.12s-2.36-7.8-2.69-11.87c-.64-7.9-1.88-15.74-3.86-23.42-3.91-15.16-10.5-29.69-19.37-42.6-4.38-6.37-9.35-12.26-14.63-17.9-4.96-5.3-10.07-10.47-14.68-16.09-4.31-5.25-8.24-11.04-10.57-17.47-2.9-8.01-2.65-16.32-2.04-24.7.17-2.33.41-5.98,2.24-7.28.32-.23.52-.3.97-.29.89.03,1.68.51,2.42.96,1.64.99,3.22,2.09,4.82,3.15,6.29,4.18,12.51,8.54,18.01,13.75s10.15,11.4,13.16,18.51c3.29,7.79,5.15,16.2,7.18,24.38,2.15,8.68,3.87,17.37,4.34,26.32.24,4.53.41,9.06,1.05,13.57.59,4.17,1.78,8.18,3.37,12.07,3.05,7.48,7.26,14.56,9.14,22.47,1.75,7.34,1.4,15.11-.79,22.32-1.08,3.56-2.63,6.92-4.6,10.08l4.57.6c-4.33-14.73.65-30.32-2.76-45.21-1.62-7.07-5.42-13.09-10.46-18.23-4.65-4.75-10.01-8.74-14.76-13.4-2.26-2.22-4.38-4.57-6.11-7.23-2.06-3.19-3.46-6.69-4.65-10.28-2.4-7.2-4.41-14.37-8.57-20.81-3.66-5.65-8.16-10.68-12.01-16.19-3.62-5.19-6.7-10.94-6.93-17.4-.51-14.15,9.61-27.36,5.7-41.64-.51-1.88-1.19-4.15-3-5.18-1.94-1.1-4.12-.5-5.97.49-3.59,1.92-7.07,4.01-10.73,5.81-7.2,3.53-14.99,6.51-23.04,7.16-3.86.31-7.76.12-11.54-.78-1.24-.3-2.94-.58-3.36-1.97-.47-1.54-.18-3.52-.12-5.11.24-6.86,1.47-13.66,3.68-20.15,4.24-12.44,12.6-23.91,24.65-29.69,10.75-5.16,24.35-5.77,35.09-.27,2.69,1.38,5.18,3.09,7.36,5.19.51.49,1.08.99,1.48,1.59.04.06.32.63.33.43.01-.15-.2.17-.38.31-1.52,1.16-3.58,1.97-5.33,2.71-6.45,2.72-14.22,3.73-20.14-.76-2.3-1.75-3.88-4.13-4.43-6.97l-1.15,2.82c3.17-1.54,6.74-1.59,10.04-.44l-1.49-1.15c.54,1,.48,1.9.12,3.16-.43,1.5-1.1,2.76-1.79,4.2-1.5,3.13-3.01,6.54-2.11,10.07.98,3.84,4.44,5.95,7.77,7.59s6.33,3.47,8.48,6.63c2.4,3.52,3.53,7.63,3.17,11.88-.15,1.79,1.71,2.63,3.16,2.41,8.66-1.3,12.98-10.48,13.2-18.37.13-4.63-.61-9.55-1.73-14.03-.85-3.43-2.56-7.18-6.07-8.54-4.48-1.74-8.5,1.99-11.89,4.38-2.06,1.46-4.13,2.92-6.19,4.38-1.86,1.31-4.31,2.56-5.59,4.5-1.21,1.83-1.02,4.13.39,5.78,1.16,1.37,2.94,2.12,4.61,2.67,1.76.58,3.45.99,5.07,1.93s3.07,2.16,4.25,3.62c.29.37.61.77.79,1.21.07.16.15.32.16.51,0,.14.18-.21.03-.03-.44.51-1.63.68-2.24.76-1.84.23-3.7-.22-5.27-1.19-3.23-2.01-4.23-6.51-2.51-9.83,1.48-2.85-2.83-5.38-4.32-2.52h0Z" style="fill: #f7f6f5;"/>
  <path d="M250.58,354.33c-4.7-12.68-9.46-25.42-15.95-37.32-3.19-5.85-6.82-11.44-10.98-16.64-4.08-5.1-8.78-9.48-13.64-13.8-5.32-4.73-10.66-9.61-13.72-16.15-.77-1.64-3.55-1.63-4.32,0-1.56,3.31-3.39,7.48-6.92,9.11-4.34,2-9.21-1.41-12.67-3.73-2.04-1.37-4.82,1.37-3.42,3.42,2.13,3.12,2.9,6.87,1.97,10.56l2.41-1.84c-3.29.04-6.58.08-9.87.13-.78,0-1.56.04-2.33.03-.16,0-1-.13-.75.05.16.11-.02-.41-.04-.65-.06-.92,0-1.86,0-2.78,0-3.15,0-6.3-.01-9.45,0-1.2-.21-2.61.09-3.78.25-.95,1.32-.92,2.16-1.12,4.39-1.07,7.22-4.74,7.89-9.12.74-4.82-.76-9.26-3.79-13-3.23-3.99-7.69-6.68-11.6-9.92-3.97-3.28-7.36-7.19-10.19-11.48-5.72-8.65-9.36-18.43-12.76-28.17-1.9-5.44-4.39-11.32-3.67-17.2.09-.77.19-2.07.83-2.62.47-.4,1.14.02,1.72.43,2,1.42,3.18,3.93,4.37,6,2.88,4.99,5.29,10.24,7.17,15.69s3.12,11.28,4.28,17.06,2.61,11.38,6.03,16.1c2.88,3.98,7.07,7.54,12.17,7.85,4.32.26,9.4-2.24,9.34-7.14-.04-3-2.03-5.26-3.79-7.47s-3.45-4.52-5.06-6.86c-6.48-9.41-11.8-19.63-15.68-30.37-3.27-9.06-5.29-23.52-17.58-24-2.53-.1-4.82.77-6.75,2.37l4.27,1.77c.7-16.57,4.39-33.06,10.9-48.33,1.88-4.4,4-8.7,6.31-12.88,1.56-2.82-2.76-5.34-4.32-2.52-8.36,15.1-14.02,31.7-16.49,48.78-.72,4.96-1.2,9.94-1.41,14.95-.1,2.35,2.72,3.06,4.27,1.77,3.11-2.58,7.9.29,9.81,3.09,2.99,4.38,3.93,9.97,5.65,14.9,3.78,10.85,8.89,21.25,15.23,30.84,1.52,2.31,3.12,4.57,4.78,6.77.92,1.22,1.85,2.42,2.8,3.61.71.89,1.57,1.84,1.93,2.93.11.34.13.94.11,1.08.04-.27-.22.45,0,.07-.08.15-.15.3-.25.44.21-.31-.62.54-.37.37-.44.31-.62.39-1.01.52-1.54.5-3.06.51-4.63-.14-4.3-1.78-7.27-6.18-8.89-10.38-2.18-5.65-2.82-11.72-4.22-17.58s-3.26-11.18-5.59-16.52c-1.18-2.7-2.49-5.35-3.92-7.93-1.35-2.44-2.72-5.01-4.58-7.1-1.68-1.88-4.11-3.55-6.75-3.28-3.05.31-4.83,2.89-5.38,5.7-1.21,6.2.7,12.32,2.71,18.13,3.4,9.85,6.91,19.8,12.24,28.8,2.63,4.44,5.72,8.65,9.36,12.31s8,6.37,11.85,9.77c1.83,1.61,3.55,3.4,4.69,5.58.76,1.46,1.1,3.24,1.09,4.9s-.38,3.35-1.43,4.8c-.21.29-.89.93-1.29,1.17-.79.47-1.94.64-3.01.96-3.11.91-4.5,3.34-4.62,6.46s0,6.17,0,9.24c0,1.53,0,3.07,0,4.6,0,1.44-.05,2.98.64,4.3,1.58,3.01,5.11,2.63,7.98,2.6,3.13-.04,6.25-.08,9.38-.12,1.08-.01,2.14-.76,2.41-1.84,1.23-4.91.39-10.21-2.48-14.41l-3.42,3.42c4.93,3.3,10.96,6.59,16.95,4.07,4.77-2.01,7.39-6.79,9.48-11.24h-4.32c2.71,5.79,7.17,10.5,11.84,14.77s9.69,8.48,13.94,13.36c8.64,9.93,14.78,21.79,19.93,33.82,2.92,6.83,5.5,13.8,8.08,20.77.47,1.27,1.69,2.13,3.08,1.75,1.22-.33,2.22-1.8,1.75-3.08h0Z" style="fill: #f7f6f5;"/>
  <path d="M168.79,240.74c2.24,6.55,5.71,12.57,10.32,17.74,3.94,4.42,9.07,8.41,11.16,14.14.46,1.27,1.7,2.12,3.08,1.75,1.22-.34,2.21-1.8,1.75-3.08-2.24-6.16-7.01-10.51-11.38-15.18s-7.97-10.46-10.1-16.7c-.44-1.28-1.72-2.12-3.08-1.75-1.24.34-2.18,1.79-1.75,3.08h0Z" style="fill: #f7f6f5;"/>
  <path d="M202.84,271.78c5.81.74,10.71,5.06,14.86,8.85,4.72,4.31,9.06,9.03,13.72,13.4,8.77,8.22,19.93,15.93,32.53,15.3,1.74-.09,3.47-.37,4.69-1.74,1.29-1.44,1.33-3.4,1.43-5.22.23-3.95.45-7.9.68-11.85.18-3.21-4.82-3.2-5,0-.19,3.37-.39,6.75-.58,10.12-.06,1.08.12,2.59-.26,3.62.05-.13.4-.14,0-.04-.3.07-.11.04-.54.09-.75.08-1.53.06-2.29.05-5.5-.12-10.77-2.12-15.48-4.87-10.23-5.98-17.62-15.51-26.37-23.3-5.04-4.49-10.53-8.53-17.39-9.41-1.34-.17-2.5,1.27-2.5,2.5,0,1.49,1.15,2.33,2.5,2.5h0Z" style="fill: #f7f6f5;"/>
  <path d="M231.02,265.36c-4.04-5.02-10.59-7.99-17.03-7.74-1.71.07-3.58.23-4.9,1.44-1.43,1.31-1.64,3.29-1.29,5.09.28,1.47.9,2.89,1.45,4.27.75,1.87,1.57,3.72,2.48,5.53,1.6,3.16,3.43,6.26,5.59,9.08s5.43,4.89,8.94,3.25c3.24-1.52,3.49-5.3,1.73-8.06-.7-1.1-1.6-2.05-2.28-3.16.05.09-.52-.77-.28-.55.04.03.1-.23-.02-.14.24-.19-1.73,1.87-1.51.76-.02.08.63.97.7,1.1,1.81,3.35,2.37,7.27,4.49,10.48s5.15,5.57,9.03,5.58c1.72,0,2.72-1.6,2.41-3.16-.38-1.93-.76-3.85-1.14-5.78-.33-1.67-.99-3.55-.98-5.26,0-.31.21-.59-.02-.4.26-.22.8-.11,1.09,0,1.06.39,1.92,1.83,2.55,2.81,1.24,1.91,3.79,1.4,4.57-.6,1.81-4.66-.96-9.74-4.42-12.82-3.74-3.33-8.44-5.57-13.38-6.34-1.33-.21-2.69.34-3.08,1.75-.33,1.19.4,2.86,1.75,3.08,3.84.6,7.53,2.07,10.56,4.54,2.46,2,5.04,5.16,3.75,8.48l4.57-.6c-1.36-2.09-2.93-4.25-5.4-5.06-2.1-.69-4.67-.27-6.2,1.39-1.96,2.12-1.25,4.96-.75,7.49.57,2.89,1.14,5.78,1.7,8.67l2.41-3.16c-2.38,0-4.11-1.98-5.2-3.91-1.47-2.6-2.13-5.59-3.33-8.31s-3.84-6.39-7.24-4.37c-2.78,1.65-2.1,5.26-.56,7.47.67.97,1.47,1.85,2.07,2.86-.1-.16.42.78.29.56.05.08-.03.41.03.18s.24-.01-.13.04c-2.01.29-3.65-2.99-4.63-4.52-1.71-2.65-3.23-5.43-4.53-8.31-.59-1.31-1.12-2.65-1.61-4-.21-.59-.47-1.2-.58-1.82-.04-.21-.11-.45-.06-.67-.02.1-.03.26-.2.28,5.84-.62,11.33,1.5,15.05,6.12.85,1.05,2.65.88,3.54,0,1.04-1.04.85-2.48,0-3.54h0Z" style="fill: #f7f6f5;"/>
  <path d="M166.27,267.8c1.64-3.51,6.58-1.37,9.15-.38,4.59,1.75,9.18,3.51,13.77,5.26,1.26.48,2.74-.53,3.08-1.75.39-1.41-.48-2.59-1.75-3.08-5.28-2.02-10.52-4.21-15.87-6.03-4.38-1.49-10.43-1.4-12.7,3.46-.57,1.22-.34,2.7.9,3.42,1.08.63,2.85.33,3.42-.9h0Z" style="fill: #f7f6f5;"/>
  <path d="M205.32,100.79v-7.39c0-1.31-1.15-2.56-2.5-2.5s-2.5,1.1-2.5,2.5v7.39c0,1.31,1.15,2.56,2.5,2.5s2.5-1.1,2.5-2.5h0Z" style="fill: #f7f6f5;"/>
  <path d="M245.03,355.7c-.73,17.71,8.94,35.39,24.24,44.36,2.07,1.21,5.04,2.61,7.07.49,1.17-1.22,1.08-2.88,1.04-4.44s-.15-3.16-.29-4.74c-.12-1.34-1.06-2.5-2.5-2.5-1.26,0-2.62,1.15-2.5,2.5.1,1.1.18,2.21.24,3.31.03.63.05,1.26.06,1.9,0,.24,0,.47.01.71,0,.2,0,.39,0,.59l1.2-1.23c.03.1-.25-.06-.36-.1-.38-.16-.75-.41-1.12-.61-.86-.5-1.71-1.02-2.54-1.58-3.03-2.03-5.75-4.48-8.18-7.2-4.85-5.45-8.33-12.1-10.12-19.16-1.02-4.03-1.42-8.13-1.25-12.28.13-3.22-4.87-3.21-5,0h0Z" style="fill: #f7f6f5;"/>
  <path d="M294.06,393.01c-.36-11.85-8.61-20.6-14.94-29.84-2.82-4.11-4.97-8.49-6.76-13.13s-3.31-9.17-5.31-13.62c-2.19-4.85-5.07-9.46-9.14-12.95-1.02-.88-2.53-1-3.54,0-.9.9-1.03,2.65,0,3.54,6.91,5.95,9.6,14.9,12.7,23.14,1.73,4.6,3.63,9.15,6.26,13.32,2.94,4.66,6.5,8.89,9.56,13.47,3.22,4.81,5.99,10.19,6.17,16.09.1,3.21,5.1,3.22,5,0h0Z" style="fill: #f7f6f5;"/>
  <path d="M295.61,367.23c-3.55-8.24-7.15-16.59-12.53-23.84-2.64-3.56-5.89-6.7-8.15-10.53s-3.43-8.34-4.58-12.68c-.82-3.11-5.64-1.79-4.82,1.33,1.18,4.48,2.41,9.01,4.64,13.11s5.55,7.3,8.32,10.95c5.55,7.29,9.19,15.83,12.79,24.19.53,1.24,2.36,1.52,3.42.9,1.28-.75,1.43-2.18.9-3.42h0Z" style="fill: #f7f6f5;"/>
  <path d="M168.73,288.35c-1.51-2.68-2.99-5.25-3.5-8.3-.03-.18-.03-.17,0,.02-.02-.17-.04-.35-.05-.52-.03-.35-.04-.7-.03-1.05s.02-.7.06-1.04c-.05.41.08-.4.1-.49.06-.29.14-.58.23-.87.05-.16.11-.32.17-.48-.09.2-.07.17.05-.1.16-.3.33-.59.51-.88.17-.24.2-.28.06-.11.11-.13.22-.26.34-.39.91-1,.98-2.55,0-3.54-.92-.92-2.62-1-3.54,0-2.37,2.59-3.31,6.15-2.9,9.61.47,3.88,2.27,7.31,4.17,10.67.66,1.17,2.27,1.57,3.42.9s1.56-2.24.9-3.42h0Z" style="fill: #f7f6f5;"/>
  <path d="M128.24,177.9c-.2-.59-.34-1.18-.42-1.79l.09.66c-.1-.83-.1-1.67.01-2.5l-.09.66c.12-.83.34-1.63.67-2.41l-.25.6c.25-.57.54-1.1.9-1.61.75-1.08.24-2.82-.9-3.42-1.27-.67-2.62-.25-3.42.9-2.01,2.91-2.55,6.89-1.41,10.24.42,1.24,1.74,2.18,3.08,1.75,1.23-.4,2.2-1.75,1.75-3.08h0Z" style="fill: #f7f6f5;"/>
</svg>