<?xml version="1.0" encoding="UTF-8"?>
<svg id="Lag_1" data-name="Lag 1" xmlns="http://www.w3.org/2000/svg" width="152.13mm" height="152.13mm" viewBox="0 0 431.24 431.24">
  <rect x="3.5" y="3.5" width="424.24" height="424.24" rx="66.26" ry="66.26" style="fill: #60857b; stroke: #f38f1a; stroke-miterlimit: 10; stroke-width: 7px;"/>
  <path d="M224.52,109.47c-3.67,8.36-2.38,17.85,2.27,25.57,4.95,8.23,13.34,13.51,22.45,16.06,9.58,2.68,19.82,2.57,29.57.92s19.73-5.33,28.4-10.59,19.96-14.11,17.15-25.75c-.33-1.37-1.79-2.02-3.08-1.75-2.59.55-5.72-1.49-6.14-4.23s2.17-5.73,5-5.8c.2,0,.4.02.6.02-.06,0-.34-.06-.08.02-.16-.05.24.13.24.13-.21-.09.03.05.08.11-.27-.33-.02-.03.03.04.29.43.18.18.28.6.22.87.26,1.76-.28,2.55,0,0-.24.32-.1.15.17-.2-.18.17-.22.2-.36.24.35-.21-.14.09-.15.09-.3.19-.46.25-.66.28-1.4.31-2.1.23-1.61-.19-3.18-1.09-4.34-2.19-2.93-2.81-4.34-6.84-6.67-10.1s-5.28-6.08-8.63-8.36c-6.61-4.49-14.62-6.74-22.54-7.3-11.39-.8-22.7,1.75-33.73,4.26l3.08,1.75c-5.65-24.92-30.73-37.66-52.86-45.16-2.92-.99-6.39-.93-7.96,2.2-1.21,2.42-.87,5.48-.66,8.09.41,5.13,1.49,10.2,3.26,15.03,3.52,9.62,9.42,18.36,17.02,25.23,8.54,7.72,19.18,13.2,30.62,14.87,1.12.16,2.22-.11,2.82-1.15.56-.95.4-2.25-.39-3.03-5.34-5.24-10.68-10.49-16.02-15.73-2.5-2.45-5.04-4.86-7.48-7.37-1.8-1.85-3.82-4.08-4.17-6.73-.22-1.7.23-4.01,1.94-4.76,2.03-.9,4.48.65,5.73,2.21,1.77,2.22,2.48,5.14,3.34,7.79.99,3.04,2.23,6.02,3.71,8.85,3.18,6.07,7.55,11.54,12.74,16.01,1.54,1.33,4.36.54,4.27-1.77-.43-11.24-1.07-23.16-6.63-33.23-1.43-2.59-3.21-5-5.26-7.13-2.16-2.25-4.6-4.19-6.89-6.3-4.43-4.08-7.56-9.07-9.75-14.66-1.09-2.79-2.16-5.72-2.78-8.65-.38-1.75-.39-3.97,1.82-3.92,2.43.06,4.75,1.75,6.67,3.08,2.06,1.43,3.95,3.08,5.72,4.86,7.61,7.69,12.42,17.73,16.66,27.56,1.27,2.96,2.59,5.92,3.66,8.95s1.85,6.46,1.22,9.8c-1.24,6.51-5.78,11.83-9.99,16.7-.88,1.02-1,2.53,0,3.54.9.9,2.65,1.03,3.54,0,4.22-4.88,8.47-10.01,10.56-16.21,1.07-3.18,1.35-6.54.86-9.85s-1.86-6.72-3.2-9.94c-4.54-10.91-9.33-21.95-17.02-31.07-3.63-4.3-8.16-8.49-13.28-10.95-2.71-1.31-6.06-2.16-8.89-.67-3.11,1.64-3.82,5.13-3.34,8.33s1.59,6.11,2.68,8.99c1.16,3.08,2.51,6.11,4.2,8.94s3.78,5.49,6.16,7.8,5.16,4.47,7.55,6.9c9.54,9.7,10.24,24.33,10.73,37.15l4.27-1.77c-5.11-4.4-9.29-9.7-12.33-15.72-1.45-2.87-2.48-5.85-3.47-8.91-1.06-3.25-2.35-6.74-5-9.05-2.48-2.17-5.97-3.54-9.26-2.58-2.95.86-5.08,3.44-5.71,6.41-1.55,7.29,4.28,12.47,8.97,17.07,6.64,6.52,13.29,13.05,19.93,19.57l2.43-4.18c-18.42-2.69-34.23-15.4-42.22-32.03-1.98-4.13-3.42-8.53-4.3-13.03-.43-2.2-.7-4.42-.81-6.66-.06-1.09-.13-2.22-.04-3.31.06-.76,0-1.27.77-1.21,1.16.08,2.45.74,3.53,1.13,1.47.52,2.93,1.06,4.39,1.61,2.71,1.03,5.4,2.11,8.05,3.3,5.32,2.39,10.49,5.16,15.26,8.54,9.4,6.65,17.2,16.15,19.79,27.55.31,1.36,1.81,2.03,3.08,1.75,11.07-2.51,22.39-5.08,33.82-3.96,8.51.84,17.21,4.15,23.2,10.41,3.24,3.39,4.91,7.75,7.71,11.46s7.54,6.87,12.57,5.75c4.15-.92,6.35-4.95,5.55-8.99-.35-1.76-1.37-3.47-2.93-4.4-1.83-1.09-4.26-.94-6.2-.23-4.9,1.8-8.33,7.37-6.53,12.53s6.97,7.86,12.03,6.78l-3.08-1.75c.92,3.8-.75,7.5-3.06,10.47-2.71,3.47-6.3,6.13-9.97,8.49-7.78,5.01-16.4,8.57-25.44,10.53-15.9,3.45-37.08,2.73-48.05-11.2-5.01-6.36-7.55-15.64-4.17-23.32.54-1.24.36-2.68-.9-3.42-1.06-.62-2.88-.35-3.42.9h0Z" style="fill: #f7f6f5;"/>
  <path d="M233.46,142.52c.39,1.12-1.26,2.43-1.93,3.18-1.39,1.54-2.78,3.09-4.17,4.63-2.56,2.84-5.11,5.68-7.67,8.52-5.11,5.68-10.23,11.36-15.34,17.03-10.34,11.48-20.67,22.96-31.01,34.44-9.21,10.22-18.72,20.26-27.2,31.11-7.99,10.23-15.07,21.38-18.77,33.93-4.14,14.01-3.12,28.67-2.73,43.07.17,6.39.69,13.61-2.23,19.52-1.98,4-5.16,6.74-9.05,8.86-8.16,4.45-17.85,5.92-26.24,10.26-4.19,2.16-8.78,5.39-10.99,9.69-.8,1.56-1.22,3.37-.66,5.09s1.97,2.95,3.46,3.98c2.08,1.43,4.31,2.65,6.61,3.67,19.06,8.48,43.19,4.17,57.91-10.73,1.85-1.87,3.51-3.92,5.02-6.07l-2.82,1.15c.38.15.81.46,1.29,1.04-.22-.26.12.17.17.24.12.19.24.38.35.58.14.25.47.91.47.93.76,1.74,1.2,3.61,1.89,5.39.75,1.92,1.66,3.79,3.16,5.24,1.99,1.92,4.62,2.84,7.15,3.82,11.05,4.28,22.21,8.53,33.9,10.73,10.94,2.05,22.41,2.33,33.19-.74,2.65-.75,5.23-1.73,7.74-2.88,2.16-.99,4.39-2.14,5.91-4.03,3.61-4.45.99-10.73-1.67-15.01-5.5-8.86-15.83-14.61-26.31-14.07-3.2.17-3.24,4.96,0,5,8.12.1,15.53,3.7,22.46,7.61,7.36,4.15,14.49,8.74,22.61,11.33,3.93,1.25,8.1,2.04,12.23,1.93,3.86-.1,8.49-.85,11.69-3.17,3.39-2.46,3.93-6.66,2.25-10.32s-5.24-5.5-8.9-6.33c-4.23-.96-8.72-1.12-13.03-1.42-4.73-.33-9.47-.53-14.22-.61-2.29-.04-4.58-.04-6.87-.02-1.84.02-3.69.13-5.53-.05-1.1-.11-2.73-.48-3.67-.88-.3-.13-.6-.29-.88-.46-.12-.07-.65-.46-.48-.32-.19-.16-.39-.35-.54-.55.27.34-.29-.61-.12-.18-.19-.46-.25-.65-.08-1.34.23-.94.87-1.78,1.37-2.6.93-1.53,1.77-3.12,2.52-4.75,1.51-3.28,2.7-6.7,3.5-10.22,1.63-7.16,1.78-14.55.58-21.79s-3.78-13.99-7.68-20.01-9.81-12.44-17.27-14.42c-1.81-.48-3.72-.68-5.59-.55-1.35.09-2.5,1.08-2.5,2.5,0,1.5,1.15,2.32,2.5,2.5,8.28,1.09,13.1,10.28,15.76,17.23,3.94,10.31,6.25,21.23,6.77,32.26.3,6.28.03,12.57-.78,18.8-.27,2.09,2.27,2.83,3.76,2.16,10.09-4.52,15.33-15.07,19.41-24.72,5.36-12.71,10.35-25.58,15.08-38.54,2.67-7.32,5.24-14.68,7.72-22.07.43-1.27-.5-2.74-1.75-3.08-8.97-2.39-17.63-5.8-25.8-10.21-4.06-2.19-8.1-4.57-11.82-7.31-1.1-.81-2.81-2.11-2.83-3.63s1.91-2.89,2.97-3.82c4.48-3.91,8.96-7.82,13.44-11.72l-4.18-2.43c-2.52,7.1-4.92,15.41-.99,22.47,2.69,4.84,7.71,7.41,12.81,9s10.66,2.35,15.5,4.41c2.18.92,4.23,2.18,5.84,3.9,1.86,1.99,2.88,4.46,3.43,7.09,1.23,5.9.18,12.2.11,18.2-.07,6.04.63,13.25,5.11,17.79,2.55,2.58,6.73,4.15,9.92,1.76s3.09-7.19,3.4-10.85c.75-8.77,1.08-17.58,1.01-26.39-.07-8.2-.32-16.49-1.45-24.63-.93-6.73-2.74-13.65-6.77-19.23-1.04-1.45-2.19-2.8-3.48-4.03-2.32-2.23-5.86,1.3-3.54,3.54,4.55,4.36,6.86,10.22,8.14,16.29,1.48,7.01,1.73,14.28,1.96,21.41.27,8.31.17,16.63-.3,24.92-.23,4.05-.45,8.14-.95,12.18-.11.86-.25,2.41-1.1,2.9s-2.1-.33-2.78-.89c-2.04-1.66-3.02-4.51-3.57-6.99-.59-2.66-.65-5.4-.61-8.12.1-5.98.86-11.95-.06-17.9-.87-5.62-3.83-10.51-8.65-13.59-4.34-2.78-9.53-3.92-14.47-5.13-4.49-1.1-9.46-2.24-12.72-5.11-1.96-1.73-3.22-3.88-3.72-6.63-.59-3.31.17-6.8,1.08-9.98.49-1.71,1.06-3.38,1.65-5.05.9-2.53-2.45-3.94-4.18-2.43-4.35,3.8-8.71,7.6-13.06,11.4-1.78,1.56-3.6,3.14-4.43,5.42s-.17,4.91,1.32,6.86,3.52,3.32,5.53,4.67,4.23,2.75,6.4,4.02c4.48,2.62,9.13,4.94,13.91,6.96,5.39,2.29,10.92,4.21,16.58,5.72l-1.75-3.08c-4.29,12.78-8.86,25.46-13.71,38.04-2.46,6.36-4.99,12.7-7.6,19-1.99,4.83-4.03,9.66-6.77,14.13-2.91,4.75-6.67,8.87-11.83,11.18l3.76,2.16c1.53-11.78,1.06-23.76-1.27-35.41-1.17-5.86-2.83-11.62-4.98-17.19-1.74-4.53-3.91-8.86-6.95-12.67-3.46-4.31-8.02-7.3-13.54-8.02v5c6.98-.46,12.79,4.68,16.74,9.91s6.82,11.59,8.33,18.12,1.72,13.19.61,19.68c-.57,3.34-1.48,6.63-2.71,9.8-.6,1.52-1.3,3.01-2.07,4.45-.84,1.57-1.9,3.04-2.63,4.66-1.5,3.34-.64,6.8,2.31,8.96,2.42,1.77,5.61,2.36,8.53,2.55,4.09.26,8.26-.05,12.36.02,4.5.08,8.99.28,13.48.59,3.99.28,8.19.37,12.09,1.33,2.69.66,5.57,2.21,5.81,5.24s-4.56,4-7.04,4.42c-3.59.6-7.34.19-10.85-.67-15.59-3.83-27.46-16.58-43.42-19.38-1.95-.34-3.93-.55-5.91-.57v5c7.99-.42,15.98,3.41,20.78,9.82,1.19,1.58,2.22,3.33,2.96,5.16.68,1.7,1.74,4.17.48,5.84s-3.51,2.46-5.28,3.24c-2.32,1.02-4.75,1.81-7.2,2.45-20.86,5.4-42.09-2.19-61.4-9.64-2.35-.91-5.3-1.63-7.06-3.56-1.05-1.15-1.65-2.92-2.19-4.54-1.36-4.08-2.69-8.09-7-9.8-1.08-.43-2.23.31-2.82,1.15-11.29,16.09-33.73,22.34-52.09,16.5-2.3-.73-4.52-1.65-6.65-2.78-1.07-.57-2.11-1.18-3.13-1.83-.76-.49-2.13-1.12-2.05-2.13s1.07-2.02,1.67-2.71c.77-.88,1.6-1.7,2.49-2.45,1.51-1.27,3.47-2.47,5.38-3.45,8.14-4.17,17.65-5.67,25.85-10.05,4-2.14,7.59-5.07,10.05-8.92,3.56-5.57,4.1-12.39,4.07-18.83-.07-14.12-1.79-28.49,1.31-42.42,2.74-12.27,9.05-23.29,16.48-33.3,7.92-10.67,17.13-20.37,26.02-30.24,20.23-22.46,40.46-44.93,60.69-67.39,2.19-2.43,5.3-5.34,4.05-8.97-.44-1.28-1.71-2.12-3.08-1.75-1.24.34-2.19,1.79-1.75,3.08h0Z" style="fill: #f7f6f5;"/>
  <path d="M287.99,146.38c3.14,13.01,10.54,24.31,15.68,36.53,4.1,9.77,6.46,21,3.24,31.38-1.51,4.88-4.36,8.74-8.33,11.9-2.51,2-4.48,4.46-4.2,7.87s2.1,6.83,3.7,9.83c3.14,5.89,7.16,11.27,10.07,17.29,2.78,5.76,4.4,12.14,4.77,18.52s-.3,13.49-3,19.54c-2.33,5.21-6.16,9.96-11.91,11.38l3.08,1.75c-.7-1.91-1.4-3.83-2.1-5.74-.46-1.27-1.7-2.13-3.08-1.75-1.22.34-2.21,1.8-1.75,3.08.7,1.91,1.4,3.83,2.1,5.74.47,1.3,1.67,2.09,3.08,1.75,12.1-2.98,17.29-16.26,18.41-27.44.69-6.88.01-13.95-1.91-20.59-1.94-6.72-5.35-12.67-9.02-18.57-1.76-2.83-3.52-5.66-5.03-8.64-.69-1.36-1.34-2.74-1.85-4.18-.48-1.35-1-2.88-.11-4.16.75-1.09,1.98-1.88,3-2.7,1.07-.86,2.07-1.8,2.98-2.83,1.76-2,3.25-4.24,4.36-6.66,4.71-10.3,3.82-22.56.25-33.07-4.86-14.28-14.04-26.78-17.6-41.55-.75-3.13-5.58-1.8-4.82,1.33h0Z" style="fill: #f7f6f5;"/>
  <path d="M128.12,331.01c-3.79,12.48,4.47,26.98,17.14,30.08,3.13.76,4.46-4.06,1.33-4.82-10.14-2.48-16.65-14.04-13.65-23.93.94-3.09-3.89-4.4-4.82-1.33h0Z" style="fill: #f7f6f5;"/>
  <path d="M282.93,105.22c-4.12.96-8.52-.29-11.56-3.22v3.54c2.27-1.96,5.76-1.43,8.33-.45,3.41,1.31,6.26,3.85,9.32,5.77,7.21,4.51,15.43,4.5,23.64,4.04,3.2-.18,3.22-5.18,0-5-4.14.23-8.39.52-12.51-.13s-7.62-2.49-11.1-4.88c-3.24-2.23-6.56-4.56-10.5-5.32s-7.69-.2-10.73,2.43c-1.01.87-.92,2.65,0,3.54,4.34,4.2,10.55,5.88,16.42,4.51,3.13-.73,1.81-5.55-1.33-4.82h0Z" style="fill: #f7f6f5;"/>
</svg>