<svg width="55" height="55" viewBox="0 0 55 55" fill="none" xmlns="http://www.w3.org/2000/svg">
<g clip-path="url(#clip0_6_80)">
<path d="M9.16667 18.3333C9.16667 15.9022 10.1324 13.5706 11.8515 11.8515C13.5706 10.1324 15.9022 9.16667 18.3333 9.16667H36.6667C39.0978 9.16667 41.4294 10.1324 43.1485 11.8515C44.8676 13.5706 45.8333 15.9022 45.8333 18.3333V36.6667C45.8333 39.0978 44.8676 41.4294 43.1485 43.1485C41.4294 44.8676 39.0978 45.8333 36.6667 45.8333H18.3333C15.9022 45.8333 13.5706 44.8676 11.8515 43.1485C10.1324 41.4294 9.16667 39.0978 9.16667 36.6667V18.3333Z" stroke="white" stroke-width="5" stroke-linecap="round" stroke-linejoin="round"/>
<path d="M20.625 27.5C20.625 29.3234 21.3493 31.072 22.6386 32.3614C23.928 33.6507 25.6766 34.375 27.5 34.375C29.3234 34.375 31.072 33.6507 32.3614 32.3614C33.6507 31.072 34.375 29.3234 34.375 27.5C34.375 25.6766 33.6507 23.928 32.3614 22.6386C31.072 21.3493 29.3234 20.625 27.5 20.625C25.6766 20.625 23.928 21.3493 22.6386 22.6386C21.3493 23.928 20.625 25.6766 20.625 27.5Z" stroke="white" stroke-width="5" stroke-linecap="round" stroke-linejoin="round"/>
<path d="M37.8125 17.1875V17.21" stroke="white" stroke-width="5" stroke-linecap="round" stroke-linejoin="round"/>
<path d="M9.16667 18.3333C9.16667 15.9022 10.1324 13.5706 11.8515 11.8515C13.5706 10.1324 15.9022 9.16667 18.3333 9.16667H36.6667C39.0978 9.16667 41.4294 10.1324 43.1485 11.8515C44.8676 13.5706 45.8333 15.9022 45.8333 18.3333V36.6667C45.8333 39.0978 44.8676 41.4294 43.1485 43.1485C41.4294 44.8676 39.0978 45.8333 36.6667 45.8333H18.3333C15.9022 45.8333 13.5706 44.8676 11.8515 43.1485C10.1324 41.4294 9.16667 39.0978 9.16667 36.6667V18.3333Z" stroke="white" stroke-width="2" stroke-linecap="round" stroke-linejoin="round"/>
<path d="M37.8125 17.1875V17.21" stroke="white" stroke-width="2" stroke-linecap="round" stroke-linejoin="round"/>
<path d="M20.625 27.5C20.625 29.3234 21.3493 31.072 22.6386 32.3614C23.928 33.6507 25.6766 34.375 27.5 34.375C29.3234 34.375 31.072 33.6507 32.3614 32.3614C33.6507 31.072 34.375 29.3234 34.375 27.5C34.375 25.6766 33.6507 23.928 32.3614 22.6386C31.072 21.3493 29.3234 20.625 27.5 20.625C25.6766 20.625 23.928 21.3493 22.6386 22.6386C21.3493 23.928 20.625 25.6766 20.625 27.5Z" stroke="white" stroke-width="2" stroke-linecap="round" stroke-linejoin="round"/>
</g>
<defs>
<clipPath id="clip0_6_80">
<rect width="55" height="55" fill="white"/>
</clipPath>
</defs>
</svg>
