<svg width="268" height="126" viewBox="0 0 268 126" fill="none" xmlns="http://www.w3.org/2000/svg">
<g clip-path="url(#clip0_10_161)">
<path d="M57.7977 71.0739C61.5531 71.9763 65.3714 71.166 69.016 70.164C72.6421 69.1658 76.3347 67.8802 80.1456 68.0238C82.101 68.0975 83.9233 68.6795 85.7123 69.4457C87.6048 70.2561 89.4936 71.1844 91.5525 71.4864C93.4598 71.7664 95.3671 71.4754 97.2818 71.4938C98.9858 71.5085 100.76 71.8806 101.736 73.4166C102.763 75.0337 102.826 77.2549 102.394 79.071C101.998 80.7396 101.067 82.4599 99.3111 82.9682L99.8433 84.2317C101.096 83.6276 101.847 82.2094 101.651 80.8391C101.455 79.4688 100.305 78.3269 98.9377 78.1206C98.5903 78.069 98.1615 78.2016 98.0839 78.6031C97.8399 79.8961 98.228 81.2185 99.2149 82.1173L99.5217 80.9643C98.1356 81.4874 96.6977 81.7563 95.2155 81.76L95.8846 82.2683C95.3486 80.2902 97.4555 78.7505 98.8453 77.7596C100.346 76.695 101.939 75.4979 102.379 73.6119C102.457 73.2767 102.275 72.8273 101.895 72.761C98.7825 72.2231 95.4964 72.0905 92.3841 72.702C89.9889 73.1698 87.3904 74.3817 86.4848 76.8092C85.7751 78.7137 86.2815 81.3474 88.1519 82.4157C89.1942 83.0087 90.5323 82.9977 91.5599 82.3788C92.7057 81.69 93.0088 80.4965 93.1049 79.2515C93.153 78.6289 93.0754 76.9787 94.0844 77.0597C94.5317 77.0965 94.9531 77.4796 95.0751 77.8996C95.234 78.4447 94.9383 79.0415 94.5761 79.4356C93.5817 80.5149 91.9406 80.5481 90.5766 80.6033C89.0464 80.666 87.5161 80.666 85.9858 80.6291C79.7723 80.4818 73.5625 79.7119 67.3416 80.0655C64.3328 80.2387 61.3166 80.677 58.4408 81.5979C57.7238 81.8263 57.0178 82.0841 56.3265 82.3715C55.7093 82.6256 55.0033 82.854 54.6558 83.4692C54.3083 84.0843 54.5301 84.8247 54.9811 85.3368C55.432 85.8488 56.0197 86.0772 56.6333 86.3019C57.0436 86.4529 57.5648 86.6223 57.6424 87.1049L58.3115 86.2319C57.1065 86.2724 56.0345 87.1012 55.7721 88.2873C55.6797 88.7109 55.9717 89.1751 56.4411 89.1603C57.5574 89.1309 58.6404 89.6355 59.2836 90.5601L60.0672 89.5471C58.585 89.2672 56.7294 89.886 56.3228 91.4957C55.9162 93.1055 57.3245 94.6931 58.9251 94.3432L58.5554 93.0097C57.6424 93.3375 57.1508 94.1774 57.1139 95.1241C57.0732 96.2365 57.7866 97.1611 58.256 98.1115C59.2282 100.075 59.0766 102.407 58.4519 104.447C58.3299 104.841 58.6737 105.372 59.121 105.32C59.8233 105.243 60.5256 105.166 61.2279 105.092L60.6291 104.749C60.9987 105.593 61.2537 106.503 61.372 107.416C61.4238 107.818 61.6492 108.061 62.0669 108.109C62.8727 108.193 63.6416 108.024 64.366 107.674L63.3495 106.893C63.1278 108.168 62.9282 109.73 63.9742 110.72C64.7689 111.476 66.2327 111.704 66.9867 110.765L65.8298 110.094C65.6671 110.702 65.5045 111.306 65.3456 111.914C65.2568 112.238 65.4564 112.71 65.8298 112.765C66.9645 112.923 68.0808 112.857 69.1713 112.492L68.3876 111.479C67.5042 112.702 68.761 114.15 69.9364 114.533C70.6165 114.754 71.3632 114.71 72.0396 114.949C72.6236 115.155 72.8417 115.66 73.1374 116.157C73.4627 116.706 73.8693 117.204 74.4976 117.41C74.8488 117.524 75.2258 117.524 75.5918 117.491C75.917 117.461 76.2978 117.362 76.6193 117.458C77.1146 117.605 77.3253 118.242 77.5212 118.662C77.78 119.226 78.0313 119.76 78.5599 120.121C79.5653 120.806 81.2841 120.692 81.3802 119.219L80.0199 119.403C80.2935 120.81 79.4766 122.195 79.7279 123.62C79.9165 124.696 80.6483 125.834 81.8127 125.989C83.1212 126.162 84.1266 125.039 84.6071 123.948C85.0432 122.957 85.1911 121.889 85.387 120.832C85.5829 119.775 85.7936 118.611 86.6955 117.973L85.679 117.193C85.0654 119.392 85.2909 121.709 86.2704 123.768C86.5477 124.346 87.3571 124.114 87.5383 123.602C88.4623 120.979 89.5971 118.441 90.9352 116.003L89.6673 115.837C90.0259 118.183 91.5968 120.29 93.737 121.326C94.2027 121.55 94.772 121.281 94.7794 120.729C94.8052 118.983 94.8274 117.233 94.8533 115.487L93.9773 116.154C95.5408 116.622 97.1043 117.089 98.6642 117.557C98.9895 117.657 99.4626 117.439 99.518 117.075C100.346 111.387 96.7421 106.481 93.408 102.256L93.2676 103.339C95.1379 102.116 95.0751 99.5297 94.0401 97.7763C93.4154 96.7191 92.5246 95.8571 91.7077 94.9546C90.8908 94.0522 90.207 93.0244 89.6895 91.9009C88.6398 89.6355 88.2627 87.1601 87.5863 84.7769C87.261 83.6202 86.8286 82.4525 86.1263 81.469C85.424 80.4855 84.426 79.6456 83.3282 79.0415C78.6412 76.4482 72.8787 76.8719 67.933 78.43C65.3234 79.2551 62.8173 80.386 60.3518 81.5684C59.2097 82.1136 57.9973 82.6109 56.9475 83.3218C55.8978 84.0328 55.2324 84.8947 54.8074 86.0293C54.3564 87.2375 54.2899 88.5562 54.1642 89.8271C54.0385 91.0979 53.8056 92.284 53.3325 93.4517C52.3863 95.7798 50.6527 97.7615 48.4829 99.025L49.5253 99.6218C49.444 97.9789 49.5845 96.3544 49.9652 94.752C50.1759 93.8643 48.9635 93.5843 48.6271 94.3837C47.9876 95.9161 47.3149 97.5295 46.1062 98.7119C45.0269 99.7654 43.4412 100.381 41.9737 99.8317L42.4838 100.498C42.4801 99.7507 42.4727 99.0029 42.469 98.2551C42.4653 97.6179 41.7335 97.3969 41.2862 97.7652C38.8429 99.7912 35.9339 101.195 32.8364 101.898L33.62 102.911C35.6124 100.02 37.6047 97.1316 39.5933 94.24C39.9666 93.6985 39.353 93.1276 38.8097 93.227C34.278 94.0522 30.8293 97.4153 26.4935 98.7266C25.307 99.084 24.102 99.2313 22.8638 99.1024L23.3554 100.281C26.3087 98.001 29.1992 95.6398 32.0232 93.2012C32.6331 92.6745 31.8532 91.7462 31.1842 92.1183C25.2516 95.4114 19.1009 98.3067 12.7765 100.767L13.4492 100.944C12.9613 100.37 13.3494 99.5628 13.6932 99.0213C14.1811 98.2478 14.8834 97.6584 15.5672 97.0617C17.0827 95.7392 18.6463 94.4647 20.2542 93.2528C23.433 90.8511 26.7708 88.6667 30.2416 86.7107C32.2376 85.5872 34.2817 84.5411 36.359 83.5723C37.0207 83.2629 36.6399 82.3125 36.0079 82.2867C31.4023 82.0805 26.9223 83.3255 22.568 84.67C18.2138 86.0145 13.6821 87.4401 9.00256 87.79C6.23401 87.9963 3.45068 87.9116 0.700621 87.5432L1.05177 88.8288C8.41854 84.8653 16.9644 84.3348 25.0113 82.6514C27.3289 82.1652 29.6243 81.5832 31.8643 80.8059C32.574 80.5591 32.5001 79.432 31.6795 79.4504C27.7725 79.5277 23.8618 79.5461 19.9511 79.5093C17.9957 79.4909 16.0403 79.4688 14.0887 79.4062C13.1609 79.3767 11.5678 79.292 11.2795 78.1943L10.6105 79.0673C17.4376 79.0857 24.261 78.7247 31.0474 77.9806C32.988 77.767 34.9212 77.5238 36.8543 77.2513C37.5197 77.1555 37.5123 76.0246 36.8543 75.9178C32.9288 75.2953 28.4711 74.5365 25.8541 71.2396L25.3625 72.4184C30.5188 72.0832 35.69 72.0869 40.8464 72.4257C41.6152 72.4773 41.8074 71.1881 41.0312 71.0702C39.4381 70.8234 37.7525 70.5876 36.3479 69.7404C35.191 69.0442 34.2558 67.8507 34.2928 66.4546L33.4168 67.1214C36.8691 68.5727 40.5211 69.4641 44.2544 69.8067V68.4254C43.0457 68.3996 42.0587 67.4897 41.8407 66.3257L41.1716 67.1987C45.5 67.7034 49.7693 68.6758 53.9018 70.0572C54.6336 70.304 55.1585 69.1142 54.434 68.7937C53.4471 68.3591 52.4011 67.917 51.6433 67.1287C51.0519 66.5173 50.6194 65.5079 51.0075 64.6791C51.3957 63.8503 50.187 63.1762 49.8099 63.9829C49.2407 65.2059 49.4847 66.5836 50.2831 67.6518C51.1443 68.8011 52.4528 69.4236 53.7354 69.9872L54.2677 68.7237C50.0132 67.2982 45.6257 66.3368 41.1716 65.8137C40.6874 65.7584 40.4287 66.2962 40.5026 66.6867C40.8316 68.4548 42.469 69.7625 44.2507 69.7993C45.1563 69.8178 45.123 68.499 44.2507 68.418C40.6468 68.0865 37.1168 67.184 33.7827 65.7805C33.3502 65.6 32.914 66.0494 32.9067 66.4473C32.866 68.197 33.9121 69.7183 35.3019 70.6981C36.858 71.7959 38.8208 72.109 40.6615 72.3926L40.8464 71.037C35.69 70.6945 30.5188 70.6945 25.3625 71.0297C24.723 71.0702 24.4975 71.7369 24.8709 72.2084C27.6357 75.6894 32.33 76.5808 36.481 77.2402V75.9068C29.8165 76.8461 23.0929 77.4097 16.3656 77.6012C14.4472 77.6565 12.5288 77.6786 10.6068 77.6749C10.1521 77.6749 9.82683 78.1169 9.93772 78.5479C10.6142 81.1301 14.2587 80.7838 16.2806 80.8244C19.5482 80.887 22.8157 80.9091 26.0833 80.8907C27.9462 80.8796 29.8091 80.8575 31.6721 80.8207L31.4873 79.4651C23.4995 82.2315 14.913 82.4636 6.8513 84.9463C4.60763 85.6388 2.41202 86.5118 0.345774 87.628C-0.326956 87.989 0.0759425 88.8325 0.696924 88.9135C5.5391 89.5582 10.4774 89.3114 15.2346 88.2063C19.6738 87.1749 23.9357 85.4988 28.375 84.4674C30.8811 83.8854 33.4278 83.5392 36.0042 83.6534L35.653 82.3678C27.8316 86.0145 20.5499 90.7922 14.0924 96.5091C12.636 97.7947 10.8877 100.06 12.466 101.913C12.6102 102.082 12.9317 102.171 13.1387 102.09C19.5777 99.5886 25.843 96.6528 31.8791 93.3007L31.04 92.2177C28.216 94.6563 25.3255 97.0175 22.3721 99.2976C21.8399 99.7102 22.3463 100.421 22.8638 100.476C27.5766 100.966 31.4873 97.6916 35.4941 95.7871C36.6695 95.2309 37.893 94.7852 39.1756 94.5531L38.392 93.5401C36.3997 96.4318 34.4074 99.3197 32.4187 102.211C32.0565 102.738 32.6516 103.35 33.2024 103.224C36.5401 102.469 39.6377 100.915 42.2657 98.7377L41.0829 98.2478C41.0866 98.9955 41.094 99.7433 41.0977 100.491C41.0977 100.819 41.3158 101.047 41.6078 101.158C43.4412 101.843 45.4741 101.121 46.8824 99.8759C48.4053 98.5277 49.2037 96.5791 49.9652 94.7484L48.6271 94.38C48.2205 96.0929 48.0505 97.8536 48.1355 99.6144C48.1614 100.13 48.7084 100.484 49.1779 100.211C51.0482 99.1245 52.6154 97.5626 53.728 95.7135C54.8813 93.798 55.3618 91.7352 55.5688 89.5361C55.6686 88.4789 55.7536 87.3959 56.1343 86.3903C56.5151 85.3846 57.3172 84.6553 58.2745 84.1212C59.3686 83.5097 60.5256 82.9977 61.6566 82.4599C62.7877 81.9221 64.0297 81.3548 65.2421 80.8612C69.8625 78.9826 75.0558 77.7412 79.983 79.1594C82.2636 79.815 84.4334 80.9938 85.5164 83.1855C86.0228 84.2169 86.3 85.3515 86.5661 86.4603C86.8471 87.628 87.1169 88.7957 87.468 89.9449C87.8488 91.19 88.3182 92.4203 88.9577 93.5586C89.5971 94.6968 90.5138 95.7208 91.4268 96.7117C92.2289 97.5774 93.0606 98.513 93.2934 99.7028C93.4635 100.561 93.3304 101.626 92.5394 102.141C92.1328 102.407 92.1143 102.867 92.3989 103.224C95.3671 106.982 98.8934 111.608 98.1504 116.699L99.0042 116.216C97.4407 115.749 95.8772 115.281 94.3173 114.813C93.8775 114.68 93.445 115.041 93.4413 115.48C93.4154 117.226 93.3932 118.975 93.3674 120.721L94.4097 120.125C92.5505 119.222 91.2863 117.495 90.9758 115.461C90.8834 114.861 89.9741 114.809 89.708 115.295C88.3145 117.837 87.1354 120.489 86.1743 123.223L87.4422 123.057C86.6216 121.337 86.4774 119.373 86.9912 117.546C87.1428 117.005 86.4811 116.404 85.9747 116.765C83.7569 118.334 84.3299 121.13 83.3466 123.337C83.1323 123.819 82.7072 124.571 82.1084 124.611C81.6352 124.644 81.3285 124.147 81.1843 123.764C80.9182 123.064 81.0697 122.353 81.2102 121.642C81.3802 120.758 81.5133 119.907 81.3395 119.016C81.1843 118.213 80.0236 118.46 79.9793 119.2C79.9793 119.163 80.0237 119.134 80.0532 119.115C80.1382 119.064 79.8943 119.145 79.9534 119.141C79.7649 119.149 79.5838 119.101 79.4101 119.009C78.9443 118.765 78.7928 118.113 78.5784 117.668C78.2975 117.086 77.9204 116.522 77.3179 116.235C76.5565 115.87 75.8579 116.194 75.0817 116.106C74.5272 116.043 74.3091 115.395 74.0578 114.979C73.6734 114.338 73.1744 113.87 72.461 113.616C71.7476 113.362 70.9861 113.435 70.2949 113.177C69.929 113.041 69.2674 112.581 69.5778 112.153C69.929 111.667 69.345 110.956 68.7942 111.14C67.9552 111.42 67.0717 111.538 66.1883 111.413L66.6725 112.264C66.8352 111.656 66.9978 111.052 67.1568 110.444C67.3157 109.836 66.4508 109.21 65.9998 109.774C65.6819 110.168 65.0942 109.954 64.817 109.593C64.3402 108.967 64.5545 107.95 64.6765 107.247C64.78 106.643 64.2256 106.19 63.66 106.466C63.1499 106.716 62.6177 106.772 62.0595 106.713L62.7544 107.405C62.6029 106.23 62.2998 105.125 61.823 104.042C61.7343 103.843 61.4386 103.677 61.2242 103.699C60.5219 103.777 59.8196 103.854 59.1173 103.928L59.7863 104.801C60.3703 102.889 60.5477 100.804 60.0118 98.8593C59.7419 97.8868 59.2282 97.0653 58.7846 96.1702C58.5591 95.7171 58.208 94.5863 58.9251 94.3284C59.7604 94.0301 59.4351 92.8034 58.5554 92.995C57.8901 93.1423 57.4909 92.1625 57.7237 91.6541C58.0453 90.9579 59.0101 90.7332 59.6976 90.8622C60.2372 90.9616 60.8545 90.387 60.4812 89.8492C59.5645 88.5268 58.0675 87.72 56.4411 87.7642L57.1102 88.6373C57.2395 88.0553 57.7016 87.6169 58.3115 87.5948C58.7994 87.5801 59.0507 87.1675 58.9805 86.7218C58.7698 85.3773 57.3652 85.2668 56.4042 84.7069C56.2193 84.6 55.9754 84.438 55.8867 84.2317C55.8091 84.0549 56.0678 83.9665 56.2822 83.867C56.929 83.5686 57.6055 83.3182 58.2819 83.0898C61.0504 82.1431 63.9484 81.6568 66.8647 81.4616C72.8861 81.0564 78.9074 81.7563 84.9176 81.9626C86.422 82.0142 87.9301 82.0363 89.4345 82.0031C90.9389 81.9699 92.4322 82.0031 93.8035 81.5021C95.0455 81.049 96.1987 80.0729 96.4427 78.7137C96.6719 77.4465 95.9844 76.2309 94.7609 75.7852C93.5374 75.3395 92.4396 76.032 92.0219 77.1371C91.6412 78.139 91.8556 79.2478 91.5451 80.2644C91.2346 81.2811 89.9926 81.7011 89.0464 81.2995C88.2812 80.9754 87.8451 80.2018 87.6602 79.4246C87.4496 78.5332 87.5604 77.5312 88.0188 76.7356C88.5806 75.752 89.5971 75.0669 90.621 74.6285C91.7669 74.1386 93.031 73.9066 94.2656 73.7887C95.8883 73.634 97.5257 73.6266 99.1484 73.7592C99.9431 73.8255 100.734 73.9287 101.521 74.065L101.037 73.214C100.597 75.1074 98.679 76.0983 97.2411 77.185C95.5778 78.4448 93.9403 80.3786 94.5428 82.6072C94.6204 82.8982 94.9087 83.1155 95.2118 83.1155C96.8086 83.1119 98.3944 82.8319 99.8877 82.2683C100.346 82.0952 100.608 81.4948 100.194 81.1154C99.5883 80.5665 99.2667 79.7635 99.4219 78.9457L98.5681 79.4283C99.3998 79.5535 100.143 80.1392 100.283 81.0012C100.424 81.8631 99.8914 82.6551 99.141 83.0161C98.3907 83.3771 98.9303 84.4932 99.6733 84.2796C103.359 83.2113 104.397 78.6326 103.865 75.3026C103.566 73.4166 102.564 71.6154 100.782 70.7718C99.0006 69.9283 96.9232 70.0719 94.979 70.1677C94.029 70.2156 93.068 70.2561 92.1217 70.1567C91.0498 70.0425 90.0037 69.7073 89.002 69.3242C86.9986 68.558 85.0913 67.5118 82.9918 67.0035C79.0478 66.0494 75.0114 67.0256 71.2005 68.0902C67.0015 69.2652 62.5511 70.7681 58.1636 69.7183C57.295 69.512 56.9253 70.8418 57.794 71.0518L57.7977 71.0739Z" fill="white"/>
<path d="M50.649 65.2096C51.817 64.9591 53.4878 64.6202 54.519 65.4343C55.1659 65.9426 55.2842 66.8414 55.3877 67.6039C55.4727 68.2338 55.5244 68.919 55.3581 69.5378C55.1918 70.1567 54.763 70.4771 54.1014 70.4698C53.2845 70.4587 52.4861 70.2156 51.6766 70.455C50.4309 70.8271 49.8913 72.2416 50.2498 73.4277C50.4568 74.1055 50.9299 74.658 51.61 74.8938C51.9464 75.0116 52.3012 75.0448 52.6487 75.1111C52.852 75.1516 53.1514 75.1516 53.1884 75.369L53.6726 74.518C50.6342 74.9417 47.6291 75.5937 44.6905 76.4777C43.249 76.9124 41.8259 77.3986 40.4213 77.9364C39.0167 78.4742 37.6897 78.9936 36.5956 79.9845C36.2962 80.2571 36.3294 80.898 36.736 81.0675C38.7247 81.911 40.839 82.1394 42.9717 82.3273L42.7869 80.9717C40.8501 81.7674 39.1202 82.9535 37.7304 84.5264C37.3016 85.0089 37.6269 85.6315 38.222 85.7051C40.8205 86.0367 43.9845 86.2061 45.8955 84.0696L44.8088 83.2334C44.3948 83.8449 44.1878 84.5227 44.1361 85.252C44.0991 85.7678 44.7571 86.1251 45.1784 85.8488C47.4776 84.3459 49.4292 82.3936 50.9262 80.0913L49.6584 79.5609C49.5586 80.1834 49.4588 80.8096 49.3553 81.4322C49.2703 81.9626 49.0596 82.6183 49.3553 83.1192C49.9467 84.1212 51.5805 83.3255 52.316 82.9093C53.2401 82.3862 53.9794 81.6311 54.5412 80.7396C54.9737 80.0545 55.6021 78.7137 56.6333 79.0894L56.1491 78.2385C55.7425 79.5683 55.2287 80.8501 54.5967 82.0878C54.3084 82.6514 54.7815 83.2113 55.3803 83.1008C56.5964 82.8798 57.7016 82.3125 58.6146 81.4874C59.2762 80.8907 58.2967 79.9145 57.635 80.5113C56.8884 81.1817 55.9976 81.5905 55.0107 81.7674L55.7943 82.7804C56.4781 81.4395 57.0436 80.0398 57.4835 78.5995C57.5981 78.2201 57.343 77.8738 56.9993 77.7486C56.1122 77.4281 55.1548 77.8001 54.4969 78.419C53.7835 79.0931 53.4545 80.0545 52.7966 80.7691C52.2051 81.4137 51.4511 81.8889 50.6083 82.1284C50.5677 82.1394 50.272 82.1983 50.2646 82.2131L50.5862 82.5336V82.4083C50.6749 82.1726 50.6786 81.8668 50.7192 81.62C50.8116 81.0527 50.9003 80.4855 50.9928 79.9182C51.1147 79.1667 50.1759 78.6952 49.7249 79.3878C48.361 81.4837 46.572 83.2776 44.4761 84.6479L45.5185 85.2447C45.5518 84.7548 45.7292 84.3275 46.0027 83.9223C46.4389 83.274 45.4372 82.5004 44.916 83.0861C43.2711 84.9242 40.4287 84.6001 38.222 84.3164L38.7136 85.4952C39.9334 84.1138 41.4452 82.9977 43.1566 82.2941C43.8736 81.9994 43.7849 81.0085 42.9717 80.9386C41.1051 80.7728 39.1793 80.6107 37.4346 79.8703L37.5751 80.9533C38.5842 80.0398 39.9408 79.5793 41.1975 79.1041C42.5799 78.5847 43.9771 78.1169 45.3965 77.7007C48.2279 76.8682 51.1221 76.2493 54.0459 75.8405C54.4414 75.7852 54.5856 75.3174 54.5301 74.9895C54.4045 74.2381 53.7022 73.9029 53.0257 73.7666C52.5378 73.6671 51.8836 73.6966 51.6433 73.1772C51.477 72.8162 51.4807 72.2932 51.7468 71.9764C52.1793 71.457 53.1958 71.7627 53.7613 71.8106C54.6078 71.8843 55.4801 71.7222 56.0789 71.0702C56.6001 70.5029 56.7886 69.7441 56.844 68.9963C56.9032 68.2007 56.7849 67.3829 56.637 66.6057C56.4707 65.7474 56.1195 64.9223 55.4209 64.366C53.9905 63.2241 51.9575 63.5041 50.2941 63.8577C49.4218 64.0456 49.7914 65.3753 50.6638 65.1912L50.649 65.2096Z" fill="white"/>
<path d="M57.2063 68.1307C56.8958 66.1342 57.0584 64.0713 57.6609 62.1411C58.2634 60.2109 59.4462 58.4465 59.0359 56.3542L58.5517 57.2051C59.8011 56.9068 60.3038 55.5807 60.3223 54.4203C60.3334 53.7536 60.1374 52.91 60.4405 52.2838C60.533 52.0923 61.0024 51.5913 61.2537 51.7976C61.664 52.1328 62.4994 51.967 62.4366 51.3077C62.3737 50.6483 62.2739 49.9226 62.5031 49.2891C62.6473 48.8912 63.0575 48.3571 63.5455 48.4345L63.7303 47.0789C63.2128 47.0347 62.943 46.3127 63.113 45.8817C63.3459 45.2924 64.1184 45.0677 64.6913 45.1855C65.2642 45.3034 65.8076 44.7104 65.4749 44.1725C64.8687 43.189 63.7598 41.5388 64.4658 40.3563C64.7357 39.9069 65.7965 39.1665 66.2586 39.7854C66.4656 40.0653 66.7834 40.2127 67.1235 40.069C67.4192 39.9438 67.6447 39.5791 67.5264 39.2549C67.1531 38.2383 66.8278 36.9748 67.3748 35.9544C67.7112 35.3282 68.5835 34.6946 69.3265 35.0041C69.8957 35.2435 70.4576 34.853 70.343 34.2231C70.1508 33.1696 69.8625 31.792 70.4982 30.8306C70.9233 30.1933 71.803 29.7734 72.4721 30.2817C72.8787 30.5911 73.5588 30.1749 73.5144 29.685C73.3111 27.438 75.5363 25.2425 77.8243 25.6883C78.4194 25.8024 78.9037 25.2278 78.608 24.6753C78.3123 24.1227 77.7652 23.0471 78.2753 22.4614C78.4342 22.2772 79.0478 22.0673 79.1328 22.2957C79.3472 22.8629 80.3378 23.0361 80.4709 22.2957C80.7629 20.6491 80.1678 19.1756 79.9682 17.5659C79.8425 16.5529 79.9312 15.2195 80.8997 14.6301L79.9497 14.3833C80.7629 15.7646 81.8238 16.9323 83.099 17.9011C83.4908 18.1995 83.9713 17.8496 84.1155 17.4886C84.5295 16.4535 84.1303 15.4405 84.2707 14.387C84.3373 13.8713 84.7106 13.0388 85.3279 13.5287C85.9452 14.0186 86.056 14.9358 86.3111 15.6357C86.6327 16.5198 87.1021 17.2454 88.0077 17.5954C88.5622 17.809 88.9244 17.2012 88.8616 16.7445C88.7728 16.0888 88.8689 15.4036 89.0944 14.7848C89.209 14.4717 89.3716 14.1733 89.5602 13.8971C89.6193 13.8086 89.8374 13.6208 89.8596 13.5287C89.9483 13.4698 89.9224 13.4477 89.7819 13.4624C89.8374 13.4992 89.8817 13.5434 89.9224 13.595C90.9574 14.6559 91.7299 16.0998 92.3546 17.4296C92.6318 18.019 93.4339 17.7648 93.6224 17.2639C94.3543 15.2821 96.2764 13.7571 98.387 13.5103L97.7179 13.0019C98.7344 16.5824 97.5331 20.2365 96.5536 23.6844C96.0398 25.493 95.563 27.3164 95.3449 29.1877C95.1527 30.8563 95.2562 32.5397 95.1897 34.2158C95.1231 35.8918 94.8607 37.7078 93.6335 38.9934C93.36 39.2807 93.3822 39.6822 93.6335 39.9696C94.6278 41.1262 94.9605 42.7802 94.6167 44.2499C94.2545 45.8007 93.1789 46.9537 91.7484 47.6167C90.3179 48.2798 88.6176 48.4234 87.0393 48.4787C86.1743 48.5081 85.3057 48.5045 84.4408 48.5081C83.5204 48.5118 82.5482 48.5192 81.8422 49.197C81.2878 49.7311 81.1141 50.5636 80.3637 50.8878C79.6134 51.2119 78.7817 51.2082 78.0276 51.4882C76.2312 52.1512 75.3256 53.8862 74.6603 55.5586C73.8989 57.4667 73.4812 59.5184 73.4146 61.5702C73.3629 63.1468 73.3259 65.4601 74.956 66.3257C76.8411 67.3276 78.693 65.519 80.6077 65.5779C82.308 65.6295 83.8937 66.6388 84.6441 68.1528C84.9213 68.7164 85.7419 68.5175 85.9119 67.987C86.8692 64.9923 85.9821 61.817 86.6807 58.7854C87.3054 56.0743 88.8431 53.6689 90.584 51.5287C91.6005 50.2763 92.6946 49.0902 93.7998 47.9151C94.4097 47.2668 93.4302 46.2869 92.8203 46.9389C90.828 49.0644 88.832 51.2414 87.3165 53.7462C86.5772 54.9655 85.9599 56.2732 85.5533 57.6398C85.1135 59.1132 84.9878 60.6309 84.9989 62.1632C85.01 63.994 85.1468 65.8468 84.5812 67.615L85.8491 67.4492C85.1283 65.9905 83.7606 64.9259 82.2156 64.4508C81.4652 64.2224 80.652 64.1303 79.8721 64.2187C78.9443 64.3255 78.1348 64.7086 77.2625 65.007C76.575 65.2427 75.7248 65.449 75.2443 64.7418C74.7638 64.0345 74.8081 63.0878 74.8008 62.3069C74.7786 60.2588 75.1445 58.2255 75.8579 56.3026C76.1795 55.4407 76.5602 54.5492 77.1294 53.8199C77.6654 53.1347 78.3233 52.7848 79.1624 52.5969C79.946 52.4238 80.7814 52.3207 81.4541 51.8492C81.8053 51.6024 82.0714 51.2929 82.3043 50.9356C82.515 50.6115 82.685 50.1805 83.0583 50.0111C83.4317 49.8416 83.8641 49.8821 84.2485 49.8821C84.6773 49.8821 85.1061 49.8821 85.5349 49.8748C86.4072 49.8711 87.2758 49.8563 88.1482 49.79C89.7856 49.6685 91.4601 49.3775 92.909 48.5708C94.5465 47.6572 95.733 46.0843 96.0398 44.2278C96.3466 42.3713 95.8735 40.4337 94.6241 38.9824V39.9585C97.1007 37.3653 96.4834 33.5638 96.646 30.3001C96.8419 26.4176 98.4868 22.804 99.1854 19.0099C99.5772 16.8845 99.6548 14.7185 99.0634 12.6225C98.9895 12.3573 98.6938 12.081 98.3944 12.1142C95.6221 12.4383 93.2639 14.2654 92.2954 16.8808L93.5633 16.715C93.1086 15.7462 92.5764 14.818 91.9591 13.9413C91.4564 13.234 90.7947 12.0258 89.7856 12.0921C88.7765 12.1584 88.2036 13.3445 87.882 14.1218C87.4865 15.0758 87.3978 16.0741 87.5383 17.0907L88.3921 16.2398C87.6159 15.9378 87.5161 14.6485 87.2574 13.9855C86.8951 13.0572 86.215 12.0774 85.132 11.9779C84.0489 11.8784 83.2801 12.733 83.0177 13.6945C82.7072 14.818 83.2358 16.0114 82.7996 17.0944L83.8161 16.6819C82.7405 15.8604 81.8496 14.8216 81.1658 13.6576C80.981 13.3408 80.5374 13.2156 80.2159 13.4108C78.9998 14.1512 78.5451 15.5473 78.5562 16.9066C78.571 18.5789 79.4433 20.2218 79.1476 21.8978H80.4857C80.031 20.7043 78.571 20.5128 77.5915 21.2164C76.2127 22.2109 76.7598 24.0896 77.4251 25.3383L78.2088 24.3253C75.1075 23.7212 71.8548 26.4508 72.1468 29.6555L73.1892 29.0587C72.047 28.1894 70.4058 28.753 69.5668 29.7734C68.4579 31.1179 68.7388 32.9855 69.0234 34.562L70.0399 33.7811C68.6907 33.2138 67.2418 33.7516 66.3953 34.912C65.4084 36.2712 65.6598 38.113 66.2031 39.5902L67.4709 39.0597C66.4766 37.7189 64.573 38.0541 63.575 39.2328C62.1372 40.9384 63.3015 43.2369 64.2958 44.8393L65.0794 43.8263C63.7598 43.55 62.1852 44.1541 61.7823 45.5392C61.3794 46.9242 62.3626 48.3092 63.7525 48.4308C64.5213 48.5008 64.7098 47.1968 63.9373 47.0752C62.9356 46.9168 62.0411 47.3773 61.4977 48.2245C60.9174 49.127 60.9802 50.2615 61.0726 51.2782L62.2554 50.7883C61.0689 49.8195 59.4684 50.7109 59.0729 52.0407C58.8253 52.8695 59.0101 53.7131 58.9546 54.5529C58.9214 55.0502 58.7587 55.7059 58.208 55.8385C57.8236 55.9306 57.6535 56.3321 57.7238 56.6894C57.9123 57.6472 57.5685 58.6049 57.2211 59.4853C56.8403 60.4467 56.43 61.3823 56.1676 62.3843C55.6501 64.3771 55.5799 66.4362 55.8978 68.4659C55.9532 68.8342 56.419 69.0405 56.7516 68.9484C57.1471 68.8379 57.295 68.4696 57.2358 68.0975L57.2063 68.1307Z" fill="white"/>
<path d="M72.4758 81.4985L71.8954 85.6535C71.755 86.6518 71.5073 87.8195 72.1431 88.7073C72.8232 89.6613 73.9321 89.5361 74.9634 89.5729C75.7174 89.6024 76.3347 90.037 76.8633 90.5417C78.0942 91.7168 79.0922 93.286 80.8479 93.7206C81.3765 93.8496 81.9236 93.8643 82.4558 93.9601C83.0583 94.0706 83.4797 94.31 83.8863 94.7741C84.5923 95.5809 85.1467 96.4944 85.8971 97.2753C87.6196 99.0655 89.7856 100.395 92.1513 101.162C93.0014 101.438 93.3674 100.104 92.5209 99.828C90.5729 99.1945 88.7765 98.1299 87.298 96.7117C86.555 96.0008 85.9488 95.2088 85.3389 94.3874C84.6847 93.507 83.9417 92.8366 82.8291 92.6303C81.894 92.4572 80.9995 92.4756 80.1937 91.9083C79.5653 91.47 79.0626 90.8585 78.5488 90.2949C78.0054 89.7018 77.4325 89.1051 76.7302 88.6999C75.9281 88.2358 75.1186 88.1989 74.213 88.1915C73.8101 88.1915 73.3555 88.1768 73.1928 87.7421C73.0117 87.2706 73.1448 86.6813 73.2113 86.1987C73.4146 84.7547 73.6142 83.3108 73.8175 81.8631C73.8693 81.4911 73.7251 81.1264 73.3333 81.0122C73.008 80.9201 72.5312 81.1264 72.4795 81.4948L72.4758 81.4985Z" fill="white"/>
<path d="M96.3651 74.7317C96.4131 74.7796 96.4686 74.8274 96.5314 74.8569C96.6756 74.9269 96.7458 74.949 96.9084 74.9564C97.0452 74.9637 97.2041 74.9122 97.3187 74.8459C97.4518 74.7685 97.5331 74.6764 97.6181 74.5512C97.6551 74.4959 97.6921 74.3854 97.7032 74.3596C97.729 74.2933 97.7327 74.2086 97.7364 74.1423C97.7364 74.0723 97.729 73.9986 97.7105 73.9286V73.9213C97.6994 73.8955 97.6514 73.7776 97.6403 73.7518C97.6403 73.7518 97.6403 73.7445 97.6366 73.7445C97.6366 73.7445 97.6366 73.7408 97.6329 73.7408L97.5257 73.6008C97.4814 73.5456 97.4185 73.505 97.3594 73.4719C97.3003 73.4387 97.2337 73.4056 97.1635 73.3908C96.9934 73.3614 96.938 73.354 96.768 73.3908C96.6978 73.4056 96.6312 73.4387 96.5721 73.4719C96.5684 73.4719 96.561 73.4756 96.5573 73.4792C96.5573 73.4792 96.5499 73.4829 96.5499 73.4866C96.5129 73.5124 96.4427 73.5677 96.4057 73.5971C96.3946 73.6045 96.3873 73.6155 96.3762 73.6266C96.3466 73.6634 96.2912 73.7297 96.2653 73.7703C96.2653 73.7739 96.2616 73.7776 96.2579 73.7813C96.2579 73.7887 96.2505 73.7924 96.2505 73.7997C96.1766 73.9544 96.1581 74.006 96.147 74.1791C96.1433 74.2528 96.1544 74.3265 96.1766 74.3965C96.2172 74.5328 96.2764 74.6285 96.3725 74.7317L97.352 73.7555C97.352 73.7555 97.3483 73.7482 97.3446 73.7482L97.4518 73.8881C97.4518 73.8881 97.4444 73.8771 97.4407 73.8734L97.5109 74.0392C97.5109 74.0392 97.5072 74.0244 97.5035 74.0171L97.5294 74.2012C97.5294 74.2012 97.5294 74.1828 97.5294 74.1754L97.5035 74.3596C97.5035 74.3596 97.5072 74.3412 97.5109 74.3302L97.4407 74.4959C97.4407 74.4959 97.4518 74.4738 97.4592 74.4665L97.352 74.6064C97.352 74.6064 97.3668 74.5917 97.3742 74.5843L97.2337 74.6912C97.2337 74.6912 97.2522 74.6801 97.2596 74.6764L97.0933 74.7464C97.0933 74.7464 97.108 74.739 97.1191 74.739L96.9343 74.7648C96.9343 74.7648 96.9491 74.7648 96.9565 74.7648L96.7717 74.739C96.7717 74.739 96.7902 74.7427 96.7975 74.7464L96.6312 74.6764C96.6312 74.6764 96.646 74.6838 96.6571 74.6912L96.5166 74.5843C96.5166 74.5843 96.5351 74.5991 96.5425 74.6101L96.4353 74.4701C96.4353 74.4701 96.4501 74.4922 96.4538 74.5033L96.3836 74.3375C96.3836 74.3375 96.3946 74.367 96.3946 74.3817L96.3688 74.1976C96.3688 74.1976 96.3688 74.227 96.3688 74.2454L96.3946 74.0613C96.3946 74.0613 96.391 74.087 96.3836 74.0981L96.4538 73.9323C96.4538 73.9323 96.439 73.9618 96.4279 73.9729L96.5351 73.8329C96.5351 73.8329 96.5129 73.855 96.5018 73.866L96.6423 73.7592C96.6423 73.7592 96.6053 73.7813 96.5869 73.7924L96.7532 73.7224C96.731 73.7334 96.7051 73.7371 96.683 73.7408L96.8678 73.715C96.8678 73.715 96.8382 73.715 96.8234 73.715L97.4925 74.2233C97.4999 74.2823 97.5072 74.3412 97.5183 74.4038C97.5183 74.3891 97.5183 74.3744 97.5183 74.3596L97.4925 74.5438C97.4925 74.5438 97.4998 74.5143 97.5035 74.5033L97.4333 74.6691C97.4333 74.6691 97.4481 74.6396 97.4592 74.6285L97.352 74.7685C97.352 74.7685 97.3779 74.739 97.3963 74.7243L97.2559 74.8311C97.2559 74.8311 97.2929 74.8053 97.3113 74.798L97.145 74.868C97.1635 74.8606 97.1857 74.8532 97.2078 74.8495L97.023 74.8753C97.0415 74.8753 97.06 74.8753 97.0785 74.8753L96.8937 74.8495C96.8937 74.8495 96.9232 74.8569 96.938 74.8606L96.7717 74.7906C96.7717 74.7906 96.7975 74.8017 96.8086 74.8127L96.6682 74.7059C96.6682 74.7059 96.6756 74.7133 96.6793 74.7169L96.5018 74.0465C96.5018 74.0465 96.4945 74.0723 96.4908 74.0834L96.561 73.9176C96.561 73.9176 96.5462 73.9434 96.5388 73.9581L96.646 73.8181C96.646 73.8181 96.6238 73.8439 96.609 73.855L96.7495 73.7482C96.7495 73.7482 96.7162 73.7703 96.6978 73.7776L96.8641 73.7076C96.8419 73.715 96.8234 73.7224 96.8012 73.7261L96.9861 73.7003C96.9676 73.7003 96.9491 73.7003 96.9269 73.7003L97.1117 73.7261C97.1117 73.7261 97.0785 73.7187 97.0637 73.7113L97.23 73.7813C97.23 73.7813 97.2041 73.7703 97.1931 73.7592L97.3335 73.866C97.3335 73.866 97.3261 73.8587 97.3224 73.855C97.2596 73.7887 97.1857 73.7408 97.1006 73.7113C97.0193 73.6671 96.9306 73.6487 96.8345 73.6524C96.7384 73.6524 96.6497 73.6671 96.5684 73.7113C96.4834 73.7408 96.4094 73.785 96.3466 73.855L96.2394 73.995C96.1766 74.1018 96.147 74.2197 96.1433 74.3449L96.1692 74.5291C96.2024 74.647 96.2616 74.7464 96.3466 74.8348C96.3466 74.8348 96.354 74.8385 96.354 74.8422C96.3984 74.879 96.4538 74.9232 96.5018 74.9564C96.5092 74.9601 96.5166 74.9674 96.524 74.9711C96.524 74.9711 96.5314 74.9711 96.5351 74.9748C96.5906 75.0006 96.6497 75.0264 96.7088 75.0485C96.7162 75.0485 96.7273 75.0558 96.7347 75.0558C96.7384 75.0558 96.7421 75.0558 96.7458 75.0558C96.8049 75.0669 96.8789 75.0742 96.938 75.0816C96.9454 75.0816 96.9565 75.0816 96.9639 75.0816C96.9713 75.0816 96.9824 75.0816 96.9898 75.0816C97.0526 75.0742 97.1228 75.0669 97.182 75.0558C97.1857 75.0558 97.1894 75.0558 97.1968 75.0558C97.2411 75.0485 97.2855 75.0227 97.3261 75.0079C97.3668 74.9932 97.4111 74.9748 97.4518 74.949C97.4777 74.9306 97.5072 74.9048 97.5331 74.8864C97.559 74.868 97.5849 74.8459 97.6107 74.8274C97.6181 74.8238 97.6218 74.8164 97.6292 74.809C97.6292 74.809 97.6329 74.8017 97.6366 74.8017C97.6736 74.7538 97.7142 74.7059 97.7512 74.6543C97.7549 74.647 97.7623 74.6396 97.766 74.6322C97.766 74.6322 97.766 74.6249 97.7697 74.6212C97.7956 74.5659 97.8214 74.507 97.8436 74.448C97.8436 74.4407 97.851 74.4296 97.851 74.4223C97.851 74.4186 97.851 74.4149 97.851 74.4112L97.8621 74.3191C97.8769 74.2565 97.8769 74.1976 97.8621 74.1349L97.851 74.0428L97.7808 73.8771C97.7808 73.8771 97.6736 73.7408 97.6699 73.7371C97.6699 73.7371 97.6699 73.7371 97.6662 73.7334C97.6625 73.7297 97.6662 73.7334 97.6625 73.7297C97.6292 73.7003 97.5553 73.645 97.5183 73.6192C97.5109 73.6155 97.5035 73.6082 97.4962 73.6045C97.4962 73.6045 97.4888 73.6045 97.4851 73.6008C97.4592 73.5861 97.4111 73.5713 97.4 73.564C97.3779 73.5529 97.3409 73.5382 97.3113 73.5271C97.3039 73.5271 97.2966 73.5235 97.2892 73.5198C97.2855 73.5198 97.2818 73.5198 97.2781 73.5198C97.2152 73.5087 97.1487 73.5014 97.0859 73.494C97.0711 73.494 97.0526 73.494 97.0378 73.494C96.975 73.5014 96.9084 73.5087 96.8456 73.5198C96.8419 73.5198 96.8382 73.5198 96.8345 73.5198C96.8271 73.5198 96.8197 73.5198 96.8086 73.5271C96.7975 73.5345 96.7939 73.5308 96.7865 73.5345C96.731 73.5566 96.6682 73.5824 96.6127 73.6082C96.609 73.6082 96.6053 73.6119 96.6016 73.6155C96.5943 73.6155 96.5869 73.6229 96.5832 73.6266C96.5795 73.6266 96.5758 73.6303 96.5721 73.634C96.5203 73.6708 96.4723 73.7076 96.4242 73.7482C96.4094 73.7592 96.3983 73.7739 96.3836 73.785C96.3466 73.8329 96.3059 73.8844 96.269 73.9323C96.269 73.9323 96.2653 73.9397 96.2616 73.9434C96.2579 73.9508 96.2542 73.9581 96.2505 73.9655C96.2505 73.9655 96.2505 73.9655 96.2505 73.9692C96.2283 74.0207 96.1987 74.087 96.1803 74.1386C96.1803 74.1423 96.1803 74.146 96.1766 74.1497C96.1766 74.157 96.1729 74.1644 96.1692 74.1754C96.1618 74.216 96.147 74.3191 96.1433 74.3596C96.1433 74.3596 96.1433 74.3633 96.1433 74.367C96.1433 74.3707 96.1433 74.3781 96.1433 74.3817C96.1433 74.3854 96.1433 74.3891 96.1433 74.3965C96.1507 74.4591 96.1581 74.5291 96.1692 74.5917L96.2394 74.7575C96.2838 74.8385 96.3429 74.9011 96.4168 74.9527C96.4612 74.9969 96.5092 75.0264 96.5684 75.0411C96.6497 75.0853 96.7384 75.1037 96.8345 75.1C96.9084 75.1 97.0045 75.0816 97.0637 75.0742C97.0822 75.0742 97.097 75.0669 97.1154 75.0632C97.1857 75.0411 97.2559 75.0116 97.3187 74.9785C97.3816 74.9453 97.4518 74.8827 97.4998 74.8459C97.5331 74.8164 97.559 74.7796 97.5849 74.7464C97.6107 74.7133 97.644 74.6764 97.6625 74.6359C97.681 74.5954 97.7327 74.5033 97.7438 74.4333C97.7512 74.3781 97.7623 74.3007 97.7697 74.2454C97.7697 74.2454 97.7697 74.2381 97.7697 74.2344C97.7697 74.227 97.7697 74.2197 97.7697 74.2123C97.7549 74.0539 97.7364 73.9287 97.6514 73.7924C97.6514 73.7924 97.6477 73.785 97.644 73.785C97.6144 73.7445 97.5664 73.6818 97.5331 73.6413C97.5294 73.6376 97.5257 73.6303 97.5183 73.6266C97.4666 73.575 97.4111 73.5271 97.3446 73.494C97.2005 73.424 97.1894 73.4203 97.0563 73.4019C97.0378 73.4019 96.9824 73.3872 96.9491 73.3872C96.8826 73.3872 96.8123 73.3982 96.7458 73.4129C96.6201 73.4461 96.4686 73.5308 96.3836 73.6266C96.3392 73.6782 96.2838 73.7371 96.2542 73.7997C96.1766 73.9581 96.1655 74.006 96.1507 74.1828C96.1433 74.2565 96.1544 74.3338 96.1803 74.4001C96.2246 74.5364 96.2764 74.6322 96.3799 74.7354C96.4427 74.8017 96.5166 74.8495 96.6016 74.879C96.683 74.9232 96.7717 74.9416 96.8678 74.938C96.9639 74.938 97.0526 74.9232 97.1339 74.879C97.2189 74.8495 97.2929 74.8053 97.3557 74.7354L97.4629 74.5954C97.5257 74.4886 97.5553 74.3707 97.559 74.2454L97.5331 74.0613C97.4998 73.9434 97.4407 73.8439 97.3557 73.7555C97.3557 73.7555 97.352 73.7518 97.3483 73.7482L97.4555 73.8881C97.4555 73.8881 97.4481 73.8771 97.4444 73.8697L97.5146 74.0355C97.5146 74.0355 97.5109 74.0207 97.5109 74.0134L97.5368 74.1976C97.5368 74.1976 97.5368 74.1828 97.5368 74.1754L97.5109 74.3596C97.5109 74.3596 97.5146 74.3412 97.5183 74.3302L97.4481 74.4959C97.4481 74.4959 97.4592 74.4738 97.4666 74.4628L97.3594 74.6027C97.3594 74.6027 97.3779 74.5806 97.389 74.5733L97.2485 74.6801C97.2485 74.6801 97.2707 74.6654 97.2818 74.6617L97.1154 74.7317C97.1154 74.7317 97.1339 74.7243 97.145 74.7243L96.9602 74.7501C96.9602 74.7501 96.975 74.7501 96.9824 74.7501L96.7975 74.7243C96.7975 74.7243 96.8123 74.7243 96.8197 74.728L96.6534 74.658C96.6534 74.658 96.6645 74.6654 96.6719 74.6691L96.5314 74.5622C96.5314 74.5622 96.5425 74.5733 96.5499 74.5806L96.4427 74.4407C96.4427 74.4407 96.4501 74.4517 96.4538 74.4591L96.3836 74.2933C96.3836 74.2933 96.3873 74.3081 96.391 74.3154L96.3651 74.1312C96.3651 74.1312 96.3651 74.146 96.3651 74.1533L96.391 73.9692C96.391 73.9692 96.3873 73.9876 96.3836 73.9986L96.4538 73.8329C96.4538 73.8329 96.4427 73.855 96.4353 73.866L96.5425 73.7261C96.5425 73.7261 96.524 73.7482 96.5129 73.7555L96.6534 73.6487C96.6534 73.6487 96.6312 73.6634 96.6201 73.6708L96.7865 73.6008C96.7865 73.6008 96.768 73.6082 96.7569 73.6082L96.9417 73.5824C96.9417 73.5824 96.9269 73.5824 96.9158 73.5824L97.1006 73.6082C97.1006 73.6082 97.0896 73.6082 97.0822 73.6045L97.2485 73.6745C97.2485 73.6745 97.2374 73.6671 97.23 73.6634L97.3705 73.7703C97.3705 73.7703 97.3631 73.7629 97.3594 73.7629C97.2966 73.6966 97.2226 73.6487 97.1376 73.6192C97.0563 73.575 96.9676 73.5566 96.8715 73.5603C96.7754 73.5603 96.6867 73.575 96.6053 73.6192C96.5203 73.6487 96.4464 73.6929 96.3836 73.7629L96.2764 73.9029C96.2135 74.0097 96.184 74.1276 96.1803 74.2528L96.2061 74.437C96.2394 74.5549 96.2985 74.6543 96.3836 74.7427L96.3651 74.7317Z" fill="white"/>
<path d="M61.372 52.0776C65.2014 52.3133 69.0456 52.0039 72.79 51.1788C73.6586 50.9872 73.2927 49.6537 72.4203 49.8453C68.7942 50.6483 65.0794 50.9283 61.372 50.6962C60.4812 50.6409 60.4849 52.0223 61.372 52.0776Z" fill="white"/>
<path d="M64.6654 45.8081C69.3302 45.8081 73.9987 45.8081 78.6634 45.8081C79.5542 45.8081 79.5579 44.4267 78.6634 44.4267C73.9987 44.4267 69.3302 44.4267 64.6654 44.4267C63.7746 44.4267 63.7709 45.8081 64.6654 45.8081Z" fill="white"/>
<path d="M68.7794 36.1865C72.6717 35.9729 76.5121 37.1627 79.6097 39.5202C79.9091 39.7485 80.3822 39.5644 80.5596 39.2734C80.7703 38.9197 80.6077 38.5551 80.312 38.3267C77.0407 35.8403 72.8861 34.5768 68.7794 34.8052C67.8923 34.853 67.8849 36.2344 68.7794 36.1865Z" fill="white"/>
<path d="M79.2252 19.1535C78.4453 25.7398 79.1107 32.4734 81.1473 38.7834C81.4209 39.627 82.7589 39.266 82.4854 38.4151C80.482 32.2082 79.8462 25.6293 80.6114 19.1535C80.6557 18.7815 80.2602 18.461 79.9165 18.461C79.5062 18.461 79.2659 18.7778 79.2216 19.1535H79.2252Z" fill="white"/>
<path d="M82.6369 18.3137C82.6369 25.5151 82.6369 32.7202 82.6369 39.9217C82.6369 40.8094 84.0231 40.8131 84.0231 39.9217C84.0231 32.7202 84.0231 25.5151 84.0231 18.3137C84.0231 17.4259 82.6369 17.4223 82.6369 18.3137Z" fill="white"/>
<path d="M87.9597 16.4166C88.6102 22.9955 88.4771 29.6592 87.4976 36.1976C87.2204 38.0467 86.8803 39.8848 86.4774 41.7082C86.2852 42.5739 87.6233 42.9459 87.8155 42.0766C89.2571 35.5271 89.9076 28.8046 89.7117 22.1004C89.6563 20.2034 89.5306 18.3063 89.3458 16.4203C89.3088 16.0483 89.0538 15.7278 88.6509 15.7278C88.3034 15.7278 87.919 16.0446 87.956 16.4203L87.9597 16.4166Z" fill="white"/>
<path d="M92.8425 16.6708C92.5135 23.6033 93.6446 30.8379 91.0609 37.4758C90.4251 39.1039 89.5417 40.651 88.4069 41.9845C87.834 42.6586 88.8098 43.6384 89.3864 42.9606C94.0364 37.5089 94.2656 30.0791 94.1879 23.2829C94.1621 21.0801 94.1288 18.8736 94.2323 16.6745C94.273 15.7867 92.8868 15.7867 92.8462 16.6745L92.8425 16.6708Z" fill="white"/>
<path d="M81.2065 122.246C81.5798 114.765 81.3506 107.262 80.5226 99.8133C80.482 99.4413 80.2343 99.1208 79.8277 99.1208C79.484 99.1208 79.0922 99.4376 79.1328 99.8133C79.9608 107.258 80.19 114.765 79.8166 122.246C79.7723 123.134 81.1584 123.134 81.2028 122.246H81.2065Z" fill="white"/>
<path d="M87.2647 119.237C87.6085 115.627 87.2943 112.01 86.7214 108.44C86.4368 106.661 86.0819 104.893 85.7086 103.129C85.3353 101.364 85.0026 99.6402 84.5073 97.9347C84.2596 97.0838 82.9216 97.4448 83.1692 98.303C83.6571 99.9791 83.9898 101.703 84.352 103.408C84.7143 105.114 85.0691 106.882 85.3537 108.628C85.9267 112.131 86.2113 115.693 85.8749 119.237C85.7899 120.121 87.176 120.117 87.2611 119.237H87.2647Z" fill="white"/>
<path d="M94.687 116.257C95.4854 109.833 90.5323 104.808 88.0003 99.3934C87.6233 98.5867 86.4294 99.2902 86.8027 100.09C89.2275 105.269 94.0623 110.116 93.2971 116.253C93.2528 116.625 93.6483 116.946 93.992 116.946C94.406 116.946 94.6389 116.625 94.687 116.253V116.257Z" fill="white"/>
<path d="M62.4513 106.098C64.5804 104.182 66.3362 101.854 67.5818 99.2755C67.7445 98.9403 67.6742 98.5277 67.3342 98.3288C67.0311 98.152 66.5506 98.2404 66.3842 98.5756C65.1829 101.058 63.5233 103.272 61.4681 105.118C60.8028 105.714 61.786 106.691 62.4477 106.094L62.4513 106.098Z" fill="white"/>
<path d="M58.84 97.8647C61.8451 97.058 64.7394 95.8608 67.4377 94.3211C68.2102 93.879 67.5153 92.6855 66.7391 93.1276C64.1369 94.6121 61.3683 95.754 58.4741 96.5312C57.6129 96.7633 57.9788 98.0967 58.8437 97.8647H58.84Z" fill="white"/>
<path d="M65.3271 111.431C67.9034 108.002 69.9623 104.223 71.4815 100.215C71.7956 99.3823 70.4576 99.0213 70.1434 99.8465C68.6686 103.736 66.6319 107.402 64.1295 110.731C63.904 111.034 64.0814 111.501 64.3771 111.678C64.7283 111.888 65.1016 111.726 65.3271 111.431Z" fill="white"/>
<path d="M72.7086 115.133C72.9378 112.676 73.1633 110.219 73.3925 107.763C73.4257 107.39 73.0487 107.07 72.6975 107.07C72.2946 107.07 72.0396 107.387 72.0026 107.763C71.7735 110.219 71.548 112.676 71.3188 115.133C71.2856 115.505 71.6626 115.826 72.0137 115.826C72.4166 115.826 72.6717 115.509 72.7086 115.133Z" fill="white"/>
</g>
<path d="M69.752 51.296C70.168 51.296 70.488 51.488 70.712 51.872C70.968 52.256 71.096 52.784 71.096 53.456C71.096 54.704 70.792 55.696 70.184 56.432C67.016 60.304 63.64 62.24 60.056 62.24C56.952 62.24 54.472 61.04 52.616 58.64C50.76 56.24 49.832 52.8 49.832 48.32C49.832 47.232 49.88 46.144 49.976 45.056C47.864 45.44 45.56 45.728 43.064 45.92C41.4 46.048 40.264 46.128 39.656 46.16C39.016 49.424 38.12 53.424 36.968 58.16C36.296 60.944 35.016 62.336 33.128 62.336C31.08 62.336 30.056 61.408 30.056 59.552C30.056 59.136 30.136 58.56 30.296 57.824C31.384 53.44 32.248 49.728 32.888 46.688L30.584 46.784C29.528 46.784 28.76 46.608 28.28 46.256C27.8 45.872 27.56 45.264 27.56 44.432C27.56 43.376 27.864 42.608 28.472 42.128C29.08 41.616 30.088 41.328 31.496 41.264L34.04 41.168C34.872 36.656 35.288 33.216 35.288 30.848C35.288 29.344 35.064 28.32 34.616 27.776C34.168 27.232 33.576 26.96 32.84 26.96C30.6 26.96 28.072 28.832 25.256 32.576C24.84 33.12 24.376 33.392 23.864 33.392C23.416 33.392 23.032 33.184 22.712 32.768C22.392 32.352 22.232 31.824 22.232 31.184C22.232 30.192 22.632 29.136 23.432 28.016C24.84 26.064 26.616 24.464 28.76 23.216C30.904 21.936 33.08 21.296 35.288 21.296C37.368 21.296 38.968 22.016 40.088 23.456C41.24 24.864 41.816 27.072 41.816 30.08C41.816 32.736 41.432 36.336 40.664 40.88L45.368 40.64C47.384 40.544 49.112 40.384 50.552 40.16C51.128 36.64 52.008 33.344 53.192 30.272C54.376 27.2 55.848 24.704 57.608 22.784C59.368 20.864 61.336 19.904 63.512 19.904C65.112 19.904 66.376 20.544 67.304 21.824C68.232 23.072 68.696 24.72 68.696 26.768C68.696 34.704 64.648 40.208 56.552 43.28C56.456 44.56 56.408 45.888 56.408 47.264C56.408 50.624 56.824 53.008 57.656 54.416C58.488 55.824 59.656 56.528 61.16 56.528C62.472 56.528 63.672 56.192 64.76 55.52C65.848 54.816 67.08 53.632 68.456 51.968C68.84 51.52 69.272 51.296 69.752 51.296ZM63.272 24.08C62.568 24.08 61.816 24.72 61.016 26C60.248 27.28 59.512 29.024 58.808 31.232C58.104 33.44 57.544 35.856 57.128 38.48C59.688 37.424 61.576 35.92 62.792 33.968C64.008 32.016 64.616 29.504 64.616 26.432C64.616 25.696 64.488 25.12 64.232 24.704C63.976 24.288 63.656 24.08 63.272 24.08ZM73.1143 62.24C71.1303 62.24 69.5463 61.52 68.3623 60.08C67.1783 58.64 66.5863 56.752 66.5863 54.416C66.5863 51.856 67.1783 49.44 68.3623 47.168C69.5463 44.864 71.1143 43.024 73.0663 41.648C75.0503 40.24 77.1463 39.536 79.3543 39.536C80.0583 39.536 80.5223 39.68 80.7463 39.968C81.0023 40.224 81.2103 40.704 81.3703 41.408C82.0423 41.28 82.7463 41.216 83.4823 41.216C85.0503 41.216 85.8343 41.776 85.8343 42.896C85.8343 43.568 85.5943 45.168 85.1143 47.696C84.3783 51.376 84.0103 53.936 84.0103 55.376C84.0103 55.856 84.1223 56.24 84.3463 56.528C84.6023 56.816 84.9223 56.96 85.3063 56.96C85.9143 56.96 86.6503 56.576 87.5143 55.808C88.3783 55.008 89.5463 53.728 91.0183 51.968C91.4023 51.52 91.8343 51.296 92.3143 51.296C92.7303 51.296 93.0503 51.488 93.2743 51.872C93.5303 52.256 93.6583 52.784 93.6583 53.456C93.6583 54.736 93.3543 55.728 92.7463 56.432C91.4343 58.064 90.0423 59.44 88.5703 60.56C87.0983 61.68 85.6743 62.24 84.2983 62.24C83.2423 62.24 82.2663 61.888 81.3703 61.184C80.5063 60.448 79.8503 59.456 79.4023 58.208C77.7383 60.896 75.6423 62.24 73.1143 62.24ZM74.8423 57.392C75.5463 57.392 76.2183 56.976 76.8583 56.144C77.4983 55.312 77.9623 54.208 78.2503 52.832L80.0263 44C78.6823 44.032 77.4343 44.544 76.2823 45.536C75.1623 46.496 74.2663 47.776 73.5943 49.376C72.9223 50.976 72.5863 52.672 72.5863 54.464C72.5863 55.456 72.7783 56.192 73.1623 56.672C73.5783 57.152 74.1383 57.392 74.8423 57.392ZM93.1651 62.24C91.9491 62.24 91.0851 61.6 90.5731 60.32C90.0931 59.04 89.8531 56.992 89.8531 54.176C89.8531 50.016 90.4451 46.064 91.6291 42.32C91.9171 41.392 92.3811 40.72 93.0211 40.304C93.6931 39.856 94.6211 39.632 95.8051 39.632C96.4451 39.632 96.8931 39.712 97.1491 39.872C97.4051 40.032 97.5331 40.336 97.5331 40.784C97.5331 41.296 97.2931 42.448 96.8131 44.24C96.4931 45.52 96.2371 46.64 96.0451 47.6C95.8531 48.56 95.6931 49.744 95.5651 51.152C96.6211 48.4 97.8051 46.16 99.1171 44.432C100.429 42.704 101.709 41.472 102.957 40.736C104.237 40 105.405 39.632 106.461 39.632C108.541 39.632 109.581 40.672 109.581 42.752C109.581 43.168 109.437 44.176 109.149 45.776C108.893 47.056 108.765 47.856 108.765 48.176C108.765 49.296 109.165 49.856 109.965 49.856C110.861 49.856 112.013 49.152 113.421 47.744C113.837 47.328 114.269 47.12 114.717 47.12C115.133 47.12 115.453 47.312 115.677 47.696C115.933 48.048 116.061 48.528 116.061 49.136C116.061 50.32 115.741 51.248 115.101 51.92C114.205 52.848 113.149 53.648 111.933 54.32C110.749 54.96 109.485 55.28 108.141 55.28C106.445 55.28 105.149 54.848 104.253 53.984C103.389 53.12 102.957 51.952 102.957 50.48C102.957 50 103.005 49.52 103.101 49.04C103.165 48.4 103.197 47.968 103.197 47.744C103.197 47.232 103.021 46.976 102.669 46.976C102.189 46.976 101.549 47.52 100.749 48.608C99.9811 49.664 99.2131 51.072 98.4451 52.832C97.6771 54.592 97.0531 56.448 96.5731 58.4C96.2211 59.904 95.8051 60.928 95.3251 61.472C94.8771 61.984 94.1571 62.24 93.1651 62.24ZM129.793 51.296C130.209 51.296 130.529 51.488 130.753 51.872C131.009 52.256 131.137 52.784 131.137 53.456C131.137 54.736 130.833 55.728 130.225 56.432C128.849 58.128 127.345 59.52 125.713 60.608C124.113 61.696 122.289 62.24 120.241 62.24C117.425 62.24 115.329 60.96 113.953 58.4C112.609 55.84 111.937 52.528 111.937 48.464C111.937 44.56 112.433 40.112 113.425 35.12C114.449 30.128 115.937 25.84 117.889 22.256C119.873 18.672 122.225 16.88 124.945 16.88C126.481 16.88 127.681 17.6 128.545 19.04C129.441 20.448 129.889 22.48 129.889 25.136C129.889 28.944 128.833 33.36 126.721 38.384C124.609 43.408 121.745 48.384 118.129 53.312C118.353 54.624 118.721 55.568 119.233 56.144C119.745 56.688 120.417 56.96 121.249 56.96C122.561 56.96 123.713 56.592 124.705 55.856C125.697 55.088 126.961 53.792 128.497 51.968C128.881 51.52 129.313 51.296 129.793 51.296ZM123.889 21.632C123.153 21.632 122.321 22.96 121.393 25.616C120.465 28.272 119.649 31.568 118.945 35.504C118.241 39.44 117.857 43.216 117.793 46.832C120.065 43.088 121.873 39.344 123.217 35.6C124.561 31.824 125.233 28.384 125.233 25.28C125.233 22.848 124.785 21.632 123.889 21.632ZM148.665 51.296C149.081 51.296 149.401 51.488 149.625 51.872C149.881 52.256 150.009 52.784 150.009 53.456C150.009 54.736 149.705 55.728 149.097 56.432C147.913 57.872 146.233 59.2 144.057 60.416C141.913 61.632 139.609 62.24 137.145 62.24C133.785 62.24 131.177 61.328 129.321 59.504C127.465 57.68 126.537 55.184 126.537 52.016C126.537 49.808 127.001 47.76 127.929 45.872C128.857 43.952 130.137 42.432 131.769 41.312C133.433 40.192 135.305 39.632 137.385 39.632C139.241 39.632 140.729 40.192 141.849 41.312C142.969 42.4 143.529 43.888 143.529 45.776C143.529 47.984 142.729 49.888 141.129 51.488C139.561 53.056 136.889 54.304 133.113 55.232C133.913 56.704 135.433 57.44 137.673 57.44C139.113 57.44 140.745 56.944 142.569 55.952C144.425 54.928 146.025 53.6 147.369 51.968C147.753 51.52 148.185 51.296 148.665 51.296ZM136.569 44.336C135.385 44.336 134.377 45.024 133.545 46.4C132.745 47.776 132.345 49.44 132.345 51.392V51.488C134.233 51.04 135.721 50.368 136.809 49.472C137.897 48.576 138.441 47.536 138.441 46.352C138.441 45.744 138.265 45.264 137.913 44.912C137.593 44.528 137.145 44.336 136.569 44.336ZM173.845 51.296C174.261 51.296 174.581 51.488 174.805 51.872C175.061 52.256 175.189 52.784 175.189 53.456C175.189 54.736 174.885 55.728 174.277 56.432C172.837 58.192 171.381 59.6 169.909 60.656C168.437 61.712 166.693 62.24 164.677 62.24C162.213 62.24 160.229 61.536 158.725 60.128C157.221 58.72 156.469 56.848 156.469 54.512C156.469 53.264 157.109 52.368 158.389 51.824C159.797 51.216 160.805 50.576 161.413 49.904C162.021 49.2 162.325 48.352 162.325 47.36C162.325 46.784 162.197 46.352 161.941 46.064C161.717 45.776 161.429 45.632 161.077 45.632C160.213 45.632 159.253 46.256 158.197 47.504C157.173 48.752 156.213 50.368 155.317 52.352C154.421 54.304 153.717 56.32 153.205 58.4C152.853 59.904 152.437 60.928 151.957 61.472C151.509 61.984 150.789 62.24 149.797 62.24C148.805 62.24 148.069 61.888 147.589 61.184C147.141 60.448 146.837 59.328 146.677 57.824C146.517 56.32 146.437 54.112 146.437 51.2C146.437 46.272 146.933 41.136 147.925 35.792C148.949 30.448 150.437 25.968 152.389 22.352C154.373 18.704 156.741 16.88 159.493 16.88C160.965 16.88 162.149 17.52 163.045 18.8C163.973 20.048 164.437 21.68 164.437 23.696C164.437 26.928 163.493 30.288 161.605 33.776C159.717 37.232 156.645 41.28 152.389 45.92C152.293 47.584 152.245 49.296 152.245 51.056C153.781 47.056 155.541 44.16 157.525 42.368C159.509 40.544 161.365 39.632 163.093 39.632C164.693 39.632 165.973 40.176 166.933 41.264C167.925 42.352 168.421 43.696 168.421 45.296C168.421 47.056 167.973 48.672 167.077 50.144C166.181 51.616 164.645 52.928 162.469 54.08C162.597 54.944 162.981 55.648 163.621 56.192C164.293 56.704 165.093 56.96 166.021 56.96C167.013 56.96 167.973 56.576 168.901 55.808C169.829 55.04 171.045 53.76 172.549 51.968C172.933 51.52 173.365 51.296 173.845 51.296ZM158.485 21.632C157.909 21.632 157.269 22.464 156.565 24.128C155.861 25.76 155.173 27.984 154.501 30.8C153.861 33.584 153.333 36.624 152.917 39.92C154.901 37.584 156.533 35.04 157.813 32.288C159.125 29.536 159.781 27.04 159.781 24.8C159.781 23.776 159.669 22.992 159.445 22.448C159.221 21.904 158.901 21.632 158.485 21.632ZM177.608 36.464C176.264 36.464 175.256 36.16 174.584 35.552C173.912 34.912 173.576 34.032 173.576 32.912C173.576 31.792 174.008 30.864 174.872 30.128C175.768 29.36 176.872 28.976 178.184 28.976C179.368 28.976 180.328 29.264 181.064 29.84C181.8 30.416 182.168 31.232 182.168 32.288C182.168 33.568 181.752 34.592 180.92 35.36C180.088 36.096 178.984 36.464 177.608 36.464ZM177.224 62.24C175.144 62.24 173.624 61.504 172.664 60.032C171.736 58.56 171.272 56.608 171.272 54.176C171.272 52.736 171.448 50.896 171.8 48.656C172.184 46.384 172.664 44.272 173.24 42.32C173.528 41.296 173.912 40.592 174.392 40.208C174.872 39.824 175.64 39.632 176.696 39.632C178.328 39.632 179.144 40.176 179.144 41.264C179.144 42.064 178.84 43.92 178.232 46.832C177.464 50.352 177.08 52.736 177.08 53.984C177.08 54.944 177.208 55.68 177.464 56.192C177.72 56.704 178.152 56.96 178.76 56.96C179.336 56.96 180.056 56.56 180.92 55.76C181.784 54.96 182.936 53.696 184.376 51.968C184.76 51.52 185.192 51.296 185.672 51.296C186.088 51.296 186.408 51.488 186.632 51.872C186.888 52.256 187.016 52.784 187.016 53.456C187.016 54.736 186.712 55.728 186.104 56.432C182.936 60.304 179.976 62.24 177.224 62.24ZM186.54 62.24C185.324 62.24 184.46 61.6 183.948 60.32C183.468 59.04 183.228 56.992 183.228 54.176C183.228 50.016 183.82 46.064 185.004 42.32C185.292 41.392 185.756 40.72 186.396 40.304C187.068 39.856 187.996 39.632 189.18 39.632C189.82 39.632 190.268 39.712 190.524 39.872C190.78 40.032 190.908 40.336 190.908 40.784C190.908 41.296 190.668 42.448 190.188 44.24C189.868 45.52 189.612 46.64 189.42 47.6C189.228 48.56 189.068 49.744 188.94 51.152C189.996 48.4 191.18 46.16 192.492 44.432C193.804 42.704 195.084 41.472 196.332 40.736C197.612 40 198.78 39.632 199.836 39.632C200.86 39.632 201.628 39.904 202.14 40.448C202.684 40.96 202.956 41.728 202.956 42.752C202.956 43.584 202.78 45.152 202.428 47.456C202.108 49.408 201.852 51.264 201.66 53.024C201.468 54.752 201.372 56.688 201.372 58.832C201.372 60.048 201.116 60.928 200.604 61.472C200.124 61.984 199.324 62.24 198.204 62.24C197.148 62.24 196.38 61.968 195.9 61.424C195.42 60.88 195.18 60.064 195.18 58.976C195.18 57.696 195.404 55.584 195.852 52.64C196.236 50.08 196.428 48.448 196.428 47.744C196.428 47.232 196.252 46.976 195.9 46.976C195.484 46.976 194.892 47.52 194.124 48.608C193.388 49.664 192.62 51.072 191.82 52.832C191.052 54.592 190.428 56.448 189.948 58.4C189.596 59.904 189.18 60.928 188.7 61.472C188.252 61.984 187.532 62.24 186.54 62.24Z" fill="white"/>
<path d="M111.648 86.84C111.883 86.8827 112.171 86.9253 112.512 86.968C112.853 86.9893 113.173 87 113.472 87C114.197 87 114.859 86.8933 115.456 86.68C116.075 86.4667 116.597 86.136 117.024 85.688C117.472 85.24 117.813 84.664 118.048 83.96C118.304 83.2347 118.432 82.3707 118.432 81.368C118.432 79.448 117.984 78.008 117.088 77.048C116.192 76.0667 114.997 75.576 113.504 75.576C113.205 75.576 112.896 75.5867 112.576 75.608C112.277 75.6293 111.968 75.6613 111.648 75.704V86.84ZM113.44 91.512C113.077 91.512 112.661 91.5013 112.192 91.48C111.723 91.4587 111.232 91.416 110.72 91.352C110.229 91.288 109.728 91.2027 109.216 91.096C108.725 91.0107 108.267 90.8827 107.84 90.712C106.667 90.264 106.08 89.4853 106.08 88.376V73.432C106.08 72.984 106.197 72.6427 106.432 72.408C106.688 72.152 107.029 71.9493 107.456 71.8C108.373 71.5013 109.344 71.3093 110.368 71.224C111.392 71.1173 112.309 71.064 113.12 71.064C114.784 71.064 116.288 71.2667 117.632 71.672C118.997 72.0773 120.16 72.7067 121.12 73.56C122.101 74.392 122.859 75.448 123.392 76.728C123.925 78.008 124.192 79.5227 124.192 81.272C124.192 82.9787 123.936 84.472 123.424 85.752C122.912 87.0107 122.176 88.0773 121.216 88.952C120.277 89.8053 119.147 90.4453 117.824 90.872C116.501 91.2987 115.04 91.512 113.44 91.512ZM129.034 87.032C128.799 86.4987 128.543 85.9013 128.266 85.24C128.01 84.5787 127.732 83.8213 127.434 82.968C127.156 82.1147 126.858 81.144 126.538 80.056C126.239 78.9467 125.919 77.6773 125.578 76.248C125.876 75.9493 126.271 75.6933 126.762 75.48C127.274 75.2453 127.828 75.128 128.426 75.128C129.172 75.128 129.791 75.288 130.282 75.608C130.772 75.9067 131.135 76.4827 131.37 77.336L133.898 86.136H134.026C134.282 85.4107 134.527 84.6213 134.762 83.768C135.018 82.9147 135.263 82.04 135.498 81.144C135.732 80.2267 135.946 79.32 136.138 78.424C136.351 77.5067 136.532 76.6107 136.682 75.736C137.45 75.3307 138.292 75.128 139.21 75.128C139.956 75.128 140.575 75.288 141.066 75.608C141.556 75.928 141.802 76.4827 141.802 77.272C141.802 77.848 141.727 78.52 141.578 79.288C141.428 80.0347 141.226 80.8347 140.97 81.688C140.735 82.5413 140.447 83.4267 140.106 84.344C139.786 85.24 139.444 86.1253 139.082 87C138.719 87.8747 138.346 88.7067 137.962 89.496C137.578 90.264 137.204 90.9573 136.842 91.576C136.244 92.6213 135.69 93.4747 135.178 94.136C134.666 94.7973 134.175 95.3093 133.706 95.672C133.236 96.056 132.767 96.312 132.298 96.44C131.828 96.5893 131.338 96.664 130.826 96.664C129.93 96.664 129.204 96.3973 128.65 95.864C128.095 95.3307 127.764 94.6373 127.658 93.784C128.34 93.2507 129.023 92.6533 129.706 91.992C130.388 91.352 131.007 90.6907 131.562 90.008C131.199 89.9013 130.804 89.656 130.378 89.272C129.972 88.8667 129.524 88.12 129.034 87.032ZM149.448 90.968C149.234 91.032 148.893 91.096 148.424 91.16C147.976 91.224 147.506 91.256 147.016 91.256C146.546 91.256 146.12 91.224 145.736 91.16C145.373 91.096 145.064 90.968 144.808 90.776C144.552 90.584 144.349 90.328 144.2 90.008C144.072 89.6667 144.008 89.2293 144.008 88.696V79.096C144.008 78.6053 144.093 78.1893 144.264 77.848C144.456 77.4853 144.722 77.1653 145.064 76.888C145.405 76.6107 145.821 76.3653 146.312 76.152C146.824 75.9173 147.368 75.7147 147.944 75.544C148.52 75.3733 149.117 75.2453 149.736 75.16C150.354 75.0533 150.973 75 151.592 75C152.616 75 153.426 75.2027 154.024 75.608C154.621 75.992 154.92 76.632 154.92 77.528C154.92 77.8267 154.877 78.1253 154.792 78.424C154.706 78.7013 154.6 78.9573 154.472 79.192C154.024 79.192 153.565 79.2133 153.096 79.256C152.626 79.2987 152.168 79.3627 151.72 79.448C151.272 79.5333 150.845 79.6293 150.44 79.736C150.056 79.8213 149.725 79.928 149.448 80.056V90.968ZM164.794 91.512C163.536 91.512 162.362 91.3413 161.274 91C160.208 90.6373 159.269 90.104 158.458 89.4C157.669 88.696 157.04 87.8107 156.57 86.744C156.122 85.6773 155.898 84.4293 155.898 83C155.898 81.592 156.122 80.3867 156.57 79.384C157.04 78.36 157.648 77.528 158.394 76.888C159.141 76.2267 159.994 75.7467 160.954 75.448C161.914 75.128 162.896 74.968 163.898 74.968C165.029 74.968 166.053 75.1387 166.97 75.48C167.909 75.8213 168.709 76.2907 169.37 76.888C170.053 77.4853 170.576 78.2 170.938 79.032C171.322 79.864 171.514 80.7707 171.514 81.752C171.514 82.4773 171.312 83.032 170.906 83.416C170.501 83.8 169.936 84.0453 169.21 84.152L161.306 85.336C161.541 86.04 162.021 86.5733 162.746 86.936C163.472 87.2773 164.304 87.448 165.242 87.448C166.117 87.448 166.938 87.3413 167.706 87.128C168.496 86.8933 169.136 86.6267 169.626 86.328C169.968 86.5413 170.256 86.84 170.49 87.224C170.725 87.608 170.842 88.0133 170.842 88.44C170.842 89.4 170.394 90.1147 169.498 90.584C168.816 90.9467 168.048 91.192 167.194 91.32C166.341 91.448 165.541 91.512 164.794 91.512ZM163.898 78.936C163.386 78.936 162.938 79.0213 162.554 79.192C162.192 79.3627 161.893 79.5867 161.658 79.864C161.424 80.12 161.242 80.4187 161.114 80.76C161.008 81.08 160.944 81.4107 160.922 81.752L166.394 80.856C166.33 80.4293 166.096 80.0027 165.69 79.576C165.285 79.1493 164.688 78.936 163.898 78.936ZM182.901 79.256C182.367 79.256 181.855 79.3413 181.365 79.512C180.895 79.6827 180.479 79.9387 180.117 80.28C179.775 80.6 179.498 81.0053 179.285 81.496C179.071 81.9867 178.965 82.5627 178.965 83.224C178.965 84.5467 179.338 85.5387 180.085 86.2C180.853 86.8613 181.781 87.192 182.869 87.192C183.509 87.192 184.063 87.1173 184.533 86.968C185.002 86.8187 185.418 86.6587 185.781 86.488C186.207 86.7867 186.527 87.1173 186.741 87.48C186.954 87.8213 187.061 88.2373 187.061 88.728C187.061 89.6027 186.645 90.2853 185.813 90.776C184.981 91.2453 183.829 91.48 182.357 91.48C181.013 91.48 179.797 91.288 178.709 90.904C177.621 90.4987 176.682 89.944 175.893 89.24C175.125 88.5147 174.527 87.6507 174.101 86.648C173.674 85.6453 173.461 84.536 173.461 83.32C173.461 81.912 173.685 80.6853 174.133 79.64C174.602 78.5733 175.231 77.6987 176.021 77.016C176.81 76.3333 177.717 75.8213 178.741 75.48C179.786 75.1387 180.885 74.968 182.037 74.968C183.573 74.968 184.757 75.2453 185.589 75.8C186.421 76.3547 186.837 77.0693 186.837 77.944C186.837 78.3493 186.741 78.7333 186.549 79.096C186.357 79.4373 186.133 79.736 185.877 79.992C185.514 79.8213 185.077 79.6613 184.565 79.512C184.053 79.3413 183.498 79.256 182.901 79.256ZM197.544 91.512C196.286 91.512 195.112 91.3413 194.024 91C192.958 90.6373 192.019 90.104 191.208 89.4C190.419 88.696 189.79 87.8107 189.32 86.744C188.872 85.6773 188.648 84.4293 188.648 83C188.648 81.592 188.872 80.3867 189.32 79.384C189.79 78.36 190.398 77.528 191.144 76.888C191.891 76.2267 192.744 75.7467 193.704 75.448C194.664 75.128 195.646 74.968 196.648 74.968C197.779 74.968 198.803 75.1387 199.72 75.48C200.659 75.8213 201.459 76.2907 202.12 76.888C202.803 77.4853 203.326 78.2 203.688 79.032C204.072 79.864 204.264 80.7707 204.264 81.752C204.264 82.4773 204.062 83.032 203.656 83.416C203.251 83.8 202.686 84.0453 201.96 84.152L194.056 85.336C194.291 86.04 194.771 86.5733 195.496 86.936C196.222 87.2773 197.054 87.448 197.992 87.448C198.867 87.448 199.688 87.3413 200.456 87.128C201.246 86.8933 201.886 86.6267 202.376 86.328C202.718 86.5413 203.006 86.84 203.24 87.224C203.475 87.608 203.592 88.0133 203.592 88.44C203.592 89.4 203.144 90.1147 202.248 90.584C201.566 90.9467 200.798 91.192 199.944 91.32C199.091 91.448 198.291 91.512 197.544 91.512ZM196.648 78.936C196.136 78.936 195.688 79.0213 195.304 79.192C194.942 79.3627 194.643 79.5867 194.408 79.864C194.174 80.12 193.992 80.4187 193.864 80.76C193.758 81.08 193.694 81.4107 193.672 81.752L199.144 80.856C199.08 80.4293 198.846 80.0027 198.44 79.576C198.035 79.1493 197.438 78.936 196.648 78.936ZM216.739 81.144C216.739 80.4827 216.547 80.0027 216.163 79.704C215.8 79.384 215.299 79.224 214.659 79.224C214.232 79.224 213.805 79.2773 213.379 79.384C212.973 79.4907 212.621 79.6507 212.323 79.864V90.968C212.109 91.032 211.768 91.096 211.299 91.16C210.851 91.224 210.381 91.256 209.891 91.256C209.421 91.256 208.995 91.224 208.611 91.16C208.248 91.096 207.939 90.968 207.683 90.776C207.427 90.584 207.224 90.328 207.075 90.008C206.947 89.6667 206.883 89.2293 206.883 88.696V79.096C206.883 78.52 207 78.0507 207.235 77.688C207.491 77.3253 207.832 76.9947 208.259 76.696C208.984 76.184 209.891 75.768 210.979 75.448C212.088 75.128 213.315 74.968 214.659 74.968C217.069 74.968 218.925 75.5013 220.227 76.568C221.528 77.6133 222.179 79.0747 222.179 80.952V90.968C221.965 91.032 221.624 91.096 221.155 91.16C220.707 91.224 220.237 91.256 219.747 91.256C219.277 91.256 218.851 91.224 218.467 91.16C218.104 91.096 217.795 90.968 217.539 90.776C217.283 90.584 217.08 90.328 216.931 90.008C216.803 89.6667 216.739 89.2293 216.739 88.696V81.144ZM230.979 85.656C230.979 86.2107 231.15 86.6053 231.491 86.84C231.854 87.0747 232.355 87.192 232.995 87.192C233.315 87.192 233.646 87.1707 233.987 87.128C234.328 87.064 234.627 86.9893 234.883 86.904C235.075 87.1387 235.235 87.4053 235.363 87.704C235.512 87.9813 235.587 88.3227 235.587 88.728C235.587 89.5387 235.278 90.2 234.659 90.712C234.062 91.224 232.995 91.48 231.459 91.48C229.582 91.48 228.131 91.0533 227.107 90.2C226.104 89.3467 225.603 87.96 225.603 86.04V72.344C225.838 72.28 226.168 72.216 226.595 72.152C227.043 72.0667 227.512 72.024 228.003 72.024C228.942 72.024 229.667 72.1947 230.179 72.536C230.712 72.856 230.979 73.5493 230.979 74.616V76.664H235.171C235.299 76.8987 235.416 77.1973 235.523 77.56C235.651 77.9013 235.715 78.2853 235.715 78.712C235.715 79.4587 235.544 80.0027 235.203 80.344C234.883 80.664 234.446 80.824 233.891 80.824H230.979V85.656ZM246.388 91.512C245.129 91.512 243.956 91.3413 242.868 91C241.801 90.6373 240.863 90.104 240.052 89.4C239.263 88.696 238.633 87.8107 238.164 86.744C237.716 85.6773 237.492 84.4293 237.492 83C237.492 81.592 237.716 80.3867 238.164 79.384C238.633 78.36 239.241 77.528 239.988 76.888C240.735 76.2267 241.588 75.7467 242.548 75.448C243.508 75.128 244.489 74.968 245.492 74.968C246.623 74.968 247.647 75.1387 248.564 75.48C249.503 75.8213 250.303 76.2907 250.964 76.888C251.647 77.4853 252.169 78.2 252.532 79.032C252.916 79.864 253.108 80.7707 253.108 81.752C253.108 82.4773 252.905 83.032 252.5 83.416C252.095 83.8 251.529 84.0453 250.804 84.152L242.9 85.336C243.135 86.04 243.615 86.5733 244.34 86.936C245.065 87.2773 245.897 87.448 246.836 87.448C247.711 87.448 248.532 87.3413 249.3 87.128C250.089 86.8933 250.729 86.6267 251.22 86.328C251.561 86.5413 251.849 86.84 252.084 87.224C252.319 87.608 252.436 88.0133 252.436 88.44C252.436 89.4 251.988 90.1147 251.092 90.584C250.409 90.9467 249.641 91.192 248.788 91.32C247.935 91.448 247.135 91.512 246.388 91.512ZM245.492 78.936C244.98 78.936 244.532 79.0213 244.148 79.192C243.785 79.3627 243.487 79.5867 243.252 79.864C243.017 80.12 242.836 80.4187 242.708 80.76C242.601 81.08 242.537 81.4107 242.516 81.752L247.988 80.856C247.924 80.4293 247.689 80.0027 247.284 79.576C246.879 79.1493 246.281 78.936 245.492 78.936ZM261.167 90.968C260.953 91.032 260.612 91.096 260.143 91.16C259.695 91.224 259.225 91.256 258.735 91.256C258.265 91.256 257.839 91.224 257.455 91.16C257.092 91.096 256.783 90.968 256.527 90.776C256.271 90.584 256.068 90.328 255.919 90.008C255.791 89.6667 255.727 89.2293 255.727 88.696V79.096C255.727 78.6053 255.812 78.1893 255.983 77.848C256.175 77.4853 256.441 77.1653 256.783 76.888C257.124 76.6107 257.54 76.3653 258.031 76.152C258.543 75.9173 259.087 75.7147 259.663 75.544C260.239 75.3733 260.836 75.2453 261.455 75.16C262.073 75.0533 262.692 75 263.311 75C264.335 75 265.145 75.2027 265.743 75.608C266.34 75.992 266.639 76.632 266.639 77.528C266.639 77.8267 266.596 78.1253 266.511 78.424C266.425 78.7013 266.319 78.9573 266.191 79.192C265.743 79.192 265.284 79.2133 264.815 79.256C264.345 79.2987 263.887 79.3627 263.439 79.448C262.991 79.5333 262.564 79.6293 262.159 79.736C261.775 79.8213 261.444 79.928 261.167 80.056V90.968Z" fill="white"/>
<defs>
<clipPath id="clip0_10_161">
<rect width="104" height="114" fill="white" transform="translate(0 12)"/>
</clipPath>
</defs>
</svg>
