<svg width="39" height="44" viewBox="0 0 39 44" fill="none" xmlns="http://www.w3.org/2000/svg">
<path d="M12.5416 19.166C12.5416 20.9231 13.2396 22.6082 14.482 23.8506C15.7245 25.093 17.4096 25.791 19.1666 25.791C20.9237 25.791 22.6088 25.093 23.8512 23.8506C25.0936 22.6082 25.7916 20.9231 25.7916 19.166C25.7916 17.409 25.0936 15.7239 23.8512 14.4814C22.6088 13.239 20.9237 12.541 19.1666 12.541C17.4096 12.541 15.7245 13.239 14.482 14.4814C13.2396 15.7239 12.5416 17.409 12.5416 19.166Z" stroke="white" stroke-width="3" stroke-linecap="round" stroke-linejoin="round"/>
<path d="M31.6592 31.6586L22.2893 41.0285C21.4611 41.8558 20.3384 42.3206 19.1678 42.3206C17.9972 42.3206 16.8745 41.8558 16.0463 41.0285L6.67413 31.6586C4.2035 29.1878 2.521 26.0399 1.8394 22.6129C1.1578 19.186 1.50772 15.6338 2.84489 12.4057C4.18207 9.17761 6.44645 6.4185 9.3517 4.47731C12.2569 2.53611 15.6726 1.5 19.1667 1.5C22.6608 1.5 26.0764 2.53611 28.9817 4.47731C31.8869 6.4185 34.1513 9.17761 35.4885 12.4057C36.8256 15.6338 37.1755 19.186 36.4939 22.6129C35.8124 26.0399 34.1299 29.1878 31.6592 31.6586Z" stroke="white" stroke-width="3" stroke-linecap="round" stroke-linejoin="round"/>
</svg>
