<svg width="77" height="77" viewBox="0 0 77 77" fill="none" xmlns="http://www.w3.org/2000/svg">
<g clip-path="url(#clip0_1_2)">
<path d="M9.625 22.4583C9.625 20.7565 10.301 19.1244 11.5044 17.9211C12.7078 16.7177 14.3399 16.0417 16.0417 16.0417H60.9583C62.6601 16.0417 64.2922 16.7177 65.4956 17.9211C66.699 19.1244 67.375 20.7565 67.375 22.4583V54.5417C67.375 56.2435 66.699 57.8756 65.4956 59.0789C64.2922 60.2823 62.6601 60.9583 60.9583 60.9583H16.0417C14.3399 60.9583 12.7078 60.2823 11.5044 59.0789C10.301 57.8756 9.625 56.2435 9.625 54.5417V22.4583Z" stroke="white" stroke-width="5" stroke-linecap="round" stroke-linejoin="round"/>
<path d="M9.625 22.4583L38.5 41.7083L67.375 22.4583" stroke="white" stroke-width="5" stroke-linecap="round" stroke-linejoin="round"/>
</g>
<defs>
<clipPath id="clip0_1_2">
<rect width="77" height="77" fill="white"/>
</clipPath>
</defs>
</svg>
