<svg width="236" height="229" viewBox="0 0 236 229" fill="none" xmlns="http://www.w3.org/2000/svg">
<g clip-path="url(#clip0_6_58)">
<path d="M214.6 133.33C206.816 132.862 200.13 128.375 193.814 124.218C187.911 120.331 181.088 115.878 173.687 116.47C170.637 116.714 167.593 117.73 165.193 119.665C162.792 121.6 161.36 124.571 161.344 127.774C161.33 131.411 162.562 134.938 163.156 138.496C163.743 141.984 163.569 145.531 163.005 149.011C161.908 155.735 159.382 162.317 159.375 169.197C159.369 172.452 159.838 176.474 162.295 178.87C163.647 180.186 165.482 180.557 167.307 180.659C168.989 180.753 170.691 180.628 172.351 180.347C178.953 179.239 185.045 175.391 188.972 169.989C189.955 168.635 190.793 167.191 191.472 165.657C192.19 164.028 192.677 162.301 193.434 160.684C194.277 158.888 195.445 157.312 197.189 156.306C199.078 155.218 201.291 154.941 203.435 154.889C207.207 154.797 210.922 154.84 214.637 154.048C217.788 153.373 221.079 152.082 223.259 149.614C225.439 147.147 226.357 143.62 225.507 140.33C224.679 137.12 222.252 134.662 219.158 133.565C217.671 133.039 216.085 132.894 214.526 133.111C212.886 133.333 212.565 130.782 214.209 130.558C217.857 130.061 221.744 131.258 224.444 133.77C227.281 136.41 228.669 140.207 228.354 144.058C228.043 147.839 225.904 151.253 222.819 153.405C219.704 155.58 215.917 156.587 212.187 157.062C210.299 157.303 208.398 157.406 206.496 157.425C204.354 157.443 202.107 157.288 200.023 157.878C198.17 158.406 196.839 159.603 195.987 161.309C195.134 163.015 194.641 164.823 193.891 166.549C190.963 173.263 185.184 178.591 178.406 181.292C174.963 182.662 171.282 183.334 167.581 183.23C165.513 183.173 163.438 182.801 161.683 181.657C159.929 180.512 158.829 178.785 158.099 176.943C155.356 170.021 157.445 162.184 159.081 155.269C159.916 151.744 160.725 148.184 160.932 144.556C161.14 140.929 160.296 137.252 159.522 133.607C158.748 129.963 158.273 125.911 159.897 122.342C161.329 119.21 164.04 116.895 167.141 115.494C170.242 114.093 173.892 113.562 177.31 113.99C181.311 114.494 185.107 116.062 188.612 118.003C195.569 121.854 201.751 127.302 209.427 129.754C211.218 130.326 213.069 130.668 214.941 130.778C215.632 130.82 216.13 131.578 216.042 132.227C215.944 132.958 215.29 133.368 214.594 133.328L214.6 133.33Z" fill="white"/>
<path d="M210.848 118.757C212.237 114.35 211.842 109.563 210.663 105.157C210.043 102.84 209.277 100.384 208.091 98.2862C206.904 96.188 204.723 94.7525 202.55 93.6475C200.377 92.5425 198.23 91.7553 195.932 91.2481C194.828 91.0034 193.466 90.6043 192.338 90.9208C191.479 91.1596 190.972 91.9378 190.769 92.7677C190.491 93.8966 190.759 95.1221 191.078 96.2152C191.457 97.534 191.887 98.8426 192.316 100.146C193.162 102.686 193.932 105.408 195.232 107.766C196.631 110.31 199.359 111.358 201.831 112.595C204.743 114.046 207.653 115.491 210.565 116.942C211.189 117.252 211.538 117.948 211.262 118.625C211.008 119.236 210.203 119.631 209.579 119.322C206.709 117.892 203.833 116.461 200.964 115.032C198.424 113.767 195.574 112.641 193.82 110.299C192.065 107.958 191.172 104.78 190.225 101.981C189.736 100.546 189.272 99.1016 188.831 97.647C188.39 96.1923 188.011 94.7121 188.118 93.1695C188.203 91.9761 188.663 90.7331 189.465 89.8329C190.503 88.668 191.929 88.2389 193.456 88.2806C194.8 88.3141 196.158 88.6483 197.453 88.9919C198.748 89.3355 200.095 89.7635 201.37 90.2879C203.865 91.3097 206.456 92.6313 208.402 94.5321C210.494 96.5726 211.534 99.394 212.429 102.12C214.298 107.817 215.066 113.947 213.237 119.75C213.026 120.411 212.159 120.698 211.554 120.447C210.868 120.163 210.648 119.43 210.857 118.764L210.848 118.757Z" fill="white"/>
<path d="M181.737 106.632C179.449 101.604 179.551 95.5034 175.566 91.3283C172.26 87.8636 167.209 86.4915 162.54 86.6598C159.501 86.7711 156.509 87.414 153.625 88.3414L154.408 86.9923C154.585 89.7592 155.546 92.335 156.606 94.8695C157.667 97.404 158.553 99.7993 160.746 101.397C162.692 102.813 165.084 103.722 167.293 104.633C169.503 105.545 171.683 106.318 174.005 106.693C176.513 107.103 179.03 106.968 181.357 105.876C182.858 105.171 183.838 107.55 182.341 108.253C177.492 110.529 172.03 109.254 167.267 107.395C164.79 106.428 162.244 105.377 159.981 103.975C158.775 103.227 157.688 102.268 156.859 101.114C155.967 99.8621 155.334 98.4537 154.733 97.043C153.409 93.9269 152.073 90.7269 151.855 87.3089C151.819 86.7781 152.083 86.1395 152.638 85.9598C158.124 84.2003 164.011 83.3273 169.641 84.9667C172.118 85.6896 174.507 86.9277 176.45 88.6346C178.578 90.5045 180.062 92.8524 181.005 95.5192C182.182 98.8578 182.646 102.413 184.118 105.646C184.805 107.155 182.426 108.135 181.742 106.63L181.737 106.632Z" fill="white"/>
<path d="M150.692 123.498C152.488 118.544 152.208 113.052 150.01 108.271C147.73 103.301 143.889 99.178 139.281 96.2803C139.199 96.2306 138.9 96.0986 138.863 96.0245L139.335 95.8181C139.351 95.8562 139.343 95.8926 139.313 95.9273C139.312 96.0726 139.19 96.3015 139.143 96.4435C138.949 97.064 138.798 97.6945 138.672 98.3315C138.384 99.7481 138.205 101.186 138.066 102.625C137.775 105.675 137.578 108.736 137.345 111.789C137.123 114.643 136.712 117.564 136.864 120.431C136.983 122.682 137.514 125.268 139.65 126.472C141.785 127.676 144.87 127.284 147.198 126.76C149.097 126.33 151.528 125.357 151.956 123.27C152.285 121.658 154.835 121.994 154.505 123.617C153.967 126.257 151.841 127.928 149.395 128.785C146.949 129.642 143.97 130.046 141.346 129.668C138.325 129.232 135.916 127.3 134.961 124.376C134.007 121.453 134.282 118.137 134.524 115.024C134.801 111.456 135.071 107.886 135.35 104.323C135.475 102.729 135.61 101.131 135.847 99.5514C136.084 97.972 136.361 96.3147 136.967 94.8607C137.309 94.0454 137.964 93.4622 138.882 93.4607C139.689 93.4605 140.364 93.9329 141.022 94.3511C142.318 95.1677 143.553 96.0929 144.706 97.1023C147.045 99.1464 149.095 101.528 150.712 104.182C152.612 107.305 153.956 110.713 154.326 114.375C154.673 117.795 154.235 121.257 153.062 124.488C152.499 126.046 150.124 125.059 150.682 123.502L150.692 123.498Z" fill="white"/>
<path d="M147.87 167.368C148.251 164.577 148.636 161.783 149.015 158.986C149.359 156.483 149.837 153.924 149.66 151.385C149.49 148.972 148.612 146.796 147.137 144.89C145.663 142.983 143.706 141.365 141.716 139.934C140.709 139.21 139.678 138.523 138.642 137.849C137.925 137.383 137.054 136.758 136.16 136.766C134.199 136.776 134.166 140.087 134.111 141.418C133.895 146.425 134.61 151.714 136.471 156.384C136.965 157.617 137.574 158.779 138.468 159.768C139.362 160.756 140.482 161.295 141.624 161.835C144.305 163.103 146.846 164.601 149.174 166.444C150.474 167.471 148.918 169.524 147.617 168.492C145.389 166.731 142.997 165.338 140.436 164.115C139.222 163.537 138.017 162.9 137.039 161.963C136.06 161.026 135.281 159.884 134.665 158.653C133.407 156.139 132.707 153.265 132.197 150.514C131.687 147.763 131.466 144.78 131.531 141.885C131.585 139.541 131.727 136.603 133.745 135.021C136.061 133.204 138.696 134.808 140.75 136.163C145.183 139.083 150.054 142.64 151.639 147.987C152.552 151.067 152.252 154.243 151.829 157.376C151.362 160.821 150.886 164.27 150.415 167.718C150.192 169.358 147.642 169.011 147.865 167.37L147.87 167.368Z" fill="white"/>
<path d="M101.149 116.849C97.657 115.544 93.9014 115.579 90.3024 114.742C88.5144 114.324 86.7878 113.691 85.2822 112.611C83.7767 111.53 82.7209 110.191 81.8131 108.685C79.9183 105.521 78.613 102.046 77.1057 98.6887C76.3644 97.0466 75.5631 95.3402 74.647 93.8541C74.2124 93.1542 73.7464 92.4728 73.2294 91.8293C72.7123 91.1858 72.3435 90.7928 71.7347 90.3043C70.517 89.3272 68.8663 88.73 67.1954 88.3527C65.2839 87.9191 63.3235 87.7842 61.3754 88.0285C59.5855 88.2518 57.7757 88.7897 56.2502 89.7722C55.486 90.2669 54.7621 90.8451 54.1617 91.5336C53.8527 91.89 53.5839 92.263 53.3143 92.6475C53.1452 92.8846 53.3315 92.568 53.2039 92.838C53.1284 92.9918 53.0528 93.1456 52.9907 93.305C52.7122 93.9772 52.6443 94.2838 52.5168 95.0382C52.3893 95.7927 52.3226 96.6 52.2853 97.3839C52.22 99.0148 52.3183 100.745 52.4334 102.435C52.6647 105.764 53.1619 109.183 52.823 112.52C52.4601 116.095 50.643 119.426 48.3665 122.145C46.0899 124.864 43.4398 127.031 41.1526 129.576C38.7777 132.219 37.1591 135.062 36.6661 138.618C36.6283 138.89 36.6248 138.518 36.6685 138.812C36.6891 138.943 36.7051 139.075 36.721 139.208C36.7315 139.287 36.7535 139.367 36.7688 139.444C36.7174 139.226 36.7668 139.44 36.7826 139.478C36.8502 139.695 36.9273 139.908 37.0091 140.119C37.2949 140.836 37.6705 141.555 38.0448 142.163C38.9913 143.709 40.0876 145.159 41.2482 146.55C42.0132 147.469 44.3603 149.399 42.5437 150.485C41.1511 151.318 38.7952 149.058 40.3398 147.839C41.1244 147.219 42.1277 147.773 42.9401 148.026C43.8925 148.323 44.866 148.549 45.8483 148.716C47.8265 149.055 49.84 149.156 51.839 149.008C55.8619 148.718 59.8358 147.529 63.3187 145.49C65.0664 144.466 66.691 143.225 68.1454 141.815C69.7338 140.272 70.9324 138.406 72.3992 136.757C74.0139 134.941 75.9872 133.534 78.4685 133.286C80.9498 133.038 83.1461 133.716 85.3704 134.421C89.7827 135.823 94.4624 137.065 99.1404 136.582C103.375 136.142 107.229 133.912 108.756 129.787C110.124 126.097 109.198 121.869 106.291 119.181C104.851 117.856 103.092 116.93 101.16 116.594C99.5333 116.31 99.8693 113.759 101.508 114.044C104.789 114.612 107.797 116.496 109.718 119.226C111.639 121.956 112.374 125.371 111.726 128.647C111.077 131.922 109.246 134.83 106.482 136.693C103.456 138.732 99.8416 139.337 96.2553 139.23C92.669 139.122 89.0487 138.26 85.5959 137.184C82.5967 136.249 78.9445 134.799 76.073 136.834C74.7051 137.807 73.7051 139.185 72.689 140.496C71.673 141.808 70.56 143.088 69.3183 144.231C66.9674 146.408 64.1841 148.145 61.2312 149.379C57.9809 150.741 54.4512 151.524 50.9266 151.619C49.1098 151.67 47.2903 151.566 45.4988 151.26C44.5826 151.105 43.6751 150.891 42.7749 150.64C42.3473 150.522 41.9205 150.392 41.506 150.252C41.3688 150.203 41.1496 150.171 41.0311 150.087C41.1014 150.136 41.2475 150.125 41.3085 150.111L41.9407 149.849L41.9217 149.857C42.0582 149.689 42.1908 149.512 42.3206 149.341L42.317 149.359L42.4047 148.71C42.3665 148.403 42.2384 148.161 42.0109 147.988C42.0389 148.015 42.065 148.038 42.0958 148.059C42.1168 148.056 42.2365 148.156 42.2471 148.169C42.375 148.316 42.0079 148.062 42.174 148.127C42.4496 148.241 41.8076 148.089 41.7446 148.098L41.1124 148.36L41.1267 148.354C40.9618 148.629 40.8009 148.912 40.6428 149.189L40.7167 149.771C40.8492 149.984 40.867 150.027 40.7699 149.9C40.7256 149.874 40.6459 149.762 40.6207 149.728C40.5034 149.592 40.3766 149.461 40.2614 149.331C39.9581 148.988 39.6597 148.644 39.364 148.293C38.6602 147.454 37.9829 146.599 37.3425 145.711C36.0675 143.95 34.7819 142.016 34.2554 139.884C33.7639 137.876 34.5519 135.49 35.3515 133.655C36.2234 131.646 37.501 129.836 38.9527 128.204C41.8069 124.984 45.2361 122.372 47.6898 118.817C48.8833 117.086 49.7872 115.114 50.1662 113.03C50.5058 111.174 50.3736 109.564 50.257 107.669C49.988 103.442 49.2832 99.0503 49.9593 94.8332C50.2807 92.8122 51.0634 91.0848 52.4863 89.599C54.2753 87.7332 56.5414 86.5219 59.0323 85.8803C61.5231 85.2386 64.0127 85.1989 66.4684 85.602C68.7508 85.9767 71.2209 86.6968 73.0954 88.1036C74.751 89.3448 75.994 91.0687 77.0282 92.8401C78.2195 94.8695 79.1999 97.0085 80.1442 99.1679C81.0886 101.327 81.9244 103.359 82.9399 105.394C83.7919 107.102 84.7233 108.827 86.2716 110.118C89.6268 112.922 94.4504 112.629 98.5587 113.472C99.7752 113.72 100.986 114.049 102.147 114.487C103.702 115.068 102.714 117.443 101.162 116.866L101.149 116.849Z" fill="white"/>
<path d="M93.7927 102.81C97.4385 101.206 100.294 98.3526 102.127 94.8314C103.013 93.1228 103.9 91.1906 104.15 89.266C104.443 87.0285 103.114 84.8833 101.93 83.0851C100.597 81.0641 99.0095 79.1933 97.2428 77.5359C95.8434 76.2276 94.1093 74.6624 92.0395 75.3525C89.9696 76.0426 89.3159 78.552 88.568 80.3096C88.0699 81.4737 87.6007 82.6537 87.1517 83.842C86.7842 84.8239 86.3911 85.8109 86.2451 86.8571C86.0738 88.0974 86.449 89.1783 87.0459 90.2566C87.7239 91.4905 88.5597 92.648 89.3249 93.8236C90.9596 96.332 92.5922 98.8357 94.2269 101.344C94.6075 101.927 94.5825 102.7 94.0013 103.153C93.4863 103.55 92.5753 103.515 92.1927 102.927C90.5853 100.458 88.9711 97.9852 87.3637 95.5156C86.5653 94.2869 85.7289 93.074 84.9932 91.8083C84.3043 90.6289 83.7079 89.3501 83.6405 87.9635C83.516 85.3364 84.7914 82.7144 85.765 80.3454C86.2755 79.1038 86.8002 77.8563 87.3934 76.6528C87.9865 75.4493 88.6652 74.3719 89.7505 73.6441C92.0347 72.1134 94.8202 72.4524 97.0048 73.9757C98.0686 74.7158 99.0049 75.659 99.918 76.5729C100.902 77.5633 101.831 78.6098 102.684 79.7154C104.346 81.8729 105.998 84.3573 106.605 87.0463C107.144 89.4238 106.252 91.8816 105.329 94.0512C103.255 98.9532 99.6945 103.023 94.7769 105.187C93.26 105.854 92.2758 103.478 93.7927 102.81Z" fill="white"/>
<path d="M75.6058 83.0043C76.1693 78.004 79.7002 73.2173 78.3547 68.072C76.9401 62.6657 71.864 58.9205 67.0368 56.7038C64.0592 55.3363 60.9117 54.3787 57.7201 53.6511L58.918 53.155C57.5207 55.4154 57.0677 58.0867 56.6785 60.6703C56.4769 62.0124 56.2127 63.3915 56.3047 64.7567C56.4025 66.2031 56.9633 67.4633 57.7784 68.6516C59.2665 70.8198 61.0883 72.8387 62.8924 74.7479C64.4691 76.4172 66.183 77.974 68.0914 79.2608C70.3014 80.7514 72.7787 81.7581 75.4369 82.0719C77.0817 82.265 76.7342 84.8147 75.0894 84.6215C69.6152 83.9759 65.1231 80.7128 61.374 76.8636C59.4824 74.9182 57.6312 72.828 56.0319 70.6334C55.0106 69.2298 54.1674 67.6911 53.8609 65.9692C53.577 64.3827 53.7769 62.7406 54.0071 61.1584C54.4913 57.8227 55.0732 54.5077 56.8697 51.5975C57.0889 51.2394 57.6613 51.0079 58.0676 51.1014C64.0473 52.4565 70.1955 54.5549 74.9122 58.616C77.2248 60.6099 79.2478 63.0744 80.3556 65.9514C81.4634 68.8284 81.423 71.5683 80.6776 74.3941C79.8874 77.3943 78.5078 80.2489 78.1555 83.3518C77.9691 84.9994 75.4194 84.6519 75.6058 83.0043Z" fill="white"/>
<path d="M44.024 86.0142C47.5613 82.3051 49.8672 77.3574 49.4487 72.1511C49.2064 69.1051 48.2238 66.154 46.7934 63.4663C46.0874 62.1381 45.2381 60.8804 44.3027 59.6974C43.3672 58.5144 42.3615 57.2825 41.1837 56.3613C41.1422 56.3284 40.9767 56.1574 40.9449 56.2151L41.2097 56.2224L41.17 56.2611C41.1602 56.3988 40.6412 56.8533 40.5273 56.9951C40.0205 57.6003 39.5486 58.2357 39.1007 58.8889C38.2848 60.0789 37.5613 61.3307 36.8822 62.6088C35.3228 65.5266 33.8432 68.4894 32.3261 71.4287C30.937 74.1257 29.306 76.817 28.3934 79.7232C27.674 82.0203 27.7589 84.4577 29.8639 85.9639C30.9878 86.7682 32.3736 87.1967 33.7072 87.4853C35.2583 87.8287 36.8528 88.0483 38.4389 88.1265C40.8941 88.2459 44.2652 88.1028 45.8215 85.8768C46.772 84.5142 48.8175 86.0784 47.8699 87.4343C46.1126 89.9551 42.7759 90.6519 39.8862 90.707C36.7634 90.7639 33.3827 90.3596 30.4676 89.1833C29.082 88.621 27.7706 87.7941 26.8304 86.6131C25.8137 85.3412 25.3798 83.7555 25.3995 82.1491C25.4416 78.9964 27.0358 76.1087 28.4389 73.3781C30.1686 70.0111 31.8984 66.644 33.6349 63.2797C35.1763 60.2913 36.776 57.2287 39.0725 54.7463C39.695 54.0708 40.4663 53.5398 41.4392 53.7105C42.2684 53.8572 42.8696 54.4213 43.4525 54.9818C44.7866 56.267 46.0216 57.649 47.1004 59.1514C49.1025 61.942 50.5696 65.0545 51.4077 68.3828C52.289 71.8827 52.2444 75.4596 51.2094 78.9177C50.2359 82.1609 48.3933 85.1348 46.0648 87.5804C45.5884 88.0839 44.8569 88.281 44.2619 87.8258C43.7585 87.4439 43.5353 86.5284 44.0165 86.0228L44.024 86.0142Z" fill="white"/>
<path d="M31.4513 128.298C33.0088 125.698 34.573 123.101 36.1305 120.502C37.4624 118.285 38.9138 116.075 39.742 113.61C41.4001 108.658 38.2855 104.189 35.104 100.662C34.1782 99.6364 33.2087 98.6401 32.2261 97.6659C31.5453 96.99 30.8107 96.2918 29.9015 95.9388C27.5352 95.0253 25.8998 97.5848 25.0406 99.3829C22.8916 103.876 21.5542 108.957 21.6779 113.962C21.7162 115.467 21.9084 116.98 22.5984 118.337C23.2885 119.694 24.5051 120.588 25.6834 121.47C28.2435 123.389 30.6028 125.536 32.6412 128.011C33.6944 129.29 31.6629 130.867 30.6118 129.592C28.6539 127.218 26.3939 125.23 23.9418 123.383C22.7508 122.484 21.5601 121.518 20.744 120.247C19.8703 118.876 19.3956 117.313 19.2127 115.702C18.8959 112.893 19.2059 109.93 19.7486 107.165C20.3061 104.356 21.1891 101.607 22.3758 98.9996C23.5625 96.392 25.1717 93.7153 28.1786 93.2441C31.1856 92.773 33.1972 95.0084 35.0604 96.8987C38.9482 100.841 43.2287 105.717 42.7558 111.649C42.5091 114.792 40.8367 117.612 39.2578 120.254C37.3435 123.458 35.4138 126.651 33.4976 129.851C33.1369 130.446 32.2068 130.485 31.6947 130.096C31.0929 129.638 31.0906 128.893 31.4493 128.293L31.4513 128.298Z" fill="white"/>
</g>
<defs>
<clipPath id="clip0_6_58">
<rect width="184.309" height="170.613" fill="white" transform="matrix(-0.923914 0.382601 0.382601 0.923914 170.285 0)"/>
</clipPath>
</defs>
</svg>
